<svg width="33" height="33" viewBox="0 0 33 33" fill="none" xmlns="http://www.w3.org/2000/svg">
<g clip-path="url(#clip0_47_147)">
<path d="M17.6321 32.4805H15.3681C15.3142 32.4805 15.2701 32.4364 15.2701 32.3825V19.4697L6.14041 28.5993C6.11591 28.6238 6.08651 28.6336 6.05221 28.6238C6.0326 28.6238 6.0179 28.6091 6.0032 28.5993L4.40073 26.9968C4.40073 26.9968 4.37133 26.9527 4.37133 26.9282C4.37133 26.9037 4.38113 26.8792 4.40073 26.8596L13.5304 17.73H0.617541C0.563636 17.73 0.519531 17.6859 0.519531 17.632V15.3679C0.519531 15.3679 0.524432 15.3287 0.534233 15.314C0.553835 15.2895 0.583238 15.2699 0.612641 15.2699H13.5255L4.40073 6.14029C4.40073 6.14029 4.37133 6.09619 4.37133 6.07168C4.37133 6.04718 4.38113 6.02268 4.40073 6.00308L6.0032 4.40061C6.0424 4.36141 6.10121 4.36141 6.14041 4.40061L15.2701 13.5303V0.617419C15.2701 0.563514 15.3142 0.519409 15.3681 0.519409H17.6321C17.686 0.519409 17.7301 0.563514 17.7301 0.617419V13.5303L26.8598 4.40061C26.8794 4.38101 26.9088 4.37121 26.9382 4.37121C26.9578 4.37121 26.9823 4.38101 26.997 4.40061L28.5994 6.00308C28.6386 6.04228 28.6386 6.10109 28.5994 6.14029L19.4649 15.2748H32.3777C32.4316 15.2748 32.4757 15.3189 32.4757 15.3728V17.6369C32.4757 17.6369 32.4757 17.6663 32.4659 17.681C32.4512 17.7153 32.4169 17.7349 32.3777 17.7349H19.4649L28.5945 26.8645C28.6337 26.9037 28.6337 26.9625 28.5945 27.0017L26.9921 28.6042C26.9529 28.6434 26.8941 28.6434 26.8549 28.6042L17.7252 19.4746V32.3874C17.7252 32.4413 17.6811 32.4854 17.6272 32.4854L17.6321 32.4805ZM15.4661 32.2845H17.539V19.2344C17.539 19.1952 17.5635 19.1609 17.5978 19.1462C17.6321 19.1315 17.6762 19.1413 17.7007 19.1658L26.9284 28.3935L28.3936 26.9282L19.166 17.7006C19.1366 17.6712 19.1317 17.632 19.1464 17.5977C19.1611 17.5634 19.1954 17.5389 19.2346 17.5389H32.2846V15.466H19.2346C19.1954 15.466 19.1611 15.4415 19.1464 15.4072C19.1317 15.3728 19.1415 15.3287 19.166 15.3042L28.3936 6.07658L26.9284 4.61133L17.7007 13.839C17.6713 13.8684 17.6321 13.8733 17.5978 13.8586C17.5635 13.8439 17.539 13.8096 17.539 13.7704V0.71543H15.4661V13.7655C15.4661 13.8047 15.4416 13.839 15.4073 13.8537C15.373 13.8684 15.3289 13.8586 15.3044 13.8341L6.07181 4.60643L4.60655 6.07168L13.8342 15.2993C13.8636 15.3287 13.8685 15.3679 13.8538 15.4023C13.8391 15.4366 13.8048 15.4611 13.7656 15.4611H0.715552V17.534H13.7656C13.8048 17.534 13.8391 17.5585 13.8538 17.5928C13.8685 17.6271 13.8587 17.6712 13.8342 17.6957L4.60655 26.9233L6.07181 28.3886L15.2995 19.1609C15.3289 19.1315 15.3681 19.1266 15.4024 19.1413C15.4367 19.156 15.4612 19.1903 15.4612 19.2295V32.2796L15.4661 32.2845Z" fill="#FEF4EB" stroke="#FEF4EB" stroke-linecap="round" stroke-linejoin="round"/>
</g>
<defs>
<clipPath id="clip0_47_147">
<rect width="33" height="33" fill="white"/>
</clipPath>
</defs>
</svg>
