<svg width="40" height="31" viewBox="0 0 40 31" fill="none" xmlns="http://www.w3.org/2000/svg">
<path d="M32.771 19.6831V7.11274C32.771 6.95399 32.771 6.78794 32.771 6.62554C32.7728 3.24254 27.087 0.5 20.0218 0.5C12.9565 0.5 7.25977 3.24254 7.25977 6.62554C7.25977 6.76605 7.25977 6.8737 7.25977 7.03975V19.6831" stroke="#512500" stroke-linecap="round" stroke-linejoin="round"/>
<path d="M14.9751 12.2566H14.9727" stroke="#512500" stroke-linecap="round" stroke-linejoin="round"/>
<path d="M26.2603 25.0239C30.1469 23.9729 32.7708 21.9766 32.7708 19.6848" stroke="#512500" stroke-linecap="round" stroke-linejoin="round"/>
<path d="M7.25781 19.6831C7.25781 22.0133 9.94013 24.0387 13.9308 25.0751H13.9344" stroke="#512500" stroke-linecap="round" stroke-linejoin="round"/>
<path d="M32.7711 17.0044C32.7711 17.0044 32.7747 17.0062 32.7765 17.0081C34.187 18.3565 35.0009 19.944 35.0009 21.6465C35.0009 26.5367 28.2859 30.5 19.9999 30.5C11.7139 30.5 4.99902 26.5385 4.99902 21.6483C4.99902 19.9331 5.82562 18.3328 7.25801 16.9771" stroke="#512500" stroke-linecap="round" stroke-linejoin="round"/>
<path d="M26.2607 25.024C24.2024 24.1098 22.1423 23.2504 20.0841 22.3362C18.0331 23.2504 15.9821 24.1646 13.9312 25.0788V12.7565C15.9748 11.7785 18.0185 10.7986 20.0603 9.82056C22.1277 10.7986 24.1933 11.7785 26.2607 12.7565V25.024Z" stroke="#512500" stroke-linecap="round" stroke-linejoin="round"/>
<path d="M13.9658 19.8855C16.0131 18.641 18.0605 17.3966 20.1078 16.1521C22.1551 17.4057 24.2024 18.6611 26.2498 19.9146" stroke="#512500" stroke-linecap="round" stroke-linejoin="round"/>
</svg>
