<svg width="50" height="49" viewBox="0 0 50 49" fill="none" xmlns="http://www.w3.org/2000/svg">
<g clip-path="url(#clip0_stat_leaf)">
<path d="M7.61198 46.17C8.07062 45.5423 8.54535 44.8906 9.03618 44.2871C9.53505 43.6756 10.0661 43.0641 10.5811 42.4686C11.1041 41.8652 11.6432 41.2456 12.1662 40.6099C12.6731 39.9823 13.1881 39.3627 13.7031 38.7432C14.218 38.1236 14.7249 37.504 15.2319 36.8845C15.4894 36.5707 15.7227 36.2408 15.948 35.9109C16.5434 36.2166 17.2756 36.5546 18.1849 36.9569C19.1987 37.3994 20.3654 37.8339 21.685 38.2363C22.8035 38.5742 23.9461 39.1777 25.2576 39.403C26.4243 39.6041 27.6957 39.6605 29.0072 39.7248C30.2061 39.7812 31.4533 39.6605 32.7568 39.5639C34.0764 39.4673 35.2995 39.1857 36.4903 38.9443C37.7938 38.6788 39.0169 38.4133 40.1595 38.0351C41.4388 37.6086 42.6216 37.158 43.6838 36.6511C44.947 36.0476 46.1298 35.5407 47.0713 34.9372C48.4713 34.0522 49.3484 33.1912 49.9921 32.6601C49.1472 32.2498 48.0288 31.7992 46.5482 31.2762C45.4781 30.898 44.3355 30.2462 42.9757 29.9163C41.825 29.6428 40.5215 29.6588 39.1778 29.4818C37.9789 29.3289 36.7237 29.0393 35.396 29.0151C34.181 28.991 32.9016 29.1036 31.582 29.2243C30.3349 29.337 29.1279 29.4818 27.9934 29.7071C26.7542 29.9485 25.6438 30.4715 24.5495 30.8095C23.3265 31.1877 22.0954 31.3244 21.0574 31.767C19.8424 32.282 18.893 33.0946 17.9435 33.6176C17.6538 33.7786 17.3802 33.9315 17.1228 34.0763C17.3883 33.6579 17.6619 33.2636 17.9596 32.8935C18.4745 32.2659 18.9734 31.6302 19.4723 30.9945C19.9712 30.3669 20.462 29.7393 20.9689 29.1197C21.4276 28.5565 21.9908 28.0415 22.5782 27.5105C23.0851 27.0438 23.6081 26.569 24.0828 26.0299C24.2518 25.9575 24.4288 25.8771 24.6139 25.7886C25.5956 25.346 26.6657 24.7828 27.8164 24.0827C28.7819 23.4953 29.9647 23.0528 30.9866 22.2562C31.8959 21.5401 32.7568 20.655 33.65 19.7538C34.4707 18.925 35.1949 17.9434 35.9673 16.9376C36.7478 15.9237 37.3432 14.8536 37.9387 13.8397C38.5904 12.7293 39.1939 11.6672 39.6606 10.597C40.1836 9.39814 40.6261 8.25556 40.948 7.15321C41.3342 5.8497 41.7285 4.66689 41.9055 3.59673C42.171 2.0116 42.1147 0.812691 42.1469 0.00805664C41.302 0.35405 40.256 0.869016 38.9123 1.60123C37.9467 2.13229 36.7317 2.53461 35.6133 3.30706C34.6638 3.96686 33.827 4.91633 32.8373 5.77729C31.9522 6.54169 30.9222 7.26586 30.0371 8.20728C29.2325 9.07629 28.4842 10.066 27.7118 11.0959C26.9876 12.0695 26.3036 13.0351 25.7324 14.0007C25.1047 15.0547 24.7587 16.1893 24.2921 17.2031C23.769 18.3296 23.069 19.3112 22.715 20.3492C22.2966 21.5642 22.2724 22.7792 22.031 23.8011C21.8701 24.485 21.7333 25.0805 21.6287 25.6115C21.4839 25.7403 21.339 25.8771 21.1942 26.0058C20.5746 26.569 19.939 27.1564 19.3838 27.8323C18.8688 28.4599 18.3699 29.0956 17.8711 29.7313C17.3722 30.3589 16.8814 30.9865 16.3744 31.6061C15.8273 32.282 15.3687 33.0061 14.9342 33.7142C14.5157 34.3901 14.1134 35.0338 13.6467 35.6051C13.1398 36.2247 12.6329 36.8362 12.126 37.4477C11.611 38.0753 11.088 38.6949 10.5811 39.3225C10.3075 39.6605 10.0178 39.9984 9.72817 40.3363C9.84886 39.7731 9.96151 39.1777 10.0581 38.542C10.227 37.4719 10.6294 36.3373 10.6776 35.0982C10.7179 33.9958 10.6133 32.813 10.5087 31.598C10.4202 30.4876 10.1466 29.345 9.90519 28.1622C9.65575 26.9794 9.26148 25.9092 8.90744 24.8632C8.51317 23.7126 8.13499 22.6344 7.65221 21.6527C7.1131 20.5423 6.574 19.5285 5.98662 18.6273C5.28658 17.5491 4.69115 16.5433 4.03135 15.7709C3.05775 14.6122 2.17265 13.9282 1.61745 13.4213C1.35192 14.2501 1.08639 15.3444 0.796722 16.7686C0.587517 17.8066 0.136922 18.9411 0.00818012 20.2285C-0.0964224 21.3309 0.0725509 22.5217 0.0805972 23.777C0.0805972 24.9035 -0.0240053 26.0943 0.112783 27.3174C0.241524 28.4438 0.499007 29.6025 0.764537 30.8014C1.01397 31.9199 1.28755 32.99 1.6255 33.9878C1.99563 35.0821 2.59106 36.0235 3.02556 36.973C3.50834 38.0351 3.78192 39.1374 4.30493 40.0225C4.91645 41.0605 5.76936 41.8249 6.3487 42.6215C6.59009 42.9514 6.80734 43.2411 7.01655 43.5227C6.64642 43.9974 6.28433 44.4802 5.93834 44.955C5.4797 45.5826 5.00496 46.2343 4.51413 46.8378L6.08317 48.1172C6.60618 47.4735 7.09701 46.8056 7.57175 46.1539L7.61198 46.17Z" fill="#FFFFFF"/>
<path d="M13.4055 17.1548C14.4354 17.4445 15.4653 17.1307 16.4792 16.495C17.324 15.972 18.1287 15.2398 18.7804 14.2421C19.3437 13.3811 19.8747 12.4075 20.1885 11.289C20.5023 10.1706 20.615 9.06021 20.5747 8.03028C20.5345 6.83137 20.2609 5.74511 19.8103 4.86001C19.2712 3.7979 18.4907 2.94498 17.4608 2.66336C16.4309 2.37369 15.3285 2.70359 14.3147 3.33121C13.4698 3.85422 12.7376 4.67495 12.0859 5.68074C11.5226 6.5417 10.8306 7.45898 10.5168 8.57743C10.203 9.69587 10.3237 10.8385 10.3559 11.8684C10.3961 13.0673 10.557 14.1616 11.0076 15.0467C11.5467 16.1088 12.3675 16.8571 13.3974 17.1468L13.4055 17.1548Z" fill="#FFFFFF"/>
</g>
<defs>
<clipPath id="clip0_stat_leaf">
<rect width="50" height="48.1332" fill="white"/>
</clipPath>
</defs>
</svg>
