<svg width="50" height="51" viewBox="0 0 50 51" fill="none" xmlns="http://www.w3.org/2000/svg">
<g clip-path="url(#clip_about_1950)">
<path d="M45.6547 22.4154C45.7087 22.3973 45.7626 22.3612 45.8166 22.3341C45.7896 22.3069 45.7537 22.2527 45.7357 22.2617C45.6817 22.2798 45.6277 22.316 45.5737 22.3431C45.6007 22.3702 45.6367 22.4244 45.6547 22.4154Z" fill="#FFFFFF"/>
<path d="M49.6853 31.1195C49.1995 33.0628 48.201 34.8253 47.2474 36.5517C47.2474 36.5426 47.2384 36.5245 47.2294 36.5155C47.2204 36.5065 47.1305 36.5517 47.0765 36.5607C47.1125 36.5969 47.1395 36.642 47.1754 36.6782C47.0945 36.8228 47.0135 36.9674 46.9235 37.112C45.853 39.0463 44.5306 40.7636 43.0193 42.3453C41.4989 43.918 39.9156 45.4365 38.0265 46.5753C36.1733 47.6961 34.2301 48.8711 32.1071 49.4857C30.038 50.0823 27.789 50.3896 25.549 50.4348C23.3089 50.4709 21.1139 49.9467 19.0358 49.4225C16.8858 48.8892 14.8707 48.0125 12.9725 46.955C11.9199 46.3765 10.9664 45.6805 10.0488 44.9394C10.4266 44.9394 10.6875 44.9303 10.9484 44.9303C10.7864 44.6592 10.6605 44.4242 10.4536 44.0807C10.2557 44.3338 10.1117 44.5236 9.89584 44.8128C9.17616 44.2253 8.49246 43.6107 7.82675 42.9509C6.25244 41.4234 4.86705 39.7694 3.73355 37.8803C2.61804 36.0093 1.62848 34.057 1.00775 31.9149C0.423006 29.8361 0.0451726 27.6668 0.00918844 25.4072C0.000192396 25.0095 0.000192396 24.6028 0.00918844 24.2051C0.0271805 24.196 0.0541686 24.1508 0.0721607 24.1328C0.0541686 24.1237 0.0271805 24.1057 0.00918844 24.0966C0.0181845 22.2889 0.153125 20.5083 0.557947 18.8272C1.09771 16.667 2.23121 14.7327 3.27475 12.8256C3.40969 12.5816 3.55363 12.3556 3.69757 12.1206C3.75154 12.0845 3.79652 12.0664 3.8505 12.0212C3.81451 12.0122 3.79652 12.0122 3.77853 11.9941C4.74111 10.3943 5.86561 8.92099 7.16104 7.56522C8.68137 5.99252 10.3906 4.66386 12.2708 3.52501C14.106 2.41328 15.9952 1.36481 18.0912 0.750195C18.0912 0.750195 18.1002 0.768272 18.1092 0.77731C18.1812 0.741156 18.2622 0.705002 18.2981 0.695964C20.3223 0.126539 22.4633 0.0451925 24.6583 0C25.0991 0 25.522 0 25.9538 0C21.8516 1.66308 16.1481 4.76328 12.5047 10.0056C10.6155 12.7081 5.61372 19.9118 8.04265 28.7695C8.35752 29.9264 11.4162 40.0767 21.4198 42.2821C22.6612 42.5532 23.9027 42.6888 25.1441 42.6888C29.975 42.6888 34.6529 40.6642 37.9365 37.0217C38.5302 36.3619 43.658 30.3874 42.0657 22.2708C41.7508 20.6891 40.6893 16.5314 37.7386 13.4583C37.7566 13.4402 37.7746 13.4222 37.7746 13.4041C37.7656 13.3499 37.7206 13.2956 37.7026 13.2414C37.6756 13.2685 37.6216 13.2956 37.6306 13.3227C37.6306 13.3227 37.6306 13.3257 37.6306 13.3318C36.3622 12.0393 34.7429 10.9547 32.7098 10.34C28.3917 9.04753 22.0675 10.3672 17.6594 16.2151C14.4298 20.5083 13.5392 24.9643 15.1585 28.7424C17.1826 33.4966 22.9131 36.4161 27.9059 35.2501C31.1265 34.4999 34.7699 32.0234 35.1837 28.3628C35.4266 26.2659 34.6979 23.5905 32.5299 22.3793C31.0275 21.5297 29.1744 21.5387 27.4831 22.2799C27.4471 22.2708 27.3931 22.2437 27.3212 22.2166C27.3032 22.2528 27.2762 22.316 27.2492 22.3883C26.2596 22.8583 25.333 23.5905 24.5774 24.5485L25.5759 25.3439C27.2582 23.2018 29.975 22.4064 31.9002 23.491C33.5464 24.413 34.0952 26.5912 33.9063 28.2182C33.5374 31.472 29.939 33.4695 27.6 34.0118C23.165 35.0422 18.1002 32.4572 16.301 28.2453C14.8707 24.901 15.7073 20.897 18.649 16.9924C21.4647 13.2504 26.9433 9.96042 32.323 11.5693C38.5662 13.4312 40.3924 20.418 40.8062 22.5149C42.2816 30.0168 37.5317 35.5574 36.9829 36.163C33.1596 40.4021 27.2942 42.273 21.6807 41.0348C21.2309 40.9353 20.799 40.8178 20.3762 40.6822C20.3762 40.6822 20.3492 40.6461 20.3402 40.6461C20.3402 40.6461 20.3223 40.6461 20.3133 40.6461C12.1269 38.0249 9.54499 29.4293 9.25712 28.417C6.99012 20.1378 11.74 13.3047 13.5302 10.7197C14.7897 8.91195 16.31 7.37541 17.9203 6.06483C17.8663 6.13714 17.8034 6.20944 17.7494 6.29079C18.0373 6.46252 18.2442 6.5981 18.4511 6.72464C18.523 6.49868 18.3791 6.41733 18.3521 6.29983C18.3161 6.14617 18.3251 5.98348 18.3251 5.73944C18.3431 5.7304 18.3611 5.71233 18.3791 5.69425C18.4421 5.69425 18.5051 5.69425 18.568 5.69425C18.64 5.68521 18.703 5.64002 18.7749 5.62194C18.73 5.58579 18.685 5.5406 18.64 5.50444C22.3823 2.71155 26.4576 1.08462 28.9405 0.271155C29.6691 0.388655 30.3888 0.524232 31.1085 0.705002C33.2586 1.23827 35.3996 1.78058 37.2888 2.83809C37.3428 2.8652 37.3787 2.89232 37.4237 2.91943C37.4687 3.15443 37.5047 3.42559 37.8285 3.51597C37.8285 3.3804 37.8285 3.2629 37.8285 3.15443C39.5018 4.21194 40.9142 5.63098 42.3356 7.01387C43.9099 8.54137 45.4842 10.0689 46.6267 11.9579C46.8156 12.2743 47.0045 12.5997 47.1844 12.925C47.1574 12.9341 47.1395 12.9431 47.1215 12.9612C47.1484 12.9883 47.1754 13.0154 47.2024 13.0516C47.2114 13.0516 47.2294 13.0425 47.2384 13.0335C48.102 14.5881 48.8487 16.2331 49.3435 17.9776C49.9372 20.0474 49.8473 22.2708 49.8832 24.5305C49.9192 26.7901 50.1981 29.0407 49.6763 31.1286L49.6853 31.1195ZM11.1643 28.8599C11.1643 28.8599 11.1103 28.7786 11.0923 28.7876C11.0293 28.7966 10.9754 28.8418 10.9304 28.8599C10.9574 28.887 10.9844 28.9322 11.0113 28.9322C11.0653 28.9232 11.1193 28.878 11.1733 28.8599H11.1643ZM11.767 24.2955C11.767 24.1328 11.767 23.9701 11.758 23.8074H11.6411C11.6411 23.9701 11.6411 24.1418 11.6411 24.2955H11.767ZM12.5317 20.427C12.5497 20.4812 12.5857 20.5355 12.6126 20.5897C12.6396 20.5535 12.6846 20.5355 12.6846 20.5083C12.6756 20.4541 12.6306 20.3999 12.6036 20.3456C12.5767 20.3728 12.5317 20.4089 12.5317 20.427ZM13.0534 23.6718C12.9095 23.5272 12.7836 23.4187 12.5497 23.1928C12.5497 23.726 12.6126 23.9249 13.0534 23.6718ZM39.2679 25.6422C39.3219 25.6784 39.3759 25.6964 39.4298 25.7326C39.4658 25.6964 39.4838 25.6693 39.5198 25.6422C39.4658 25.6151 39.4119 25.5789 39.3579 25.5699C39.3309 25.5699 39.3039 25.6241 39.2769 25.6422H39.2679ZM37.8735 33.2616C37.8106 33.1984 37.6666 33.2074 37.5587 33.1803C37.5947 33.2978 37.6126 33.4063 37.6576 33.5147C37.6936 33.578 37.7656 33.6142 37.8196 33.6593C37.8555 33.6322 37.8915 33.6051 37.8915 33.578C37.8915 33.4695 37.9275 33.3249 37.8645 33.2616H37.8735ZM37.4507 19.2791C37.4507 19.2791 37.5497 19.3424 37.6396 19.3966C37.6486 19.261 37.6846 19.1526 37.6756 19.0441C37.6756 19.0079 37.5767 18.9808 37.5227 18.9537C37.4957 19.0531 37.4597 19.1616 37.4507 19.2701V19.2791ZM17.6054 19.8214C17.5605 19.7039 17.4615 19.5954 17.3536 19.5322C17.3266 19.5141 17.1287 19.6497 17.1377 19.7129C17.1377 19.8305 17.2276 19.9389 17.3176 20.1468C17.4795 19.966 17.6054 19.8666 17.5964 19.8305L17.6054 19.8214ZM17.8483 19.1164C17.8303 18.9989 17.7764 18.8904 17.7314 18.782C17.6954 18.9266 17.6594 19.0712 17.5695 19.3876C17.7584 19.2068 17.8483 19.1616 17.8393 19.1164H17.8483ZM18.4241 18.6826C18.2532 18.5831 18.1632 18.5108 18.1362 18.5289C18.0283 18.5922 17.9473 18.6916 17.8483 18.7729C18.0103 18.7458 18.1722 18.7187 18.4241 18.6826ZM32.1341 25.4705C32.197 25.5428 32.215 25.5789 32.242 25.597C32.4129 25.7416 32.5299 25.9947 32.8178 25.841C32.8717 25.8049 32.8987 25.7055 32.8897 25.6332C32.8627 25.2355 32.5569 25.4434 32.359 25.3982C32.323 25.3982 32.287 25.4162 32.1341 25.4705ZM31.6663 25.2174C31.6933 25.5157 31.7202 25.8139 31.7382 26.1212C31.7922 26.1212 31.8372 26.1212 31.8912 26.1122C31.8912 25.8139 31.8822 25.5157 31.8732 25.2174C31.8012 25.2174 31.7292 25.2174 31.6663 25.2174ZM30.8116 24.9372C30.8476 25.0457 30.8566 25.1632 30.9106 25.2716C30.9466 25.3259 31.0185 25.371 31.0725 25.4162C31.0995 25.3891 31.1445 25.362 31.1445 25.3349C31.1445 25.2264 31.1805 25.0818 31.1175 25.0185C31.0545 24.9462 30.9106 24.9643 30.8026 24.9372H30.8116ZM23.6238 18.3391C23.8097 18.3873 23.8967 18.2969 23.8847 18.0679C23.8127 18.1403 23.6868 18.2758 23.6238 18.3391ZM19.2967 28.6882C19.1618 28.417 19.0268 28.1549 18.8289 27.7391C18.7929 28.4622 18.9489 28.7786 19.2967 28.6882ZM20.1063 19.1074C20.1063 19.1074 19.9804 19.0531 19.8994 19.017C19.8635 19.0893 19.8095 19.1616 19.8275 19.2249C19.8545 19.2972 19.9264 19.3695 19.9894 19.4328C20.0164 19.3604 20.0434 19.2972 20.1153 19.1074H20.1063ZM20.7001 24.1328H20.817C20.817 23.9701 20.817 23.7983 20.817 23.6447H20.6911C20.6911 23.8074 20.6911 23.9701 20.7001 24.1328ZM21.4198 27.7753C21.2668 27.5041 21.1319 27.2691 20.997 27.0432C20.916 27.0522 20.826 27.0793 20.7451 27.0884C20.7451 27.3414 20.7451 27.5764 20.7541 27.7934C21.0059 27.7934 21.1949 27.7934 21.4108 27.7843L21.4198 27.7753ZM22.1484 15.0943L22.0585 15.0039C22.0315 15.0581 22.0045 15.1124 21.9865 15.1756C21.9865 15.2027 22.0405 15.2299 22.0585 15.2479C22.0945 15.1937 22.1125 15.1395 22.1395 15.0852L22.1484 15.0943ZM22.9221 14.8683C22.8681 14.8322 22.8142 14.8141 22.7602 14.787C22.7242 14.8231 22.7062 14.8412 22.6702 14.8683C22.7242 14.9045 22.7782 14.9316 22.8321 14.9406C22.8591 14.9406 22.8861 14.8864 22.9131 14.8683H22.9221ZM23.9027 29.2938C23.7677 29.2847 23.6598 29.2486 23.5518 29.2576C23.5158 29.2576 23.4889 29.357 23.4619 29.4113C23.5698 29.4384 23.6688 29.4745 23.7767 29.4836C23.8127 29.4836 23.8397 29.3841 23.8937 29.2938H23.9027ZM24.3345 28.5797C24.3345 28.5797 24.2805 28.5255 24.2625 28.5074C24.2355 28.5616 24.2085 28.6159 24.1816 28.6701C24.2175 28.7062 24.2355 28.7243 24.2715 28.7514C24.2985 28.6972 24.3255 28.643 24.3435 28.5887L24.3345 28.5797ZM24.4514 27.5584C24.1186 27.5584 23.9027 27.5584 23.6058 27.5674C23.7138 27.6939 23.7857 27.7662 23.8307 27.8476C23.8937 27.9741 23.9297 28.1187 24.0106 28.3537C24.1726 28.0645 24.2895 27.8566 24.4514 27.5584ZM24.5954 13.8922C24.4694 13.6662 24.3525 13.4674 24.1546 13.1149C24.1546 13.6029 24.1636 13.9012 24.1726 14.2808C24.3975 14.0729 24.5054 13.9645 24.5954 13.8922ZM26.0707 19.4147C25.8998 19.261 25.8008 19.1254 25.7559 19.1345C25.6389 19.1887 25.54 19.2791 25.468 19.3876C25.45 19.4147 25.5849 19.6135 25.6479 19.6045C25.7649 19.6045 25.8728 19.5141 26.0707 19.4237V19.4147ZM26.6195 19.1887C26.5835 19.1345 26.4845 19.1074 26.4216 19.1164C26.0257 19.1526 26.2416 19.4689 26.1967 19.6678C26.1877 19.6949 26.2147 19.731 26.2686 19.8937C26.3406 19.8305 26.3676 19.8033 26.3856 19.7762C26.5295 19.6135 26.7814 19.487 26.6105 19.1978L26.6195 19.1887ZM27.2312 12.0393C27.2312 12.0393 27.1862 11.985 27.1592 11.967C27.1323 12.0212 27.1053 12.0754 27.0783 12.1297C27.1143 12.1658 27.1323 12.1839 27.1682 12.211C27.1952 12.1568 27.2312 12.1025 27.2402 12.0483L27.2312 12.0393ZM29.0934 18.2035C29.0394 18.1764 28.9944 18.1403 28.9315 18.1312C28.9135 18.1312 28.8775 18.1764 28.8595 18.2035C28.9135 18.2306 28.9674 18.2578 29.0214 18.2849C29.0574 18.2487 29.0754 18.2216 29.1024 18.1945L29.0934 18.2035ZM30.3348 11.4518C30.1549 11.5512 29.957 11.6597 29.6332 11.8314C30.1729 11.8675 30.4068 11.741 30.3348 11.4518ZM31.2165 19.5141H31.3244C31.2974 19.4508 31.2884 19.3785 31.2524 19.3333C31.2434 19.3153 31.1535 19.3604 31.1085 19.3785C31.1445 19.4237 31.1805 19.4779 31.2255 19.5231L31.2165 19.5141ZM31.5583 19.6587C31.5223 19.6045 31.4773 19.5593 31.4414 19.5141C31.4054 19.5503 31.3694 19.5864 31.3334 19.6226C31.3874 19.6587 31.4324 19.6949 31.4863 19.731C31.4863 19.731 31.5313 19.6768 31.5583 19.6587ZM31.5583 11.6687C31.3694 11.7862 31.1625 11.9037 30.9106 12.0483C31.4084 12.0845 31.6243 11.9579 31.5583 11.6687ZM32.0801 16.5404C32.0261 16.3958 31.9721 16.2151 31.8732 15.9439C31.6933 16.4591 31.7562 16.6308 32.0801 16.5404ZM35.8674 25.0457C36.1733 25.4343 36.3082 25.6422 36.4881 25.8139C36.5241 25.8501 36.731 25.7868 36.776 25.7145C36.83 25.6512 36.812 25.4434 36.767 25.4162C36.5601 25.2987 36.3442 25.2355 35.8674 25.0457ZM35.6875 14.4345C35.6875 14.4345 35.7415 14.4887 35.7595 14.5158C35.7864 14.4616 35.8134 14.4074 35.8404 14.3531C35.8044 14.317 35.7864 14.2899 35.7505 14.2627C35.7235 14.317 35.6965 14.3712 35.6785 14.4254L35.6875 14.4345ZM33.4025 12.4731C33.4025 12.4731 33.4655 12.5454 33.4835 12.5454C33.5374 12.5273 33.5914 12.4912 33.6454 12.4641C33.6094 12.437 33.5914 12.4098 33.5554 12.3827C33.5015 12.4098 33.4565 12.437 33.3935 12.4731H33.4025ZM33.1416 14.8141C33.1416 14.6514 33.1416 14.4797 33.1326 14.326H33.0157C33.0157 14.4887 33.0157 14.6514 33.0157 14.8141H33.1416ZM34.617 22.4968C34.491 22.316 34.3651 22.1262 34.2751 21.9816C33.9333 22.0991 33.6364 22.1895 33.2945 22.298C33.6904 22.4335 34.0412 22.551 34.3831 22.6505C34.428 22.6595 34.5 22.5781 34.617 22.4968ZM34.6619 14.6333C34.644 14.5158 34.59 14.4074 34.545 14.2989C34.509 14.4435 34.473 14.5881 34.3831 14.8954C34.563 14.7327 34.6529 14.6785 34.6529 14.6424L34.6619 14.6333ZM35.1477 14.0368C35.1207 13.9735 35.0938 13.9012 35.0668 13.8379C35.0128 13.9102 34.9588 13.9735 34.9048 14.0458C34.9858 14.0458 35.0668 14.0458 35.1477 14.0458V14.0368ZM35.3007 14.2537C35.3007 14.2537 35.3546 14.2085 35.3726 14.1814C35.3366 14.1362 35.3007 14.082 35.2557 14.0368C35.2197 14.0729 35.1837 14.1091 35.1567 14.1543C35.2017 14.1904 35.2557 14.2266 35.3007 14.2537ZM17.4525 37.3832C17.4705 37.5007 17.5245 37.6092 17.5605 37.7176C17.6054 37.573 17.6414 37.4284 17.7224 37.1211C17.5425 37.2928 17.4525 37.347 17.4525 37.3832ZM17.2636 37.799C17.2636 37.799 17.2996 37.8984 17.3086 37.9436C17.3626 37.9074 17.4075 37.8713 17.4525 37.8261C17.4525 37.7899 17.4525 37.7538 17.4525 37.7176C17.3895 37.7357 17.3176 37.7538 17.2726 37.7899L17.2636 37.799ZM15.1315 14.9677C15.1405 15.022 15.1855 15.0762 15.2125 15.1304C15.2395 15.0943 15.2845 15.0672 15.2845 15.0491C15.2665 14.9949 15.2305 14.9406 15.2035 14.8864C15.1765 14.9135 15.1315 14.9406 15.1315 14.9677ZM15.3384 15.501C15.2845 15.4739 15.2305 15.4377 15.1765 15.4287C15.1585 15.4287 15.1225 15.4829 15.0956 15.5101C15.1495 15.5372 15.2035 15.5643 15.2575 15.5914C15.2935 15.5552 15.3115 15.5281 15.3384 15.501ZM15.8242 15.0672C15.8242 14.796 15.8242 14.5249 15.7882 14.2537C15.7882 14.1995 15.5993 14.1543 15.5004 14.1452C15.4464 14.1452 15.3834 14.2175 15.3834 14.2175C15.4824 14.5158 15.5723 14.796 15.6623 15.0762C15.7163 15.0762 15.7703 15.0672 15.8242 15.0581V15.0672ZM16.9847 13.7114C16.9847 13.7114 16.9307 13.6572 16.8948 13.63C16.8678 13.6843 16.8408 13.7385 16.8228 13.7927C16.8228 13.8199 16.8768 13.847 16.8948 13.865C16.9217 13.8108 16.9487 13.7566 16.9757 13.7024L16.9847 13.7114ZM17.7134 13.7747C17.7044 13.7204 17.6594 13.6662 17.6414 13.612C17.6144 13.6391 17.5695 13.6662 17.5695 13.6843C17.5785 13.7385 17.6234 13.8018 17.6504 13.847C17.6774 13.8199 17.7224 13.7837 17.7224 13.7656L17.7134 13.7747ZM19.5306 5.30559C19.5306 5.30559 19.4676 5.25136 19.4406 5.21521C19.4137 5.26944 19.3777 5.32367 19.3687 5.3779C19.3687 5.40502 19.4226 5.43213 19.4496 5.45925C19.4766 5.40502 19.5036 5.35079 19.5306 5.29656V5.30559ZM25.1711 5.45021C25.1711 5.45021 25.1081 5.38694 25.0812 5.35983C25.0452 5.41406 25.0182 5.46829 25.0092 5.52252C25.0092 5.54963 25.0632 5.57675 25.0812 5.60386C25.1171 5.54963 25.1351 5.4954 25.1711 5.44117V5.45021ZM25.1981 4.98925C25.1981 4.98925 25.1441 4.93502 25.1081 4.9079C25.0542 4.93502 25.0092 4.96213 24.9462 4.99829C24.9822 5.0254 25.0092 5.07059 25.0272 5.07059C25.0812 5.05252 25.1351 5.01636 25.1891 4.98925H25.1981ZM27.2762 2.02462C27.2042 2.09693 27.0873 2.23251 27.0153 2.29578C27.2072 2.34398 27.2942 2.2536 27.2762 2.02462ZM33.7983 6.81502C33.7983 6.81502 33.8703 6.88733 33.9063 6.92348C33.9423 6.87829 33.9782 6.82406 34.0142 6.77887C34.0142 6.76079 33.9603 6.72464 33.9423 6.70656C33.8883 6.74271 33.8433 6.77887 33.7983 6.82406V6.81502ZM34.0952 6.93252C33.4745 6.91445 33.1866 6.93252 33.3935 7.40252C33.5824 7.27599 33.7533 7.15848 34.0952 6.93252ZM35.5166 9.19215C35.5166 9.19215 35.4626 9.13791 35.4266 9.1108C35.3996 9.16503 35.3726 9.21926 35.3546 9.27349C35.3546 9.30061 35.4086 9.32772 35.4266 9.3458C35.4626 9.29157 35.4806 9.24638 35.5076 9.18311L35.5166 9.19215ZM36.2452 9.26445C36.2273 9.20118 36.1913 9.14695 36.1643 9.10176C36.1373 9.12888 36.0923 9.15599 36.0923 9.18311C36.1013 9.23734 36.1463 9.29157 36.1733 9.3458C36.2003 9.31868 36.2452 9.29157 36.2452 9.27349V9.26445ZM36.1913 2.76578C36.3262 3.00982 36.4432 3.2177 36.5511 3.43463C36.5511 3.18155 36.9289 2.57597 36.1913 2.76578ZM37.1538 3.81424C37.1089 3.76001 37.0729 3.71482 37.0369 3.66963C37.0009 3.70578 36.9649 3.74194 36.9289 3.77809C36.9829 3.81424 37.0279 3.8504 37.0819 3.88655C37.0909 3.88655 37.1269 3.83232 37.1538 3.81424ZM14.151 6.86925C14.4928 6.01964 15.2125 5.6129 16.0221 5.12482C15.1855 4.88982 14.7537 5.33271 14.3309 5.7756C14.052 6.06483 13.7102 6.32694 14.151 6.86925ZM0.782848 23.7983C0.656903 23.7803 0.539955 23.7532 0.432002 23.7622C0.396018 23.7622 0.378026 23.8616 0.342042 23.9249C0.449995 23.952 0.557947 23.9882 0.6659 23.9972C0.701884 23.9972 0.728872 23.8978 0.782848 23.8074V23.7983ZM3.6256 33.6232C3.55363 33.587 3.49066 33.569 3.30174 33.4876C3.28375 33.5238 3.24776 33.6142 3.21178 33.7045C3.28375 33.7317 3.35572 33.7949 3.41869 33.7768C3.49066 33.7588 3.56263 33.6774 3.6256 33.6232ZM3.78753 12.7533C3.73355 12.7172 3.67957 12.6991 3.6256 12.672C3.58961 12.7081 3.57162 12.7262 3.54463 12.7533C3.59861 12.7895 3.65259 12.8166 3.70656 12.8256C3.73355 12.8256 3.76054 12.7714 3.77853 12.7533H3.78753ZM8.69037 15.0852C8.69037 15.0852 8.6274 15.031 8.60041 14.9949C8.57342 15.0491 8.53744 15.1033 8.52844 15.1666C8.52844 15.1847 8.58242 15.2208 8.6094 15.2389C8.63639 15.1847 8.66338 15.1304 8.69037 15.0762V15.0852ZM11.9649 4.73617C11.9649 4.73617 12.0279 4.80848 12.0459 4.80848C12.0999 4.7904 12.1538 4.75425 12.2078 4.72713C12.1718 4.70002 12.1448 4.65482 12.1269 4.65482C12.0729 4.6729 12.0189 4.70905 11.9649 4.73617ZM11.4881 5.4954C11.4881 5.4954 11.5601 5.56771 11.6051 5.60386C11.6411 5.54963 11.6771 5.50444 11.704 5.45021C11.704 5.44117 11.6591 5.40502 11.6321 5.3779C11.5871 5.41406 11.5421 5.45925 11.4881 5.4954ZM11.3172 5.67617C11.3172 5.67617 11.3442 5.7756 11.3532 5.82079C11.4072 5.78463 11.4522 5.74848 11.4971 5.70329V5.59483C11.4342 5.62194 11.3532 5.63098 11.3172 5.66713V5.67617ZM10.0578 6.26367C10.2107 6.28175 10.3636 6.29983 10.6695 6.33598C10.5346 6.21848 10.4626 6.15521 10.4086 6.11002C10.9034 6.11002 11.1283 6.05579 10.9394 5.63098C10.7595 5.74848 10.6065 5.85694 10.3276 6.04675C9.88684 5.68521 10.0938 6.11906 10.0578 6.26367ZM8.47446 14.6333C8.47446 14.6333 8.52844 14.7056 8.54643 14.7056C8.6094 14.6966 8.66338 14.6514 8.70836 14.6243C8.68137 14.5972 8.65439 14.57 8.6184 14.5429C8.56442 14.57 8.51944 14.5972 8.46547 14.6333H8.47446ZM7.98868 12.3918C7.99767 12.446 8.04265 12.5002 8.06065 12.5545C8.08764 12.5183 8.11462 12.5002 8.14161 12.4641C8.11462 12.4098 8.08763 12.3556 8.05165 12.3014C8.02466 12.3285 7.97968 12.3647 7.97968 12.3827L7.98868 12.3918ZM7.79076 15.0943C7.79976 15.1485 7.84474 15.2118 7.86273 15.257C7.88972 15.2299 7.9347 15.2027 7.9347 15.1756C7.92571 15.1214 7.88073 15.0672 7.85374 15.0129C7.82675 15.0491 7.78177 15.0762 7.78177 15.0943H7.79076ZM7.51189 15.8897L7.61984 15.9981C7.61984 15.9981 7.7008 15.8987 7.72779 15.8535C7.72779 15.8354 7.68281 15.7993 7.65582 15.7812C7.61084 15.8174 7.55687 15.8535 7.51189 15.8987V15.8897ZM7.0261 13.4764C7.0261 13.4764 7.08008 13.5306 7.10707 13.5487C7.13405 13.4945 7.16104 13.4402 7.18803 13.386C7.15205 13.3499 7.12506 13.3318 7.09807 13.3047C7.07108 13.3589 7.0351 13.4131 7.0261 13.4674V13.4764ZM4.40825 34.0118C4.34528 34.039 4.27331 34.048 4.22833 34.0841C4.21034 34.0932 4.25532 34.1836 4.27331 34.2378C4.31829 34.2017 4.37227 34.1655 4.41725 34.1203V34.0028L4.40825 34.0118ZM4.62416 33.8672C4.62416 33.8672 4.57018 33.813 4.55219 33.7949C4.49821 33.8311 4.45323 33.8672 4.40825 33.9124C4.44424 33.9486 4.48022 33.9847 4.5252 34.0209C4.56119 33.9666 4.59717 33.9215 4.63315 33.8763L4.62416 33.8672ZM5.77565 30.9568C5.70368 30.9026 5.64071 30.8303 5.56874 30.8032C5.51477 30.7941 5.4338 30.8574 5.36183 30.8845C5.39782 30.9659 5.4338 31.0563 5.46079 31.0924C5.64071 31.0111 5.71268 30.9839 5.77565 30.9478V30.9568ZM5.96457 18.2487C6.14449 18.0679 6.27943 17.9143 6.42337 17.7697C6.53132 17.8329 6.63028 17.8962 6.73823 17.9595C6.75622 17.7426 6.63927 17.5076 6.5673 17.5166C6.27043 17.5527 5.98256 17.6702 5.70368 17.7697C5.6677 17.7787 5.6587 17.8781 5.64071 17.9324C5.73967 18.0318 5.82063 18.1131 5.96457 18.2487ZM6.7922 30.7761C6.75622 30.3784 6.45035 30.5863 6.26144 30.5411C6.22545 30.5411 6.18947 30.5591 6.03654 30.6134C6.09951 30.6857 6.1175 30.7218 6.15349 30.7399C6.31541 30.8845 6.44136 31.1376 6.72923 30.9749C6.78321 30.9478 6.8102 30.8393 6.8012 30.7761H6.7922ZM6.8102 16.4049C6.96313 16.4229 7.11606 16.441 7.41293 16.4772C7.21502 16.2964 7.14305 16.2422 7.08008 16.1879C6.63927 15.8264 6.83718 16.2602 6.8102 16.4049ZM27.9959 50.0552C27.789 49.8292 27.69 49.7027 27.618 49.6213C27.3931 49.7388 27.1952 49.8473 26.8444 50.0371C27.1862 50.1365 27.4111 50.245 27.645 50.2631C27.771 50.2631 27.9059 50.1184 28.0049 50.0552H27.9959ZM33.1416 46.8555C32.7818 46.8555 32.5479 46.8555 32.4129 46.8646C32.4759 47.0002 32.5569 47.1628 32.6198 47.2713C32.8178 47.1086 32.9347 47.0182 33.1506 46.8465L33.1416 46.8555ZM39.2589 39.1819L39.169 39.0915C39.115 39.1276 39.07 39.1547 39.016 39.1819C39.043 39.218 39.07 39.2632 39.088 39.2542C39.142 39.2451 39.2049 39.1999 39.2499 39.1819H39.2589ZM41.1661 38.6124C41.1661 38.6124 41.1121 38.5582 41.0851 38.5311C41.0581 38.5853 41.0311 38.6396 41.0042 38.6938C41.0401 38.7299 41.0671 38.757 41.0941 38.7842C41.1211 38.7299 41.1571 38.6757 41.1661 38.6215V38.6124ZM41.463 11.5873C41.463 11.5873 41.409 11.506 41.391 11.515C41.337 11.5241 41.274 11.5693 41.2291 11.5873C41.256 11.6235 41.292 11.6687 41.31 11.6597C41.364 11.6506 41.418 11.6054 41.4719 11.5873H41.463ZM42.6954 17.1279C42.2636 17.0285 41.9487 17.1641 41.7598 17.7245C42.0957 17.7546 42.4075 17.5558 42.6954 17.1279ZM43.1272 24.3858C43.0552 24.3316 42.9923 24.2593 42.9113 24.2412C42.8573 24.2232 42.7764 24.2864 42.7134 24.3135C42.7494 24.3949 42.7854 24.4853 42.8124 24.5214C42.9923 24.4401 43.0642 24.413 43.1272 24.3768V24.3858ZM42.7854 11.4156C42.8393 11.3795 42.8843 11.3433 42.9293 11.2981V11.1897C42.8663 11.2168 42.7854 11.2258 42.7494 11.262C42.7314 11.271 42.7764 11.3614 42.7854 11.4066V11.4156ZM43.1452 11.045C43.1452 11.045 43.1002 10.9908 43.0732 10.9727C43.0283 11.0089 42.9833 11.045 42.9293 11.0902C42.9653 11.1264 43.0013 11.1625 43.0463 11.1987C43.0822 11.1445 43.1182 11.0993 43.1452 11.045ZM43.4601 15.6908C43.4601 15.6908 43.4061 15.6366 43.3881 15.6095C43.3521 15.6637 43.3341 15.7179 43.2981 15.7722C43.3341 15.8083 43.3611 15.8354 43.3881 15.8626C43.4151 15.8083 43.4511 15.7541 43.4601 15.6999V15.6908ZM45.925 13.9735C45.925 13.9735 45.979 14.0277 46.0149 14.0549C46.0689 14.0187 46.1139 14.0006 46.1679 13.9645C46.1409 13.9374 46.1139 13.8922 46.0869 13.8922C46.0329 13.9012 45.979 13.9464 45.925 13.9735ZM46.0959 14.3802C46.0419 14.3893 45.988 14.4345 45.934 14.4616C45.961 14.4887 45.997 14.5339 46.0149 14.5339C46.0689 14.5158 46.1229 14.4797 46.1769 14.4525C46.1409 14.4254 46.1229 14.3802 46.0959 14.3802ZM44.5576 13.5939C44.7555 13.4764 44.9534 13.3589 45.2053 13.2052C44.7135 13.1691 44.4976 13.2986 44.5576 13.5939ZM45.0794 22.081C45.0974 22.3432 45.1243 22.6143 45.1513 22.8764C45.1513 22.9035 45.2053 22.9216 45.2323 22.9397C46.0119 22.542 46.2908 22.1383 46.0689 21.7285C45.7451 21.846 45.4302 21.9545 45.0794 22.081ZM44.5936 22.1714C44.4766 22.1082 44.3147 21.9726 44.2337 22.0087C44.0808 22.081 43.9818 22.2437 43.73 22.4968C44.0538 22.4968 44.2157 22.533 44.3507 22.4787C44.4586 22.4335 44.5126 22.2799 44.5936 22.1805V22.1714ZM45.3402 38.7299C45.3402 38.7299 45.2503 38.6757 45.2053 38.6395C45.0254 38.7842 44.8365 38.9288 44.6565 39.0644C44.8005 39.2271 44.9084 39.3355 45.0344 39.4711C45.1513 39.1999 45.2413 38.974 45.3402 38.739V38.7299ZM45.4392 28.4893C45.4392 28.4893 45.3852 28.4351 45.3492 28.3989C45.2953 28.4351 45.2503 28.4532 45.1963 28.4893C45.2233 28.5164 45.2503 28.5616 45.2773 28.5616C45.3312 28.5526 45.3852 28.5074 45.4392 28.4893ZM45.7001 31.7251C45.6821 31.6709 45.6461 31.6166 45.6191 31.5624C45.5921 31.5895 45.5472 31.6166 45.5472 31.6438C45.5562 31.698 45.6011 31.7522 45.6281 31.8064C45.6551 31.7793 45.7001 31.7522 45.7001 31.7251ZM46.2848 23.1024C46.2129 23.0482 46.1499 22.9668 46.0779 22.9487C46.0239 22.9397 45.943 23.003 45.871 23.021C45.907 23.1114 45.952 23.2018 45.97 23.238C46.1499 23.1566 46.2219 23.1205 46.2848 23.0933V23.1024ZM46.8156 37.0759C46.7616 37.0488 46.7076 37.0217 46.6537 36.9945C46.6177 37.0307 46.5907 37.0578 46.5637 37.0849C46.6177 37.112 46.6717 37.1482 46.7256 37.1572C46.7526 37.1572 46.7796 37.103 46.8066 37.0759H46.8156ZM46.9865 20.7343C46.6447 20.7343 46.3748 20.7433 45.817 20.7524C46.2039 20.9331 46.3658 21.0326 46.5367 21.0868C46.6717 21.132 46.8246 21.123 46.9775 21.132C46.9775 20.9964 46.9775 20.8608 46.9865 20.7343ZM47.2474 19.9118C47.2474 19.9118 47.2474 19.8395 47.2474 19.7943C47.0855 19.7943 46.9235 19.7943 46.7616 19.8033C46.7616 19.8395 46.7616 19.8756 46.7616 19.9208C46.9235 19.9208 47.0855 19.9208 47.2474 19.9118ZM47.9761 20.0112C47.8411 19.9931 47.7332 19.966 47.6252 19.9751C47.5893 19.9751 47.5713 20.0745 47.5353 20.1378C47.6432 20.1649 47.7512 20.201 47.8591 20.2101C47.8861 20.2101 47.9221 20.1106 47.9761 20.0203V20.0112ZM49.2265 22.7951C49.1906 22.7408 49.1636 22.6957 49.1276 22.6414C49.1006 22.6685 49.0556 22.6957 49.0556 22.7228C49.0646 22.777 49.1096 22.8312 49.1276 22.8855C49.1546 22.8583 49.1816 22.8312 49.2175 22.7951H49.2265ZM49.7123 22.7951C49.6763 22.7408 49.6493 22.6957 49.6134 22.6324C49.5864 22.6685 49.5414 22.6957 49.5414 22.7137C49.5504 22.768 49.5954 22.8222 49.6134 22.8764C49.6404 22.8403 49.6673 22.8222 49.7033 22.786L49.7123 22.7951Z" fill="#FFFFFF"/>
</g>
<defs>
<clipPath id="clip_about_1950">
<rect width="50" height="50.4348" fill="white"/>
</clipPath>
</defs>
</svg>