<svg width="50" height="50" viewBox="0 0 50 50" fill="none" xmlns="http://www.w3.org/2000/svg">
<g clip-path="url(#clip_about_gen4)">
<path d="M47.9299 21.2672C47.9299 21.2672 47.7487 21.316 47.6511 21.3439C47.7208 21.4345 47.7905 21.5251 47.5396 21.8527C47.9299 21.6157 47.9996 21.6157 48.0693 21.6157C48.0275 21.4972 47.9996 21.3648 47.9299 21.2672Z" fill="#FFFFFF"/>
<path d="M21.4905 35.8288C21.2396 36.979 20.9886 38.1291 20.7237 39.2723C16.0186 37.0278 12.7633 34.1698 10.944 31.8695C10.484 31.4861 9.97511 31.047 9.45231 30.5521C9.88449 30.0154 10.1424 29.7086 10.484 29.2904C9.52202 29.0325 8.92952 28.1472 7.93273 28.7188C7.93273 28.8513 7.95364 28.9698 7.98152 29.0743C7.17293 28.203 6.34343 27.2132 5.54879 26.0909C5.57667 26.063 5.61152 26.0282 5.6394 26.0003C5.56273 25.9585 5.48605 25.9166 5.4024 25.8888C3.65279 23.3654 2.09138 20.2217 1.33158 16.4227C-0.0207097 12.9653 -0.822327 9.62639 1.33158 6.44084C3.01846 1.72872 7.68179 0.3834 8.63676 0.606459C12.7773 -0.996775 16.5344 0.899224 19.2181 2.55125C22.2433 3.84081 24.3763 5.85531 25.6868 7.52825C25.2755 11.843 24.7179 17.545 24.0139 22.271C23.9302 22.2153 23.8466 22.1595 23.756 22.1037C23.5538 22.5847 23.6305 22.8078 23.9163 22.9054C23.8814 23.1145 23.8535 23.3166 23.8187 23.5188C23.2332 27.1086 22.564 30.7054 21.8112 34.2953C21.8112 34.2953 21.8042 34.2953 21.7972 34.3023C21.7972 34.3023 21.7972 34.3023 21.8042 34.3092C21.7484 34.5811 21.6927 34.846 21.6369 35.1178C21.365 35.2991 21.0653 35.4873 20.7028 35.7243C21.0444 35.8497 21.2953 35.8706 21.4835 35.8149L21.4905 35.8288ZM24.2718 8.25319C24.0487 8.28107 23.8396 8.37866 23.6235 8.45534C23.9023 8.53201 24.1812 8.61566 24.7667 8.78295C24.4321 8.42048 24.3415 8.24622 24.2718 8.26016V8.25319ZM22.7452 7.50734C22.8149 7.59796 22.8846 7.68857 22.9613 7.77919H23.1704C23.1286 7.66069 23.1007 7.52825 23.031 7.43066C23.0101 7.40278 22.8498 7.47946 22.7522 7.50734H22.7452ZM3.7922 8.46928C3.74341 8.42048 3.68764 8.36472 3.62491 8.30198C3.52732 8.35775 3.42973 8.41351 3.32517 8.46928C3.37396 8.51807 3.4367 8.62263 3.47852 8.61566C3.59005 8.59475 3.68764 8.52504 3.78523 8.46928H3.7922ZM9.32684 4.43331H10.714V4.20328H9.32684V4.43331ZM11.7735 23.5327C10.6489 24.0346 10.3306 24.6921 10.8185 25.5054C11.1462 24.8292 11.425 24.2576 11.7735 23.5327ZM12.4706 4.85852C12.4427 4.74699 12.38 4.6494 12.3242 4.55181C12.2754 4.6006 12.2196 4.65637 12.1639 4.7191C12.2196 4.81669 12.2754 4.91428 12.3242 5.01884C12.373 4.97004 12.4775 4.90731 12.4706 4.86549V4.85852ZM17.2315 1.94481C17.2872 2.0424 17.343 2.13999 17.3988 2.24455C17.4476 2.19575 17.5521 2.13302 17.5452 2.09119C17.5243 1.97966 17.4545 1.88208 17.3988 1.78449C17.35 1.83328 17.2942 1.88905 17.2315 1.95178V1.94481ZM17.2315 17.6286C17.2872 17.7262 17.343 17.8238 17.3988 17.9284C17.4476 17.8796 17.5521 17.8168 17.5452 17.775C17.5243 17.6635 17.4545 17.5659 17.3988 17.4683C17.35 17.5171 17.2942 17.5729 17.2315 17.6356V17.6286ZM16.2486 26.9204C16.3462 26.9762 16.4508 27.0319 16.5484 27.0877C16.6111 27.025 16.6599 26.9762 16.7087 26.9204C16.6041 26.8716 16.5065 26.8019 16.402 26.774C16.3671 26.7671 16.3044 26.8646 16.2486 26.9204ZM17.6288 27.6105C17.3291 27.6523 17.0293 27.6941 16.5344 27.7708C16.862 27.9451 17.0224 28.0915 17.0851 28.0566C17.2873 27.9451 17.4476 27.7639 17.6288 27.6105ZM18.0401 27.3317C18.0401 27.3317 17.9495 27.2411 17.9007 27.1853C17.81 27.255 17.7194 27.3317 17.6288 27.4014C17.6985 27.4711 17.7682 27.5408 17.8379 27.6035C17.9076 27.5129 17.9913 27.4293 18.0401 27.3247V27.3317Z" fill="#FFFFFF"/>
<path d="M21.5251 39.6487C21.6505 39.6487 21.79 39.6487 21.9294 39.6487C21.9154 39.7253 21.9015 39.795 21.8806 39.8648C21.8736 39.8996 21.8666 39.9345 21.8527 39.9693C21.5808 41.1404 21.302 42.3114 21.0093 43.4825C20.8071 44.2841 20.605 45.0718 20.4028 45.8664C20.3331 46.1243 20.2704 46.3823 20.2007 46.6332C20.117 46.9469 20.0403 47.2605 19.9497 47.5672C19.7685 48.2434 19.5873 48.9195 19.3991 49.5887L18.1792 49.2472C18.7647 47.142 19.3224 45.016 19.8521 42.883C20.0055 42.2766 20.1519 41.6771 20.2913 41.0707C20.4377 40.4642 20.5771 39.8578 20.7235 39.2513C20.9883 39.3838 21.2602 39.5093 21.532 39.6278L21.5251 39.6487ZM20.3122 42.6809C20.2843 42.5693 20.2216 42.4718 20.1658 42.3742C20.117 42.423 20.0613 42.4787 19.9985 42.5415C20.0543 42.639 20.1101 42.7366 20.1658 42.8412C20.2146 42.7924 20.3192 42.7297 20.3122 42.6878V42.6809ZM20.8559 41.6771C20.7513 41.6283 20.6538 41.5586 20.5492 41.5307C20.5143 41.5238 20.4516 41.6213 20.3958 41.6771C20.4934 41.7329 20.598 41.7886 20.6956 41.8444C20.7583 41.7817 20.8071 41.7329 20.8629 41.6771H20.8559Z" fill="#FFFFFF"/>
<path d="M48.6131 21.6715C47.6163 24.2298 45.7621 26.2303 43.657 28.2239C42.8693 29.7295 39.1191 33.8073 32.5947 36.491C28.5308 38.8052 24.6691 39.6487 21.9297 39.6557C23.1565 34.3789 24.2091 29.0534 25.0665 23.7348C25.8611 18.8485 26.4675 12.6098 26.9206 7.91162C28.5448 6.2317 33.4451 2.21665 39.5304 3.52712C41.0151 3.38771 44.9744 4.09174 47.3166 7.90464C50.8646 11.6269 50.1257 16.353 49.3798 18.005C49.3311 19.1064 49.1428 20.1101 48.8431 21.0442C48.1809 20.619 47.5396 20.5353 47.219 20.863C47.219 21.2742 47.219 21.6297 47.5396 21.8598C47.8254 21.8598 48.2018 21.79 48.6131 21.6785V21.6715ZM25.9447 19.2318C26.0563 19.434 26.2375 19.5943 26.3909 19.7755C26.349 19.4758 26.3072 19.1761 26.2375 18.6812C26.0632 19.0088 25.9169 19.1691 25.9517 19.2318H25.9447ZM26.3281 38.5194C26.2724 38.4219 26.2166 38.3243 26.1608 38.2197C26.112 38.2685 26.0075 38.3312 26.0145 38.3731C26.0354 38.4846 26.1051 38.5822 26.1608 38.6798C26.2096 38.631 26.2654 38.5752 26.3281 38.5125V38.5194ZM26.8161 20.0404C26.7464 19.9498 26.6697 19.8592 26.6 19.7755C26.5303 19.8453 26.4606 19.915 26.3909 19.9847C26.4815 20.0544 26.5651 20.138 26.6697 20.1868C26.6836 20.1938 26.7603 20.0962 26.8161 20.0474V20.0404ZM29.0745 18.5418C29.0815 18.5069 28.9839 18.4442 28.9282 18.3884C28.8724 18.486 28.8166 18.5905 28.7609 18.6881C28.8236 18.7509 28.8724 18.7997 28.9282 18.8554C28.9769 18.7509 29.0467 18.6533 29.0745 18.5487V18.5418ZM31.0054 11.7036C30.9566 11.6548 30.8939 11.5503 30.852 11.5572C30.7405 11.5781 30.6429 11.6478 30.5453 11.7036C30.5941 11.7524 30.6499 11.8082 30.7126 11.8709C30.8102 11.8151 30.9078 11.7594 31.0124 11.7036H31.0054ZM33.6891 26.537C33.6682 26.4255 33.5984 26.3279 33.5427 26.2303C33.4939 26.2791 33.3893 26.3418 33.3963 26.3837C33.4172 26.4952 33.4869 26.5928 33.5427 26.6904C33.5915 26.6416 33.696 26.5788 33.6891 26.537ZM35.5154 29.5971C34.881 29.5135 34.5813 29.388 34.4907 29.4786C34.3234 29.6459 34.2746 29.9317 34.1003 30.3639C34.6231 30.085 34.9229 29.9177 35.5154 29.6041V29.5971ZM36.2054 23.6094C35.836 23.5397 35.5781 23.4909 35.125 23.4072C35.1738 24.1182 35.2087 24.6828 35.2784 25.6169C35.6896 24.7316 35.9196 24.2298 36.2054 23.6094ZM40.6875 15.8511C40.7363 15.8999 40.7991 16.0045 40.8409 15.9975C40.9524 15.9766 41.05 15.9069 41.1476 15.8511C41.0988 15.8023 41.0361 15.6978 40.9942 15.7047C40.8827 15.7256 40.7851 15.7953 40.6875 15.8511ZM39.858 16.3948C39.8511 16.4297 39.9486 16.4924 40.0044 16.5482C40.0602 16.4506 40.1159 16.346 40.1717 16.2484C40.109 16.1857 40.0602 16.1369 40.0044 16.0811C39.9556 16.1857 39.8859 16.2833 39.858 16.3878V16.3948ZM40.2275 29.4577C40.1856 29.3392 40.1578 29.2067 40.0881 29.1092C40.0671 29.0813 39.9068 29.158 39.8092 29.1858C39.8789 29.2765 39.9486 29.3671 40.0253 29.4577C40.095 29.4577 40.1647 29.4577 40.2275 29.4577ZM41.8098 30.4545C41.4961 30.099 41.4055 29.9247 41.3358 29.9387C41.1127 29.9665 40.9036 30.0641 40.6875 30.1408C40.9664 30.2175 41.2452 30.3011 41.8028 30.4615L41.8098 30.4545ZM42.9111 16.6946C42.9181 16.6597 42.8205 16.597 42.7648 16.5412C42.709 16.6388 42.6532 16.7433 42.5975 16.8409C42.6602 16.9037 42.709 16.9525 42.7648 17.0082C42.8136 16.9037 42.8833 16.8061 42.9111 16.7015V16.6946Z" fill="#FFFFFF"/>
</g>
<defs>
<clipPath id="clip_about_gen4">
<rect width="50" height="49.6027" fill="white"/>
</clipPath>
</defs>
</svg>
