<svg width="50" height="50" viewBox="0 0 50 50" fill="none" xmlns="http://www.w3.org/2000/svg">
<g clip-path="url(#clip0_stat_snow)">
<path d="M41.5578 23.0192C41.4617 23.0192 41.3655 23.0288 41.279 23.0384C39.3463 22.8942 37.2116 22.7499 33.3366 22.7499C31.8943 22.7499 30.7117 22.7692 29.6828 22.7884C30.3847 22.0961 31.1828 21.298 32.154 20.3365C34.3751 18.1153 35.7597 16.7211 36.9328 15.5384C37.2982 15.2211 37.654 14.9134 38.0097 14.6057C39.5963 13.2499 41.2309 11.8365 44.2309 8.8461L43.904 8.51917L41.3847 5.99994C38.452 8.93264 36.9809 10.4134 35.5193 11.8942C35.1828 12.2307 34.8463 12.5769 34.5001 12.923C33.2213 14.0384 31.7309 15.3942 29.4713 17.6538L26.7693 20.3557C26.7693 19.3173 26.7693 18.1153 26.7693 16.6442C26.7693 14.0384 26.7213 12.2211 26.654 10.7211C26.6732 9.86533 26.6924 9.10571 26.7117 8.36533C26.7693 6.30764 26.827 4.17302 26.827 -0.0192871H22.7213C22.7213 4.19225 22.8463 6.33648 22.9616 8.41341C23.0097 9.17302 23.0482 9.92302 23.0866 10.7596C23.0578 12.2499 23.0386 14.0576 23.0386 16.6538C23.0386 18.1634 23.0386 19.4038 23.0386 20.4615C22.3078 19.7115 21.452 18.8557 20.4136 17.8173C17.4328 14.8365 15.8463 13.4038 14.3078 12.0096C12.7982 10.6442 11.2501 9.24033 8.32703 6.32687L8.25011 6.40379L5.80781 8.8461L5.73088 8.92302C8.66357 11.8557 10.1155 13.3365 11.577 14.8076C13.0482 16.298 14.5097 17.7788 17.4713 20.7403C18.3366 21.6057 19.077 22.3269 19.7405 22.9615C18.8559 22.9519 17.8655 22.9423 16.702 22.9423C12.5578 22.9423 10.452 22.8846 8.41357 22.8365C6.35588 22.7884 4.22127 22.7307 0.0385742 22.7307V27.0192C4.22127 27.0192 6.35588 26.9711 8.41357 26.9134C10.452 26.8653 12.5578 26.8076 16.702 26.8076C18.1347 26.8076 19.3174 26.7884 20.3463 26.7692L17.702 29.4134C14.7597 32.3557 13.279 33.8076 11.7982 35.2692C10.3078 36.7307 8.82704 38.1923 5.87511 41.1442L8.39434 43.6634L8.96165 44.2307C11.9617 41.2307 13.3655 39.5961 14.7213 38.0096C16.0963 36.4038 17.3943 34.8846 20.2982 31.9903C21.3559 30.9326 22.2116 30.0769 22.9616 29.3461C22.9616 30.4423 22.952 31.7211 22.952 33.3076C22.952 37.5096 23.0482 39.6442 23.1347 41.7115C23.2213 43.7403 23.3174 45.8365 23.3174 49.9615H27.0963C27.0963 45.7692 27.0386 43.6346 26.9809 41.5769C26.9232 39.5384 26.8655 37.4326 26.8655 33.298C26.8655 31.8076 26.8655 30.5865 26.8655 29.5288C27.6155 30.298 28.4905 31.173 29.5578 32.2499C32.4713 35.1634 33.8943 36.7115 35.2693 38.2019C36.6732 39.7211 38.1155 41.298 41.0963 44.2692L41.6924 43.673L43.6155 41.7499L44.2116 41.1538C41.2405 38.1826 39.6636 36.7307 38.1443 35.3269C36.654 33.9519 35.1059 32.5288 32.1828 29.6057C31.0386 28.4615 30.0963 27.548 29.279 26.7788C30.4136 26.798 31.7405 26.8076 33.3847 26.8076C37.2501 26.8076 39.3751 26.6923 41.2982 26.5769C41.3847 26.5769 41.4809 26.5865 41.5674 26.5961C43.654 26.7596 45.7982 26.923 50.0386 26.923V22.7211C45.8174 22.7211 43.6732 22.8557 41.5963 22.9903L41.5578 23.0192Z" fill="#FFFFFF"/>
</g>
<defs>
<clipPath id="clip0_stat_snow">
<rect width="50" height="50" fill="white"/>
</clipPath>
</defs>
</svg>
