<svg width="520" height="416" viewBox="0 0 520 416" fill="none" xmlns="http://www.w3.org/2000/svg">
<path d="M150.228 300.859C162.243 357.734 228.451 398.385 284.353 394.593C318.668 390.206 330.95 364.282 345.63 331.655C380.322 248.767 383.121 96.2623 279.245 69.4119C184.898 54.0909 152.915 180.319 189.65 248.503C196.202 259.658 207.329 277.668 219.456 263.052C229.917 250.796 227.163 232.587 223.654 216.516C209.506 154.593 138.39 134.267 92.4378 176.527C60.3223 203.62 51.0608 257.718 54.5699 303.46C62.3656 372.174 109.695 439.035 175.547 467.583C303.165 525.406 411.994 492.626 454.748 351.804C483.31 256.461 479.423 145.885 417.124 63.6142C387.629 21.7513 347.585 -9.30965 295.725 -18.0173L299.7 -45C419.811 -33.2061 500.322 84.733 516.358 196.191C534.992 334.058 483.954 524.282 324.242 548.884C234.092 558.87 142.41 533.585 75.9136 468.068C34.8031 424.001 5.3306 368.757 0.466634 307.935C-2.93148 246.298 11.5494 180.429 63.7426 140.153C155.358 72.895 272.36 147.45 250.594 257.607C243.021 287.897 205.131 305.973 182.41 278.991C109.384 190.636 147.763 15.0938 281.511 19.8775C400.333 30.1724 440.578 170.685 422.876 270.261C410.994 367.368 352.049 479.377 237.268 440.071C177.013 419.305 126.708 376.384 106.83 315.563L150.228 300.859Z" fill="#F2E7DC"/>
</svg>
