<svg width="444" height="444" viewBox="0 0 444 444" fill="none" xmlns="http://www.w3.org/2000/svg">
<path d="M482.397 -40.9663H-64.2139V484.113H482.397V-40.9663Z" fill="#FEF4EB"/>
<path d="M228.496 74.3166C227.266 73.4762 226.17 72.7367 225.493 72.2734C223.4 70.842 221.235 69.36 219.085 68.0058C216.929 66.6457 214.677 65.339 212.509 64.0679C210.345 62.8087 208.102 61.499 205.943 60.1418C205.721 60.0438 202.57 58.6777 198.234 58.6777C195.638 58.6777 192.621 59.1707 189.544 60.7091C182.631 64.1629 178.722 71.1805 179.586 78.5783C180.519 86.4749 186.286 92.9669 193.601 94.3597C195.879 94.7903 197.978 94.33 199.834 93.9291L200.535 93.7776L200.565 93.8637C203.734 93.1539 206.208 92.0314 207.045 91.476C209.112 90.2079 211.126 88.7854 213.068 87.4104C215.028 86.0265 217.053 84.595 219.132 83.321C221.208 82.0469 223.415 80.862 225.553 79.7216C227.537 78.6555 229.58 77.5566 231.522 76.3925C230.732 75.849 229.705 75.1422 228.499 74.3166H228.496ZM197.675 80.6363C195.184 80.6363 192.606 79.0742 192.606 76.4638C192.606 73.8533 195.118 71.3795 197.675 71.3795C200.232 71.3795 201.789 73.9602 201.789 76.4638C201.789 78.9673 200.215 80.6363 197.675 80.6363Z" fill="#EF8168"/>
<path d="M184.816 147.881C184.816 147.881 184.831 147.887 184.834 147.89C184.816 147.908 184.795 147.932 184.777 147.953C184.626 148.122 184.469 148.294 184.314 148.469C182.657 150.299 180.949 152.193 178.903 153.785C174.686 157.064 170.142 158.742 166.49 160.09C165.908 160.304 165.343 160.512 164.803 160.717C162.694 161.521 160.895 160.93 159.861 159.095C156.559 153.215 153.224 143.964 156.098 133.27C157.334 128.685 158.542 125.67 160.012 123.511C160.396 122.944 161.025 122.626 161.717 122.626C161.845 122.626 161.978 122.635 162.109 122.659C162.97 122.81 163.636 123.401 163.844 124.212C165.284 129.807 167.544 134.357 170.76 138.126C174.223 142.191 179.078 145.559 184.813 147.881H184.816Z" fill="#EF8168"/>
<path d="M219.5 105.538L218.933 104.989C211.045 97.2227 202.768 94.9835 200.419 94.4846L200.378 94.4697C200.975 98.5354 201.572 103.358 201.174 109.072C200.841 113.871 199.941 118.736 198.498 123.526C197.049 128.382 194.04 138.425 185.74 147.67L185.758 147.679L185.704 147.736C189.458 149.155 193.752 149.785 199.151 149.737C199.576 150.723 200.209 152.205 200.238 153.848C200.262 155.297 199.897 157.076 199.208 158.858C198.439 160.844 197.111 162.534 195.151 164.028C192.487 166.056 189.595 167.063 189.066 167.194L189.862 171.289C190.444 171.176 194.147 170.036 197.678 167.348C200.235 165.4 202.059 163.051 203.098 160.363C203.977 158.088 204.443 155.751 204.411 153.776C204.384 152.131 203.974 150.661 203.558 149.521C207.422 149.152 210.526 148.309 213.293 146.904C213.573 147.59 213.976 149.375 214.309 150.842C214.466 151.534 214.633 152.274 214.817 153.043C215.259 154.911 215.669 156.933 215.402 159.318C215.102 162.003 214.755 164.557 213.828 166.279C212.325 169.077 210.261 170.802 209.379 171.539L209.13 171.749L211.847 174.915L212.055 174.74C213.121 173.849 215.616 171.761 217.502 168.257C218.782 165.875 219.2 162.891 219.548 159.784C219.889 156.734 219.381 154.21 218.877 152.084C218.698 151.326 218.532 150.602 218.378 149.922C217.825 147.48 217.472 145.99 217.006 144.995C221.217 141.915 229.208 134.743 229.393 124.527C229.393 124.414 229.399 124.298 229.399 124.185C229.399 115.178 222.975 108.921 219.5 105.538Z" fill="#EF8168"/>
<path d="M184.76 147.944L184.778 147.953C184.796 147.935 184.816 147.911 184.834 147.891C184.828 147.885 184.819 147.885 184.816 147.882L184.76 147.944Z" fill="#EF8168"/>
<path d="M273.348 60.6346C270.562 59.2359 267.848 58.7637 265.439 58.7637C261.499 58.7637 258.389 60.0377 257.192 60.6109C255.075 61.9473 252.886 63.2926 250.769 64.5904C248.61 65.9179 246.373 67.2899 244.188 68.6649C241.381 70.429 241.102 70.524 237.616 72.6444C235.008 74.2303 232.897 75.537 231.519 76.3923C233.437 77.5802 235.347 78.8424 237.185 80.063C239.169 81.3786 241.227 82.7447 243.297 84.0128C246.415 85.9253 246.507 85.7501 249.584 87.627C253.13 89.792 255.47 91.36 255.47 91.36C257.388 92.6459 258.858 93.7061 261.196 94.2496C262.125 94.4664 262.921 94.5377 263.473 94.5644C264.442 94.5288 265.805 94.4278 267.414 94.1397C267.414 94.1397 268.314 93.9348 269.152 93.7744C276.713 92.3341 282.394 86.2282 283.285 78.5751C284.158 71.1269 280.259 64.0826 273.345 60.6287L273.348 60.6346ZM265.181 81.5063C262.642 81.5063 260.144 79.0057 260.144 76.4606C260.144 73.9155 262.594 71.5397 265.181 71.5397C267.768 71.5397 269.852 73.8413 269.852 76.4606C269.852 79.08 267.631 81.5063 265.181 81.5063Z" fill="#EF8168"/>
<path d="M303.429 159.237C302.333 161.194 299.77 162.145 297.715 161.355C294.573 160.152 289.676 157.815 284.17 153.523C281.996 151.831 279.704 149.728 277.827 147.706C283.766 145.309 288.666 141.977 292.016 138.051C295.726 133.697 298.401 128.833 299.554 124.354C299.776 123.478 300.367 122.857 301.098 122.73C301.736 122.62 302.348 122.923 302.785 123.558C304.967 126.78 306.452 129.908 307.32 133.118C310.346 144.373 306.182 154.313 303.429 159.237Z" fill="#EF8168"/>
<path d="M267.818 163.594C266.143 162.317 264.409 160.998 263.589 158.881C262.618 156.374 262.582 153.607 263.464 150.655C267.583 150.699 271.714 149.841 276.79 147.872C269.338 139.58 266.728 130.499 265.163 125.052C264.994 124.461 264.842 123.915 264.688 123.428C264.4 122.465 264.106 121.518 263.812 120.586C262.553 116.544 261.359 112.73 261.106 109.11C260.699 103.23 261.136 98.1281 261.605 94.7544C258.053 95.6305 250.709 98.1459 243.849 104.899L243.412 105.321C239.869 108.781 233.27 115.213 233.44 124.526C233.633 135.345 242.447 142.624 246.596 145.46C246.551 145.514 246.507 145.564 246.465 145.615C245.45 146.821 243.748 148.837 243.032 151.857C242.504 154.082 242.403 156.847 242.741 159.849C243.08 162.863 244.404 165.266 245.47 167.199C245.616 167.461 245.758 167.719 245.895 167.971C247.825 171.559 250.056 173.988 251.068 174.858L253.786 171.693C253.192 171.182 251.273 169.162 249.569 165.997C249.426 165.732 249.278 165.462 249.123 165.186C248.143 163.41 247.13 161.575 246.887 159.386C246.608 156.891 246.682 154.56 247.092 152.823C247.579 150.77 248.779 149.348 249.655 148.308C249.851 148.077 250.023 147.866 250.18 147.661C252.987 148.986 256.043 149.891 259.223 150.337C258.125 154.723 258.846 158.192 259.699 160.393C260.943 163.612 263.354 165.447 265.294 166.92L265.433 167.027C268.878 169.649 272.368 170.938 273.048 171.069L273.838 166.974C273.858 166.977 273.888 166.982 273.924 166.991C273.496 166.873 270.74 165.821 267.96 163.707L267.821 163.6L267.818 163.594Z" fill="#EF8168"/>
<path d="M168.079 128.848C168.01 128.819 167.799 129.12 167.655 129.273C167.876 129.363 168.098 129.454 167.975 130.3C168.442 129.476 168.565 129.406 168.688 129.334C168.488 129.163 168.309 128.944 168.077 128.848H168.079Z" fill="#E1D9B2"/>
<path d="M133.907 182.89C134.316 182.097 134.652 181.449 134.965 180.845C134.791 180.301 134.607 179.762 134.433 179.217C134.425 179.217 134.417 179.212 134.409 179.209C134.412 179.198 134.417 179.188 134.42 179.177C132.089 171.95 129.607 164.779 126.966 157.707C126.817 157.31 126.662 156.904 126.507 156.498C125.89 156.607 125.527 156.279 125.397 155.209C125.607 155.219 125.813 155.233 126.024 155.243C122.441 146.006 117.577 135.154 113.888 126.963C109.806 125.289 103.892 123.851 97.1193 124.641C90.592 124.427 81.8702 124.868 76.0583 132.009C74.1121 132.58 67.0935 139.794 68.9089 150.024C68.2922 157.982 73.1697 163.156 79.1578 167.991C84.4251 174.059 90.4612 178.117 96.2143 180.864C96.3905 180.84 96.5747 180.84 96.7563 180.829C96.7323 180.912 96.7082 181.006 96.6842 181.094C99.2684 182.298 101.778 183.229 104.135 183.966C103.97 183.803 103.812 183.614 103.676 183.374C104.877 181.321 106.848 182.3 108.85 181.78C108.668 182.88 108.532 183.702 108.297 185.114C109.758 185.464 111.124 185.744 112.345 185.955C117.994 188.235 126.793 190.037 137.568 189.244C136.868 186.911 136.145 184.583 135.413 182.258C135.122 182.543 134.65 182.765 133.913 182.893L133.907 182.89ZM113.519 130.159C112.294 130.461 111.712 130.602 111.13 130.746C111.442 130.397 111.725 130.004 112.088 129.721C112.2 129.636 112.542 129.847 113.519 130.156V130.159ZM108.997 129.516C109.229 129.614 109.408 129.831 109.608 130.001L109.237 130.212C109.015 130.122 108.794 130.031 108.572 129.94C108.716 129.788 108.927 129.486 108.997 129.516ZM75.0118 151.73C74.9504 151.783 74.7341 151.666 74.59 151.626C74.7128 151.423 74.8382 151.22 74.9557 151.025C75.1292 151.073 75.2734 151.113 75.4202 151.153C75.2868 151.351 75.18 151.578 75.0118 151.73ZM81.0079 137.781C81.8381 137.306 82.6684 136.833 83.5013 136.358L83.7389 136.774L81.2455 138.197L81.0079 137.781ZM105.58 174.62C103.869 173.655 103.767 172.141 105.273 170.079C105.385 171.75 105.473 173.058 105.58 174.62ZM87.2362 136.155C87.0333 136.03 86.8304 135.907 86.6355 135.787C86.6836 135.613 86.7236 135.466 86.761 135.322C86.9586 135.456 87.1828 135.56 87.3403 135.731C87.3937 135.792 87.2763 136.008 87.2362 136.152V136.155ZM93.0588 125.124C93.2563 125.255 93.4806 125.362 93.6354 125.532C93.6915 125.591 93.5714 125.807 93.5313 125.954C93.3284 125.829 93.1255 125.706 92.9306 125.588C92.9787 125.412 93.0187 125.268 93.0588 125.124ZM109.173 153.374C109.37 153.505 109.595 153.612 109.75 153.783C109.803 153.842 109.686 154.058 109.645 154.205C109.443 154.082 109.24 153.956 109.045 153.839C109.093 153.663 109.133 153.519 109.173 153.374ZM116.936 171.173C117.158 171.106 117.406 171.128 117.644 171.114C117.604 171.259 117.564 171.403 117.518 171.579C117.289 171.582 117.051 171.584 116.814 171.59C116.854 171.445 116.862 171.197 116.936 171.173ZM119.499 172.772C119.424 172.898 118.979 172.802 118.21 172.818C119.019 172.188 119.518 171.801 120.014 171.413C119.852 171.873 119.742 172.364 119.499 172.772ZM120.386 171.203C120.191 171.149 119.998 171.096 119.804 171.045C119.892 170.821 119.977 170.599 120.063 170.378C120.212 170.418 120.468 170.455 120.468 170.495C120.474 170.73 120.42 170.968 120.386 171.205V171.203Z" fill="#E1D9B2"/>
<path d="M137.565 189.241C137.933 190.475 138.299 191.719 138.66 192.955C139.023 194.18 139.378 195.422 139.725 196.666C140.969 201.049 142.143 205.46 143.254 209.854L145.801 209.211C145.449 207.812 145.085 206.407 144.712 205C144.546 204.352 144.373 203.706 144.199 203.06C144.066 202.531 143.921 202 143.775 201.468C143.323 199.827 142.875 198.193 142.418 196.546C141.74 194.13 141.049 191.732 140.333 189.348C140.317 189.273 140.296 189.201 140.275 189.129L140.267 189.135C140.229 188.988 140.181 188.838 140.133 188.689C139.888 188.83 139.642 188.969 139.407 189.095C138.79 189.156 138.179 189.209 137.565 189.241ZM140.224 196.225C140.021 196.1 139.818 195.977 139.623 195.859C139.671 195.686 139.711 195.539 139.751 195.395C139.949 195.528 140.173 195.633 140.331 195.803C140.384 195.865 140.267 196.081 140.227 196.225H140.224ZM140.157 193.903C139.93 193.905 139.69 193.908 139.455 193.913C139.495 193.769 139.503 193.521 139.581 193.497C139.802 193.43 140.05 193.451 140.285 193.438C140.245 193.582 140.208 193.729 140.157 193.903Z" fill="#E1D9B2"/>
<path d="M167.975 130.3C167.158 130.226 166.79 129.574 166.371 128.84C166.619 127.927 167.852 127.415 169.489 127.5C169.072 125.514 168.381 123.509 167.337 121.469C166.977 117.737 163.455 108.463 153.238 105.4C145.107 100.934 137.239 103.74 134.714 105.513C122.404 109.408 117.713 121.68 116.506 126.371C120.519 135.298 125.832 147.173 129.425 156.786C133.341 167.241 136.924 177.914 140.136 188.684C145.069 185.843 151.148 180.362 156.098 172.019C165.1 160.481 167.665 149.279 167.537 145.761C169.278 140.018 170.559 134.5 169.729 128.869C169.094 129.489 168.49 130.017 167.975 130.298V130.3ZM126.339 146.479C126.969 147.288 127.356 147.787 127.743 148.286C127.284 148.123 126.793 148.014 126.384 147.768C126.259 147.693 126.355 147.248 126.339 146.479ZM146.759 182.586C146.562 182.453 146.337 182.348 146.182 182.178C146.126 182.119 146.247 181.9 146.287 181.756C146.489 181.879 146.692 182.004 146.887 182.122C146.839 182.295 146.799 182.439 146.759 182.586ZM128.667 148.74C128.432 148.745 128.194 148.692 127.957 148.657C128.01 148.462 128.063 148.27 128.117 148.075C128.341 148.163 128.563 148.249 128.784 148.334C128.744 148.486 128.709 148.74 128.667 148.74ZM131.366 144.017C131.222 143.977 131.077 143.937 130.901 143.889C130.901 143.659 130.896 143.422 130.891 143.184C131.035 143.224 131.283 143.232 131.307 143.31C131.374 143.531 131.352 143.78 131.366 144.017ZM127.391 129.606C127.217 129.558 127.073 129.518 126.926 129.478C127.06 129.281 127.164 129.056 127.335 128.902C127.396 128.848 127.612 128.966 127.756 129.006C127.634 129.209 127.508 129.411 127.391 129.606ZM147.731 153.401C147.533 153.27 147.306 153.164 147.152 152.993C147.098 152.934 147.216 152.715 147.256 152.571C147.453 152.702 147.677 152.808 147.832 152.979C147.886 153.038 147.768 153.257 147.728 153.401H147.731ZM152.507 159.437C152.381 158.482 152.173 157.918 152.301 157.448C152.371 157.197 153.033 157.115 154.266 156.615C153.532 157.793 153.158 158.393 152.504 159.437H152.507ZM149.76 149.685C148.689 148.072 148.038 147.095 147.218 145.859C148.121 145.547 148.633 145.368 149.37 145.114C149.49 146.524 149.589 147.667 149.76 149.685ZM149.88 125.954C149.939 125.901 150.158 126.018 150.302 126.058C150.171 126.256 150.064 126.48 149.893 126.635C149.835 126.688 149.618 126.571 149.472 126.531C149.602 126.333 149.709 126.109 149.88 125.954ZM148.462 127.657C148.607 127.698 148.753 127.738 148.927 127.786C148.93 128.015 148.932 128.253 148.938 128.49C148.793 128.45 148.545 128.442 148.521 128.365C148.454 128.146 148.476 127.898 148.462 127.66V127.657ZM162.251 151.727C162.03 151.636 161.808 151.546 161.586 151.455C161.733 151.303 161.942 151.001 162.011 151.03C162.241 151.129 162.422 151.345 162.622 151.516C162.5 151.586 162.377 151.658 162.251 151.727ZM164.147 152.259C164.459 151.909 164.742 151.516 165.105 151.236C165.215 151.151 165.559 151.37 166.485 151.685C165.308 151.973 164.726 152.117 164.147 152.259ZM154.394 126.475C154.25 126.435 154.106 126.395 153.93 126.347C153.93 126.117 153.925 125.879 153.919 125.645C154.063 125.685 154.312 125.693 154.336 125.77C154.405 125.992 154.381 126.24 154.394 126.475Z" fill="#E1D9B2"/>
<path d="M391.183 140.703C387.708 139.284 384.444 139.745 382.805 140.143C380.378 140.737 378.452 141.883 372.807 147.442C371.49 148.739 370.181 150.07 368.889 151.421C368.889 151.421 368.889 151.421 368.889 151.419C368.444 150.84 367.969 150.305 367.464 149.813C367.414 149.867 367.362 149.924 367.308 149.978C367.253 150.038 367.196 150.097 367.137 150.154C361.635 155.881 355.928 161.437 350.137 166.699C347.912 168.718 345.917 170.532 344.056 172.19C344.088 172.22 344.123 172.25 344.118 172.257C344.081 172.327 344.027 172.386 343.977 172.448C343.945 172.416 343.91 172.381 343.878 172.349C343.829 172.393 343.777 172.438 343.727 172.483C343.764 172.47 343.801 172.46 343.836 172.448V172.589C343.774 172.638 343.712 172.685 343.648 172.735C343.635 172.693 343.611 172.636 343.598 172.594C341.727 174.255 339.992 175.754 338.312 177.13C343.23 182.783 348.786 187.874 354.889 192.314C354.953 192.366 355.017 192.41 355.087 192.457C355.146 192.504 355.211 192.549 355.275 192.591C361.071 186.156 364.944 179.962 368.963 173.527C370.716 170.713 372.592 167.332 372.661 162.779C372.666 162.35 372.666 159.531 371.483 156.228C373.109 154.495 374.772 152.79 376.445 151.142C381.585 146.081 382.833 145.482 384.035 145.187C384.862 144.984 387.02 144.613 389.218 145.509C391.235 146.333 392.868 148.053 393.883 150.31C394.937 152.656 397.311 154.121 399.87 153.859L400.11 153.834C399.481 147.729 396.061 142.697 391.18 140.705L391.183 140.703ZM341.153 179.395C341.116 179.326 341.076 179.256 341.042 179.192C341.084 179.15 341.119 179.115 341.153 179.081C341.188 179.15 341.235 179.219 341.252 179.293C341.257 179.321 341.188 179.363 341.153 179.397V179.395ZM341.515 174.928C341.448 174.891 341.381 174.853 341.312 174.816C341.346 174.782 341.388 174.712 341.416 174.717C341.49 174.735 341.557 174.782 341.628 174.816C341.594 174.851 341.559 174.886 341.517 174.928H341.515ZM341.784 179.709C341.75 179.64 341.703 179.571 341.685 179.496C341.68 179.472 341.75 179.427 341.784 179.392C341.819 179.462 341.866 179.531 341.883 179.605C341.888 179.63 341.819 179.675 341.784 179.709ZM346.271 175.579C345.752 175.314 345.274 175.069 344.672 174.762C345.093 174.559 345.44 174.393 346.039 174.106C345.831 174.801 346.635 175.024 346.271 175.579ZM346.838 173.71C346.803 173.641 346.756 173.571 346.739 173.497C346.734 173.472 346.803 173.428 346.838 173.393C346.873 173.463 346.92 173.532 346.937 173.606C346.942 173.631 346.873 173.675 346.838 173.71ZM359.522 171.559C359.549 171.554 359.591 171.624 359.626 171.658C359.556 171.693 359.487 171.74 359.413 171.757C359.386 171.762 359.344 171.693 359.309 171.658C359.378 171.624 359.448 171.577 359.522 171.559ZM356.626 177.185C356.661 177.254 356.708 177.323 356.725 177.398C356.73 177.425 356.661 177.467 356.626 177.502C356.589 177.432 356.549 177.365 356.515 177.299C356.557 177.257 356.591 177.222 356.626 177.187V177.185ZM356.035 178.553C356.369 178.504 356.577 178.477 356.782 178.447C356.661 178.553 356.549 178.675 356.411 178.751C356.369 178.776 356.257 178.675 356.035 178.553ZM356.676 183.449C356.606 183.357 356.505 183.275 356.478 183.174C356.458 183.102 356.54 183.003 356.574 182.917C356.686 182.964 356.797 183.013 356.846 183.033C356.747 183.273 356.71 183.36 356.673 183.446L356.676 183.449ZM356.923 178.447C356.876 178.4 356.829 178.353 356.782 178.306C356.844 178.256 356.906 178.207 356.965 178.157C357.002 178.195 357.069 178.247 357.062 178.256C357.025 178.326 356.97 178.385 356.921 178.447H356.923ZM357.381 178.318C357.572 178.13 357.71 177.927 357.903 177.833C358.01 177.781 358.282 177.873 358.346 177.979C358.475 178.195 358.514 178.467 358.623 178.831C358.183 178.647 357.836 178.504 357.381 178.316V178.318ZM358.277 177.734C358.633 177.41 358.982 177.088 359.507 176.611C359.574 177.232 359.613 177.606 359.658 178.009C359.205 177.833 358.735 178.177 358.277 177.734ZM363.729 176.061C363.667 176.111 363.605 176.158 363.541 176.207C363.521 176.14 363.469 176.032 363.489 176.017C363.556 175.967 363.647 175.95 363.729 175.92V176.061ZM363.87 175.92C363.823 175.873 363.776 175.826 363.729 175.779C363.791 175.73 363.853 175.68 363.912 175.631C363.949 175.668 364.016 175.72 364.009 175.73C363.972 175.799 363.917 175.858 363.868 175.92H363.87ZM364.046 160.591C363.984 160.64 363.922 160.687 363.858 160.737C363.838 160.67 363.786 160.561 363.806 160.546C363.873 160.497 363.964 160.479 364.046 160.45V160.591ZM364.051 160.484C364.048 160.388 364.043 160.291 364.041 160.195C364.348 160.18 364.655 160.165 364.962 160.15C364.969 160.22 364.974 160.291 364.981 160.361C364.672 160.4 364.36 160.442 364.051 160.482V160.484ZM365.828 165.456C365.761 165.419 365.694 165.382 365.625 165.345C365.659 165.31 365.702 165.241 365.729 165.246C365.803 165.263 365.87 165.31 365.942 165.345C365.907 165.38 365.872 165.414 365.83 165.456H365.828ZM366.847 162.219C366.57 161.905 366.409 161.771 366.318 161.6C366.261 161.492 366.283 161.321 366.32 161.192C366.338 161.135 366.528 161.063 366.563 161.093C366.689 161.197 366.82 161.328 366.877 161.474C366.924 161.6 366.872 161.766 366.847 162.219ZM367.548 161.526C367.615 161.506 367.723 161.454 367.738 161.474C367.788 161.541 367.805 161.633 367.832 161.714H367.691C367.642 161.652 367.595 161.591 367.545 161.526H367.548ZM368.025 161.994C367.956 161.957 367.897 161.902 367.835 161.853C367.882 161.806 367.929 161.759 367.976 161.712C368.025 161.774 368.075 161.836 368.124 161.895C368.087 161.932 368.035 161.999 368.025 161.992V161.994ZM369.444 161.526C369.51 161.506 369.619 161.454 369.634 161.474C369.684 161.541 369.701 161.633 369.728 161.714H369.587C369.538 161.652 369.491 161.591 369.441 161.526H369.444ZM369.869 161.712C369.919 161.774 369.968 161.836 370.018 161.895C369.981 161.932 369.929 161.999 369.919 161.992C369.849 161.954 369.79 161.9 369.728 161.85C369.775 161.803 369.822 161.756 369.869 161.709V161.712ZM370.535 163.585C370.342 163.504 370.203 163.291 369.882 162.977C370.3 162.977 370.51 162.927 370.676 162.991C370.81 163.046 370.889 163.239 370.993 163.37C370.837 163.449 370.639 163.63 370.535 163.585ZM389.725 141.762C389.698 141.767 389.656 141.697 389.621 141.663C389.691 141.626 389.757 141.589 389.824 141.551C389.866 141.594 389.901 141.628 389.936 141.663C389.866 141.697 389.797 141.745 389.723 141.762H389.725ZM394.831 146.556C394.796 146.486 394.749 146.417 394.732 146.343C394.727 146.318 394.796 146.274 394.831 146.239C394.865 146.308 394.913 146.377 394.93 146.452C394.935 146.476 394.865 146.521 394.831 146.556Z" fill="#79A388"/>
<path d="M329.927 170.23C329.887 170.23 329.85 170.23 329.806 170.23C329.833 170.203 329.853 170.183 329.877 170.159C325.462 163.853 322.742 158.45 321.334 155.314C320.532 153.527 319.79 151.708 319.104 149.867C319.035 149.929 318.966 149.996 318.887 150.018C318.815 150.038 318.716 149.956 318.629 149.921C318.676 149.81 318.726 149.699 318.745 149.649C318.914 149.718 319.005 149.758 319.077 149.788C318.419 148.011 317.815 146.212 317.27 144.397C317.248 144.318 317.221 144.247 317.196 144.162V144.157C317.174 144.083 317.149 144.006 317.127 143.927C316.709 144.18 316.298 144.462 315.894 144.754C315.894 144.754 315.889 144.756 315.889 144.759C314.786 142.435 313.462 140.262 311.927 138.277C309.398 135.013 307.319 133.515 305.186 133.426C302.424 133.33 300.602 135.119 298.689 137.035L298.246 137.478C296.736 138.977 295.135 140.455 293.474 141.905C293.509 141.893 293.536 141.888 293.544 141.895C293.593 141.962 293.611 142.054 293.638 142.135H293.497C293.457 142.086 293.42 142.036 293.38 141.987C292.287 142.94 291.17 143.885 290.022 144.808C291.839 147.073 295.175 147.343 297.353 145.42C298.934 144.024 300.456 142.598 301.904 141.16L302.359 140.707C303.423 139.643 304.431 138.636 304.946 138.616C305.104 138.681 306.022 139.128 307.826 141.46C309.489 143.606 310.868 146.019 311.935 148.642C311.935 148.642 311.935 148.642 311.935 148.644C311.695 148.944 311.464 149.251 311.237 149.57C309.663 151.74 308.532 154.173 307.866 156.797C306.72 161.281 307.292 165.164 308.081 168.691C309.405 174.616 310.846 181.078 314.07 188.364C314.15 188.337 314.221 188.309 314.296 188.282C314.37 188.255 314.442 188.228 314.511 188.2C318.181 186.819 321.733 185.188 325.145 183.308C328.751 181.32 331.751 179.321 334.951 176.813C333.08 174.556 331.412 172.349 329.934 170.24L329.927 170.23ZM293.823 142.418C293.754 142.38 293.695 142.326 293.633 142.277C293.68 142.229 293.727 142.182 293.774 142.135C293.823 142.197 293.873 142.259 293.922 142.319C293.885 142.356 293.833 142.423 293.823 142.415V142.418ZM295.415 144.301C295.348 144.264 295.281 144.227 295.212 144.19C295.246 144.155 295.289 144.086 295.316 144.091C295.39 144.108 295.457 144.155 295.529 144.19C295.494 144.224 295.459 144.259 295.417 144.301H295.415ZM301.842 138.267H301.211V138.109H301.842V138.267ZM308.094 137.072C307.977 137 307.851 136.953 307.853 136.916C307.863 136.777 307.915 136.639 307.95 136.503C308.019 136.542 308.146 136.579 308.148 136.621C308.155 136.76 308.118 136.901 308.094 137.072ZM310.155 163.862C310.13 163.867 310.086 163.798 310.051 163.763C310.12 163.726 310.187 163.687 310.254 163.652C310.296 163.694 310.331 163.729 310.366 163.763C310.296 163.798 310.227 163.845 310.153 163.862H310.155ZM310.526 178.133C310.492 178.063 310.445 177.994 310.427 177.92C310.422 177.893 310.492 177.85 310.526 177.816C310.564 177.885 310.603 177.952 310.638 178.019C310.596 178.061 310.561 178.095 310.526 178.13V178.133ZM311.789 179.709C311.754 179.64 311.707 179.57 311.69 179.496C311.685 179.471 311.754 179.427 311.789 179.392C311.823 179.462 311.87 179.531 311.888 179.605C311.893 179.63 311.823 179.674 311.789 179.709ZM312.42 179.709C312.385 179.674 312.316 179.632 312.321 179.605C312.338 179.531 312.385 179.464 312.42 179.392C312.454 179.427 312.489 179.462 312.531 179.504C312.494 179.57 312.457 179.637 312.42 179.707V179.709ZM314.763 161.895C314.726 161.932 314.674 161.999 314.664 161.991C314.595 161.954 314.536 161.9 314.474 161.85C314.521 161.803 314.568 161.756 314.615 161.709C314.664 161.771 314.714 161.833 314.763 161.892V161.895ZM314.187 161.526C314.254 161.506 314.362 161.454 314.377 161.474C314.427 161.541 314.444 161.633 314.474 161.714H314.333C314.283 161.652 314.236 161.59 314.187 161.526ZM314.585 184.716C314.543 184.674 314.508 184.639 314.474 184.604C314.543 184.57 314.612 184.523 314.687 184.505C314.711 184.5 314.756 184.57 314.791 184.604C314.721 184.642 314.654 184.681 314.588 184.716H314.585ZM314.947 149.714C314.909 149.644 314.87 149.577 314.835 149.511C314.877 149.469 314.912 149.434 314.947 149.399C314.981 149.469 315.028 149.538 315.046 149.612C315.05 149.637 314.981 149.681 314.947 149.716V149.714ZM325.987 174.037C326.024 174.037 326.071 174.16 326.143 174.277C325.972 174.301 325.831 174.339 325.692 174.331C325.648 174.331 325.613 174.202 325.574 174.133C325.712 174.099 325.848 174.047 325.987 174.037ZM325.923 181.278C325.804 181.3 325.66 181.187 325.529 181.137C325.633 180.927 325.727 180.709 325.843 180.506C325.878 180.447 325.98 180.427 326.051 180.39C326.088 180.489 326.158 180.58 326.15 180.664C326.128 180.89 326.296 181.209 325.923 181.281V181.278ZM326.321 172.497C326.264 172.43 326.207 172.366 326.15 172.302C326.257 172.193 326.348 172.059 326.474 171.983C326.621 171.891 326.796 171.846 326.957 171.782C327.016 171.866 327.073 171.948 327.133 172.032C326.863 172.188 326.593 172.344 326.321 172.497ZM328.254 169.876C328.187 169.839 328.12 169.802 328.051 169.765C328.086 169.73 328.128 169.661 328.155 169.666C328.229 169.683 328.296 169.73 328.368 169.765C328.333 169.8 328.298 169.834 328.256 169.876H328.254Z" fill="#79A388"/>
<path d="M361.92 226.655C361.878 226.016 361.851 225.63 361.818 225.143C361.932 225.165 362.026 225.182 362.115 225.197C357.408 222.512 353.139 219.208 349.377 215.323C346.397 212.246 343.767 208.819 341.537 205.128C342.368 204.497 343.188 203.854 343.997 203.203C347.759 200.161 350.924 197.219 353.666 194.336C353.602 194.293 353.537 194.249 353.473 194.197C353.409 194.155 353.344 194.11 353.285 194.058C347.103 189.542 341.467 184.362 336.478 178.608C333.929 180.597 331.419 182.345 328.635 184.01C328.677 184.109 328.705 184.218 328.67 184.283C328.578 184.456 328.395 184.58 328.054 184.921C328.054 184.666 328.044 184.498 328.046 184.359C327.47 184.696 326.885 185.032 326.284 185.364C322.822 187.272 319.218 188.938 315.499 190.341C315.429 190.373 315.355 190.396 315.288 190.42C315.214 190.452 315.137 190.485 315.063 190.507C316.412 193.313 318.035 196.239 320.02 199.303C320.374 199.85 320.738 200.394 321.112 200.931C318.996 205.287 316.362 209.378 313.276 213.088C309.361 217.797 304.75 221.876 299.575 225.207C301.144 227.647 304.47 228.249 306.775 226.484C310.638 223.524 314.155 220.149 317.268 216.404C320.045 213.063 322.48 209.437 324.544 205.601C324.544 205.601 324.544 205.604 324.547 205.606C326.4 207.965 328.388 210.237 330.489 212.405L330.623 212.538L330.783 212.442C333.011 211.098 335.199 209.682 337.334 208.2C339.715 212.078 342.509 215.681 345.655 218.931C350.167 223.591 355.339 227.487 361.083 230.555C363.64 231.922 366.82 230.778 367.971 228.118C366.088 227.303 364.266 226.4 362.501 225.41C362.333 225.776 362.177 226.111 361.927 226.65L361.92 226.655ZM352.251 194.912C352.293 194.954 352.327 194.989 352.362 195.024C352.293 195.058 352.223 195.105 352.149 195.123C352.122 195.128 352.08 195.058 352.045 195.024C352.114 194.986 352.181 194.947 352.248 194.912H352.251ZM349.593 192.044C349.459 192.309 349.39 192.613 349.278 192.63C348.947 192.682 348.595 192.62 347.957 192.591C348.541 191.806 349.016 192.101 349.595 192.044H349.593ZM345.836 191.136C345.91 191.153 345.977 191.2 346.048 191.235C346.014 191.269 345.979 191.304 345.937 191.346C345.87 191.309 345.803 191.272 345.734 191.235C345.769 191.2 345.811 191.131 345.838 191.136H345.836ZM344.898 192.702C344.964 192.739 345.031 192.776 345.101 192.813C345.066 192.848 345.024 192.917 344.997 192.912C344.922 192.895 344.856 192.848 344.784 192.813C344.818 192.779 344.853 192.744 344.895 192.702H344.898ZM344.366 193.979C344.393 193.974 344.435 194.043 344.469 194.078C344.4 194.113 344.331 194.16 344.257 194.177C344.232 194.182 344.187 194.113 344.153 194.078C344.222 194.043 344.291 193.996 344.366 193.979ZM344.128 198.523C344.091 198.56 344.039 198.627 344.029 198.62C343.96 198.582 343.9 198.528 343.838 198.478C343.885 198.431 343.932 198.384 343.979 198.337C344.029 198.399 344.078 198.461 344.128 198.521V198.523ZM343.68 191.393C343.715 191.462 343.762 191.531 343.779 191.606C343.784 191.63 343.715 191.675 343.68 191.71C343.645 191.64 343.598 191.571 343.581 191.497C343.576 191.47 343.645 191.428 343.68 191.393ZM343.838 198.191C343.692 198.241 343.546 198.308 343.395 198.328C343.348 198.335 343.284 198.216 343.056 197.969C343.457 198.083 343.648 198.137 343.838 198.191ZM342.705 198.342C342.95 198.61 343.413 198.731 343.076 199.285C342.831 199.018 342.368 198.897 342.705 198.342ZM342.052 199.02C342.121 199.06 342.247 199.097 342.25 199.139C342.257 199.278 342.22 199.419 342.195 199.59C342.079 199.518 341.953 199.471 341.955 199.434C341.965 199.295 342.017 199.159 342.052 199.02ZM341.784 199.919C341.819 199.988 341.866 200.057 341.883 200.132C341.888 200.156 341.819 200.201 341.784 200.236C341.75 200.166 341.703 200.097 341.685 200.023C341.68 199.998 341.75 199.954 341.784 199.919ZM317.087 193.422C317.074 193.134 317.188 193.02 317.429 193.081C317.342 193.167 317.184 193.326 317.087 193.422ZM302.263 224.487C302.236 224.492 302.194 224.423 302.159 224.388C302.228 224.353 302.298 224.306 302.372 224.289C302.399 224.284 302.441 224.353 302.476 224.388C302.406 224.423 302.337 224.47 302.263 224.487ZM314.471 216.161C314.41 216.211 314.348 216.258 314.283 216.308C314.264 216.241 314.212 216.132 314.231 216.117C314.298 216.067 314.39 216.05 314.471 216.02C314.543 215.934 314.613 215.847 314.684 215.758C314.719 215.845 314.754 215.934 314.788 216.02H314.471V216.161ZM314.979 216.303C314.91 216.265 314.85 216.211 314.788 216.161C314.835 216.114 314.882 216.067 314.929 216.02C314.979 216.082 315.028 216.144 315.078 216.204C315.041 216.241 314.989 216.308 314.979 216.3V216.303ZM319.114 209.467C319.164 209.534 319.181 209.625 319.211 209.707H319.07C319.02 209.645 318.973 209.583 318.924 209.519C318.991 209.499 319.1 209.447 319.114 209.467ZM319.005 211.556C318.963 211.514 318.929 211.479 318.894 211.444C318.963 211.41 319.033 211.363 319.107 211.345C319.134 211.34 319.176 211.41 319.211 211.444C319.142 211.481 319.075 211.521 319.008 211.556H319.005ZM318.951 210.591C319.077 210.279 319.199 209.982 319.342 209.63C319.467 210.221 319.337 210.541 318.951 210.591ZM329.563 198.644C329.447 198.573 329.321 198.526 329.323 198.488C329.333 198.35 329.385 198.214 329.42 198.075C329.489 198.115 329.615 198.152 329.618 198.194C329.625 198.332 329.588 198.474 329.563 198.644ZM330.734 208.128C330.699 208.059 330.652 207.989 330.635 207.915C330.63 207.89 330.699 207.846 330.734 207.811C330.769 207.881 330.816 207.95 330.833 208.024C330.838 208.049 330.769 208.093 330.734 208.128ZM333.261 206.232C333.226 206.198 333.157 206.156 333.162 206.128C333.179 206.054 333.226 205.987 333.261 205.915C333.295 205.95 333.33 205.985 333.372 206.027C333.335 206.094 333.298 206.161 333.261 206.23V206.232ZM333.892 191.71C333.857 191.64 333.81 191.571 333.793 191.497C333.788 191.47 333.857 191.428 333.892 191.393C333.929 191.462 333.969 191.529 334.003 191.596C333.961 191.638 333.927 191.673 333.892 191.707V191.71ZM335.798 208.749C335.753 208.749 335.718 208.621 335.679 208.551C335.817 208.514 335.953 208.465 336.092 208.455C336.129 208.452 336.176 208.578 336.248 208.695C336.077 208.72 335.936 208.757 335.798 208.749ZM336.567 207.17C336.495 207.19 336.396 207.108 336.31 207.074C336.357 206.962 336.406 206.851 336.426 206.802C336.666 206.903 336.755 206.938 336.842 206.975C336.753 207.044 336.669 207.146 336.567 207.173V207.17ZM338.097 192.873C337.49 192.749 337.678 193.759 336.867 193.571C337.042 192.994 337.191 192.507 337.372 191.91C337.654 192.118 337.904 192.267 338.099 192.465C338.166 192.534 338.099 192.732 338.099 192.87L338.097 192.873ZM338.47 184.998H337.839V184.839H338.47V184.998ZM338.629 192.655C338.594 192.586 338.547 192.516 338.53 192.442C338.525 192.415 338.594 192.373 338.629 192.338C338.666 192.408 338.706 192.474 338.74 192.541C338.698 192.583 338.663 192.618 338.629 192.653V192.655ZM338.998 201.122C338.923 201.104 338.856 201.057 338.785 201.023C338.819 200.988 338.854 200.953 338.896 200.911C338.963 200.948 339.03 200.986 339.099 201.023C339.064 201.057 339.022 201.127 338.995 201.122H338.998ZM339.53 182.506C339.488 182.464 339.453 182.429 339.418 182.394C339.488 182.36 339.557 182.313 339.631 182.295C339.658 182.29 339.7 182.36 339.735 182.394C339.666 182.431 339.599 182.468 339.532 182.506H339.53ZM340.21 186.04C340.096 185.461 340.237 185.172 340.631 185.174C340.492 185.461 340.354 185.745 340.21 186.04ZM341.099 201.122C341.074 201.127 341.029 201.057 340.995 201.023C341.064 200.986 341.131 200.946 341.198 200.911C341.24 200.953 341.274 200.988 341.309 201.023C341.24 201.057 341.17 201.104 341.096 201.122H341.099ZM345.101 212.155H344.153V211.996H345.101V212.155ZM346.204 212.548C346.167 212.479 346.128 212.412 346.093 212.345C346.135 212.303 346.17 212.269 346.204 212.234C346.239 212.303 346.286 212.372 346.303 212.447C346.308 212.474 346.239 212.516 346.204 212.551V212.548ZM349.679 221.388C349.642 221.319 349.602 221.252 349.568 221.186C349.61 221.143 349.644 221.109 349.679 221.074C349.714 221.143 349.761 221.213 349.778 221.287C349.783 221.312 349.714 221.356 349.679 221.391V221.388ZM354.681 225.611C354.634 225.276 354.604 225.069 354.574 224.863C354.681 224.984 354.802 225.096 354.879 225.234C354.904 225.276 354.802 225.388 354.681 225.611ZM354.03 224.254C354.282 224.418 354.505 224.561 354.946 224.846C354.151 224.88 353.773 224.863 354.03 224.254ZM355.728 221.906C355.775 222.24 355.804 222.448 355.834 222.653C355.728 222.532 355.606 222.42 355.53 222.282C355.505 222.24 355.606 222.128 355.728 221.906ZM356.027 222.933C355.958 222.896 355.898 222.841 355.837 222.792C355.884 222.745 355.931 222.698 355.978 222.651C356.027 222.712 356.077 222.774 356.126 222.834C356.089 222.871 356.037 222.938 356.027 222.93V222.933ZM360.729 227.388C360.695 227.318 360.648 227.249 360.63 227.175C360.626 227.15 360.695 227.105 360.729 227.071C360.764 227.14 360.811 227.209 360.828 227.284C360.833 227.308 360.764 227.353 360.729 227.388ZM361.113 229.9C361.234 229.605 361.267 229.41 361.38 229.296C361.442 229.236 361.645 229.32 362.081 229.377C361.677 229.595 361.472 229.707 361.113 229.9ZM366.39 229.964C366.006 229.855 365.815 229.801 365.625 229.746C365.771 229.697 365.917 229.63 366.068 229.61C366.112 229.603 366.177 229.721 366.39 229.964ZM365.214 229.043C365.263 229.108 365.281 229.202 365.31 229.283C365.263 229.283 365.216 229.283 365.169 229.283C365.12 229.221 365.073 229.16 365.023 229.095C365.09 229.075 365.199 229.023 365.214 229.043Z" fill="#79A388"/>
<path d="M365.338 148.622C365.392 148.563 365.451 148.508 365.503 148.446C365.558 148.392 365.615 148.335 365.664 148.281C362.053 145.613 357.554 144.43 353.374 143.653C353.047 140.871 353.245 138.243 353.968 135.837C354.483 134.112 355.094 133.025 355.688 131.979C356.057 131.325 356.416 130.692 356.723 129.937C357.032 129.187 357.289 128.313 357.458 127.192C357.715 125.482 358.396 120.946 355.379 117.656C353.119 115.204 351.231 114.875 350.048 115.021C345.477 115.605 343.074 124.037 341.787 128.566C341.477 129.637 341.24 130.65 341.005 131.625C340.547 133.548 340.064 135.535 339.087 138.042C339.092 138.151 339.094 138.302 339.114 138.502C339.059 138.448 339.012 138.403 338.965 138.356C338.78 138.822 338.582 139.299 338.359 139.802C337.951 140.717 337.555 141.512 337.277 142.064C335.461 141.989 333.285 141.903 330.764 141.806L329.741 141.764C325.304 141.594 322.856 141.497 320.312 142.39C319.953 142.514 319.604 142.658 319.255 142.809C319.273 142.883 319.297 142.955 319.32 143.034C319.337 143.108 319.362 143.185 319.389 143.264C320.503 147.046 321.874 150.758 323.482 154.344C324.962 157.643 329.157 166.125 336.78 175.324C340.082 172.619 343.739 169.322 348.546 164.946C354.263 159.749 359.898 154.265 365.335 148.617L365.338 148.622ZM356.487 121.156C355.911 121.468 355.829 121.208 355.842 120.527C356.141 120.819 356.302 120.973 356.487 121.156ZM354.651 121.297H354.81V121.928H354.651V121.297ZM353.837 127.67C353.862 127.665 353.906 127.734 353.941 127.769C353.872 127.803 353.802 127.851 353.728 127.868C353.703 127.873 353.659 127.803 353.624 127.769C353.693 127.734 353.763 127.687 353.837 127.67ZM322.287 144.031H322.129V143.4H322.287V144.031ZM325.049 149.397C325.014 149.362 324.98 149.328 324.938 149.285C324.975 149.219 325.012 149.152 325.049 149.082C325.084 149.117 325.153 149.159 325.148 149.186C325.131 149.261 325.084 149.328 325.049 149.399V149.397ZM325.636 149.035C325.594 148.993 325.559 148.959 325.524 148.924C325.594 148.889 325.663 148.842 325.737 148.825C325.764 148.82 325.806 148.889 325.841 148.924C325.772 148.961 325.705 149.001 325.638 149.035H325.636ZM326.982 149.486C326.752 149.144 326.581 148.892 326.304 148.484C326.796 148.718 327.022 149.052 326.982 149.486ZM327.249 148.766C327.2 148.62 327.133 148.474 327.113 148.323C327.106 148.276 327.225 148.214 327.472 147.984C327.358 148.385 327.304 148.575 327.249 148.766ZM332.154 150.265H331.523V150.107H332.154V150.265ZM332.674 149.035C332.607 148.998 332.541 148.961 332.471 148.924C332.506 148.889 332.548 148.82 332.575 148.825C332.649 148.842 332.716 148.889 332.788 148.924C332.753 148.959 332.719 148.993 332.677 149.035H332.674ZM336.78 154.062C336.698 154.134 336.515 154.097 336.379 154.092C336.342 154.092 336.307 154.025 336.27 153.99C336.335 153.918 336.384 153.819 336.463 153.782C336.594 153.72 336.745 153.701 336.889 153.664C336.857 153.802 336.864 153.988 336.778 154.064L336.78 154.062ZM337.094 159.14C337.028 159.103 336.958 159.066 336.891 159.029C336.926 158.994 336.968 158.925 336.995 158.93C337.07 158.947 337.136 158.994 337.208 159.029C337.174 159.064 337.139 159.098 337.097 159.14H337.094ZM338.005 151.988C337.985 151.939 337.936 151.827 337.889 151.716C337.975 151.679 338.074 151.599 338.146 151.619C338.248 151.646 338.329 151.748 338.421 151.817C338.334 151.854 338.248 151.889 338.005 151.99V151.988ZM340.675 141.643C340.374 141.351 340.215 141.195 340.027 141.014C340.604 140.703 340.683 140.965 340.675 141.643ZM339.762 157.737C339.829 157.717 339.938 157.665 339.953 157.685C340.002 157.752 340.02 157.844 340.047 157.925H339.906C339.856 157.863 339.809 157.802 339.76 157.737H339.762ZM340.049 158.071C340.195 158.022 340.341 157.955 340.492 157.935C340.539 157.928 340.601 158.047 340.831 158.294C340.43 158.18 340.24 158.126 340.049 158.071ZM342.415 154.134C342.381 154.064 342.334 153.995 342.316 153.921C342.311 153.894 342.381 153.852 342.415 153.817C342.452 153.886 342.492 153.956 342.527 154.02C342.485 154.062 342.45 154.097 342.415 154.131V154.134ZM343.828 133.916C343.757 133.936 343.658 133.855 343.571 133.82C343.618 133.709 343.668 133.597 343.687 133.548C343.927 133.649 344.017 133.684 344.101 133.721C344.012 133.79 343.927 133.892 343.826 133.919L343.828 133.916ZM345.101 134.382C345.039 134.431 344.977 134.478 344.912 134.528C344.893 134.461 344.841 134.352 344.861 134.337C344.927 134.288 345.019 134.27 345.101 134.243V134.384V134.382ZM345.242 134.243C345.195 134.196 345.148 134.149 345.101 134.102C345.162 134.053 345.224 134.003 345.284 133.954C345.321 133.991 345.388 134.043 345.38 134.053C345.343 134.122 345.289 134.181 345.239 134.243H345.242ZM346.531 130.518C346.509 130.469 346.462 130.358 346.415 130.246C346.501 130.209 346.6 130.13 346.672 130.15C346.774 130.177 346.855 130.278 346.947 130.348C346.86 130.385 346.774 130.419 346.531 130.521V130.518ZM348.147 130.395C347.778 130.603 347.622 130.266 347.41 130.078C347.375 130.048 347.348 130.006 347.269 129.91C347.474 129.848 347.523 129.816 347.563 129.825C347.813 129.887 348.219 129.627 348.251 130.14C348.256 130.224 348.211 130.358 348.147 130.395ZM352.837 133.61C352.874 133.679 352.914 133.746 352.948 133.812C352.906 133.855 352.872 133.889 352.837 133.924C352.802 133.855 352.755 133.785 352.738 133.711C352.733 133.686 352.802 133.642 352.837 133.607V133.61ZM350.469 121.453C350.538 121.416 350.605 121.376 350.672 121.342C350.714 121.384 350.748 121.418 350.783 121.453C350.714 121.488 350.644 121.535 350.57 121.552C350.545 121.557 350.501 121.488 350.466 121.453H350.469ZM351.731 161.318H350.783V161.16H351.731V161.318ZM352.679 147.298C352.929 147.744 353.097 148.038 353.297 148.394H351.795C352.174 147.924 352.374 147.677 352.679 147.298ZM352.82 158.259C352.508 157.683 352.768 157.601 353.448 157.613C353.156 157.913 353.003 158.071 352.82 158.259Z" fill="#79A388"/>
<path d="M400.064 321.49C397.076 319.167 391.505 315.846 384.155 315.801H383.966C371.092 315.801 363.412 325.852 362.582 326.992L362.296 327.395L361.821 327.467C356.652 328.343 351.532 329.648 346.577 331.309C345.13 331.806 343.731 332.329 342.38 332.849H344.086V333.349H342.046V332.97C335.172 335.671 329.79 338.635 326.21 340.84C318.932 350.298 311.631 359.781 304.281 369.336C304.588 369.24 304.78 369.17 304.922 369.122C305.135 369.977 305.184 370.142 303.713 370.07C301.104 373.436 298.52 376.803 295.888 380.193C301.742 378.274 307.41 375.759 312.744 372.654L312.816 372.606C311.559 372.251 310.942 372.086 310.349 371.896C310.825 371.731 311.297 371.517 311.796 371.469C311.938 371.445 312.151 371.8 312.864 372.585L399.658 322.136C399.586 321.994 399.516 321.826 399.444 321.685C399.658 321.637 399.848 321.567 400.061 321.495L400.064 321.49ZM311.137 370.422C310.806 370.612 310.616 371.087 310.355 371.418C309.858 371.418 309.121 371.205 308.862 371.466C307.084 373.292 306.895 371.397 306.04 370.281C308.222 368.93 310.309 367.627 312.394 366.322C313.273 367.958 312.797 369.427 311.137 370.422ZM312.867 366.322C312.701 366.156 312.56 366.015 312.392 365.847C312.605 365.705 312.795 365.537 313.008 365.371C313.126 365.489 313.315 365.633 313.315 365.702C313.198 365.916 313.008 366.106 312.864 366.319L312.867 366.322ZM313.935 359.682C314.29 360.82 314.527 361.602 314.717 362.194C313.414 362.525 313.128 361.815 313.935 359.682ZM314.906 359.234C313.887 357.36 314.741 357.101 316.946 357.125C315.998 358.097 315.499 358.617 314.906 359.234ZM331.288 359.114C330.836 359.09 330.388 358.924 329.937 358.807C330.078 358.593 330.198 358.166 330.316 358.166C330.767 358.142 331.24 358.262 331.787 358.331C331.549 358.711 331.408 359.114 331.288 359.114ZM338.472 337.681C338.354 337.585 338.141 337.444 338.141 337.35C338.213 337.113 338.354 336.899 338.472 336.662C338.589 336.779 338.685 336.899 338.827 337.041C338.709 337.254 338.589 337.468 338.472 337.681ZM369.197 330.286C370.097 329.598 370.596 329.219 371.426 328.581C371.664 329.032 371.995 329.718 372.256 330.286H369.197ZM344.612 295.055C340.036 296.099 335.556 297.449 330.86 302.69C328.941 304.847 327.446 307.407 326.498 310.301L326.237 311.011L325.502 311.108C322.35 311.439 319.338 312.317 316.492 313.692C314.453 314.664 312.557 315.897 310.827 317.344C310.803 317.368 310.803 317.392 310.803 317.392L278.631 372.702C277.373 374.883 275.881 376.875 274.221 378.701C274.338 378.653 274.458 378.629 274.576 378.584C274.979 378.253 275.334 377.849 275.785 377.588C275.927 377.516 276.284 377.849 276.994 378.229C275.927 378.394 275.264 378.49 274.576 378.584V379.035C274.386 379.2 274.173 379.342 273.983 379.51C273.959 379.393 273.887 379.224 273.842 379.107C267.394 385.912 258.336 389.892 248.76 389.892H248.712L232.947 389.868L254.711 394.182C269.338 397.074 284.085 391.55 293.213 379.769C304.449 365.259 315.427 350.963 326.405 336.691C336.979 322.94 347.551 309.167 358.363 295.202C352.485 294.491 347.434 294.419 344.612 295.06V295.055ZM290.583 371.277C290.369 371.159 290.132 371.039 289.918 370.922C290.036 370.804 290.156 370.591 290.249 370.591C290.487 370.639 290.725 370.804 290.938 370.922C290.821 371.018 290.725 371.135 290.583 371.277ZM295.394 369.237C295.252 369.096 295.132 368.975 295.039 368.858C295.252 368.762 295.466 368.596 295.728 368.548C295.824 368.548 295.941 368.762 296.059 368.858C295.821 368.975 295.607 369.12 295.394 369.237ZM298.595 361.201C298.499 360.964 298.333 360.75 298.288 360.513C298.288 360.416 298.501 360.299 298.595 360.182C298.736 360.395 298.856 360.633 298.974 360.844C298.832 360.961 298.712 361.081 298.595 361.199V361.201ZM304.901 353.852C304.663 353.804 304.449 353.638 304.236 353.545C304.332 353.427 304.449 353.307 304.591 353.166C304.804 353.283 305.018 353.403 305.256 353.545C305.138 353.638 304.994 353.876 304.901 353.852ZM306.775 355.061C306.657 354.848 306.537 354.634 306.42 354.42C306.561 354.279 306.681 354.159 306.775 354.041C306.892 354.279 307.06 354.492 307.106 354.73C307.13 354.823 306.892 354.968 306.775 355.061ZM308.836 357.122C308.718 356.884 308.55 356.671 308.505 356.433C308.481 356.337 308.718 356.196 308.836 356.078C308.932 356.316 309.097 356.529 309.143 356.764C309.167 356.86 308.929 357.002 308.836 357.119V357.122ZM309.073 331.141C310.417 329.466 312.124 328.794 314.194 329.125C312.344 329.859 311.089 330.335 309.073 331.141ZM316.185 343.277C316.991 342.781 317.608 342.401 318.27 341.974C318.697 343.325 318.863 344.417 316.185 343.277ZM335.223 315.019C335.127 315.019 335.009 314.805 334.892 314.688C335.129 314.594 335.343 314.426 335.58 314.381C335.677 314.381 335.794 314.594 335.911 314.688C335.674 314.805 335.46 314.973 335.223 315.019ZM302.743 293.207C299.235 297.118 298.144 301.718 297.837 304.919L297.788 305.56L297.22 305.843C290.89 309.305 284.987 313.5 279.699 318.337C269.813 327.393 262.202 338.442 257.057 351.219L256.606 352.357L255.493 351.882C235.153 343.205 214.1 335.69 192.929 329.55C161.99 320.564 130.007 314.306 97.8378 310.891C90.8913 310.157 83.9929 312.717 79.2035 317.672C79.1074 317.768 79.038 317.838 78.9659 317.934C78.4453 318.479 77.9461 319.047 77.4949 319.664L-5.86035 429.406H129.676L149.258 389.743L104.806 389.673L90.1305 394.012L89.4657 391.734L104.637 387.3L181.759 387.418C181.831 387.18 181.973 386.966 182.09 386.755C182.208 386.873 182.304 386.969 182.445 387.111C182.397 387.207 182.328 387.3 182.28 387.418L220.734 387.466H220.875L248.709 387.514H248.757C260.183 387.514 270.854 381.397 276.591 371.512L308.929 315.87L308.977 315.822L309.001 315.774L325.43 287.492C316.706 285.262 307.933 287.444 302.743 293.205V293.207ZM34.6573 385.738H35.1779V387.778H34.6573V385.738ZM22.4702 422.342C22.3982 422.342 22.2567 422.129 22.1392 422.011C22.3528 421.894 22.5904 421.774 22.804 421.656C22.9214 421.798 23.0415 421.894 23.159 422.011C22.9214 422.129 22.7078 422.273 22.4702 422.342ZM22.804 408.07C22.5904 407.953 22.3528 407.833 22.1392 407.715C22.2567 407.598 22.3768 407.384 22.4702 407.384C22.7078 407.432 22.9214 407.598 23.159 407.715C23.0415 407.811 22.9214 407.929 22.804 408.07ZM31.3603 394.794C32.4975 394.162 33.4613 394.162 34.2515 394.794H31.3603ZM35.0124 395.838C34.7988 395.72 34.6092 395.555 34.3957 395.387C34.5612 395.221 34.7027 395.077 34.8709 394.935C35.0124 395.125 35.1779 395.314 35.3461 395.528C35.2286 395.645 35.0845 395.835 35.015 395.835L35.0124 395.838ZM39.5161 383.13C39.3025 383.272 39.113 383.437 38.8994 383.581C38.8514 383.368 38.6618 383.013 38.7339 382.965C38.9475 382.823 39.2545 382.751 39.5161 382.658V383.133V383.13ZM39.9673 382.658C39.8258 382.516 39.6603 382.372 39.5161 382.206C39.7057 382.041 39.9192 381.899 40.1088 381.731C40.2262 381.849 40.4158 381.993 40.4158 382.038C40.2983 382.276 40.1301 382.465 39.9646 382.655L39.9673 382.658ZM42.0763 371.418C41.9589 371.205 41.7907 370.967 41.7453 370.732C41.7453 370.636 41.9589 370.519 42.0763 370.401C42.1724 370.639 42.338 370.852 42.3833 371.09C42.3833 371.186 42.1698 371.303 42.0763 371.421V371.418ZM55.3526 372.438C55.2352 372.224 55.115 371.987 54.9976 371.773C55.115 371.656 55.2352 371.536 55.3526 371.418C55.4701 371.656 55.6143 371.869 55.6837 372.107C55.6837 372.203 55.4701 372.321 55.3526 372.438ZM58.2466 367.152C58.1504 367.152 58.033 366.938 57.9155 366.821C58.1291 366.704 58.3667 366.583 58.5803 366.466C58.6977 366.607 58.8179 366.704 58.9353 366.821C58.6977 366.938 58.4842 367.083 58.2466 367.152ZM60.118 384.267C59.6428 383.082 59.9044 382.348 61.6584 382.796C61.1138 383.317 60.5665 383.84 60.118 384.267ZM63.5325 413.335C63.415 413.097 63.2709 412.884 63.2015 412.646C63.2015 412.55 63.415 412.408 63.5325 412.315C63.65 412.529 63.7701 412.742 63.8876 412.956C63.7701 413.097 63.65 413.217 63.5325 413.335ZM68.6529 385.738L68.2739 385.359C68.3913 385.146 68.5115 384.932 68.6529 384.719C68.7491 384.815 68.984 384.956 68.96 385.05C68.9119 385.287 68.7464 385.501 68.6529 385.738ZM70.6926 347.925C70.5751 347.687 70.431 347.474 70.3615 347.236C70.3375 347.143 70.5751 346.999 70.6926 346.881C70.81 347.119 70.9542 347.332 70.9996 347.57C71.0236 347.663 70.786 347.808 70.6926 347.925ZM133.115 411.367C133.232 411.485 133.422 411.629 133.422 411.698C133.304 411.912 133.136 412.101 132.971 412.315C132.829 412.149 132.664 412.008 132.52 411.84C132.709 411.698 132.923 411.533 133.112 411.365L133.115 411.367ZM131.313 413.287C131.195 413.359 130.814 413.049 130.104 412.646C131.193 412.504 131.857 412.408 132.522 412.315C132.119 412.646 131.764 413.049 131.313 413.287ZM132.002 389.815C132.119 390.053 132.287 390.266 132.333 390.501C132.357 390.597 132.119 390.715 132.002 390.832C131.884 390.618 131.764 390.381 131.647 390.167C131.788 390.05 131.908 389.93 132.002 389.812V389.815ZM129.797 410.441C130.034 410.513 130.248 410.654 130.485 410.772C130.368 410.889 130.248 410.985 130.106 411.127C129.893 411.009 129.679 410.889 129.465 410.772C129.562 410.654 129.703 410.441 129.797 410.441ZM119.553 403.259C118.771 404.872 118.154 406.127 117.42 407.646C116.345 405.845 117.056 404.382 119.553 403.259ZM116.662 416.012C115.831 417.032 115.239 417.766 114.053 419.213C112.962 417.318 111.018 416.891 111.018 414.758C113.223 413.476 114.526 415.444 116.662 416.012ZM105.26 408.404C105.497 408.452 105.711 408.617 105.948 408.735C105.831 408.831 105.711 408.948 105.593 409.09C105.38 408.973 105.142 408.852 104.928 408.735C105.046 408.617 105.166 408.404 105.26 408.404ZM78.8725 340.765C78.9686 340.882 79.086 340.979 79.2275 341.12C79.1101 341.334 78.9899 341.571 78.8725 341.782C78.755 341.665 78.5414 341.544 78.5414 341.451C78.5895 341.213 78.755 340.976 78.8725 340.762V340.765ZM80.3168 405.131C79.7721 405.179 79.2249 405.155 78.3492 405.155V405.606C78.1597 405.772 77.9461 405.913 77.7565 406.081C77.6844 405.868 77.5189 405.513 77.567 405.465C77.7806 405.299 78.0876 405.251 78.3492 405.155H77.7325C81.0269 402.547 81.2645 402.547 82.6394 404.872C81.7611 404.968 81.0269 405.085 80.3168 405.134V405.131ZM84.9887 354.041C84.8712 353.828 84.7271 353.59 84.6817 353.352C84.6817 353.256 84.8712 353.139 84.9887 353.021C85.1062 353.235 85.2503 353.473 85.3678 353.684C85.2263 353.825 85.1062 353.921 84.9887 354.039V354.041ZM87.0737 349.917C86.9322 349.917 86.8121 349.513 86.6946 349.276C87.1458 349.158 87.5729 348.99 88.0214 348.969C88.1389 348.969 88.3071 349.372 88.518 349.751C87.9734 349.823 87.5222 349.941 87.071 349.917H87.0737ZM89.5645 344.82C89.3269 344.868 89.0199 344.607 88.7342 344.489C88.8757 344.134 89.0413 343.779 89.1133 343.611C89.8956 343.942 90.1812 344.062 90.4642 344.179C90.1572 344.393 89.8956 344.724 89.5645 344.82ZM97.4347 325.235C97.1971 325.187 96.9835 325.022 96.7459 324.928C96.8634 324.811 96.9835 324.691 97.101 324.549C97.3146 324.669 97.5522 324.787 97.7657 324.928C97.6483 325.025 97.5282 325.259 97.4347 325.235ZM101.18 370.209C101.084 370.233 100.943 369.995 100.825 369.878C101.063 369.76 101.276 369.64 101.49 369.523C101.631 369.664 101.752 369.784 101.869 369.878C101.631 369.995 101.418 370.163 101.18 370.209ZM104.24 325.235C104.144 325.259 104.026 325.022 103.909 324.928C104.122 324.787 104.36 324.667 104.573 324.549C104.691 324.691 104.811 324.811 104.928 324.928C104.691 325.025 104.477 325.19 104.24 325.235ZM106.466 322.368C106.349 322.131 106.181 321.917 106.135 321.679C106.111 321.583 106.349 321.442 106.466 321.348C106.562 321.562 106.728 321.776 106.773 322.037C106.773 322.133 106.56 322.251 106.466 322.368ZM107.772 320.281C107.417 320.043 107.014 319.901 107.014 319.784C107.038 319.333 107.203 318.882 107.321 318.433C107.534 318.575 107.937 318.671 107.961 318.812C107.985 319.263 107.865 319.715 107.772 320.283V320.281ZM110.639 319.285C109.833 318.43 108.34 318.027 109.43 316.225C110.236 317.101 111.728 317.48 110.639 319.285ZM110.57 315.043C111.872 315.398 112.489 315.587 113.106 315.753C112.631 315.918 112.158 316.132 111.659 316.204C111.517 316.228 111.304 315.849 110.57 315.043ZM113.722 317.128C113.485 317.01 113.295 316.842 113.106 316.676C113.247 316.535 113.413 316.391 113.557 316.225C113.722 316.415 113.888 316.628 114.032 316.818C113.915 316.935 113.77 317.125 113.725 317.125L113.722 317.128ZM117.182 360.94H114.123V360.443H117.182V360.94ZM120.762 362.221C120.645 362.008 120.525 361.77 120.407 361.556C120.549 361.439 120.645 361.319 120.762 361.201C120.88 361.439 121.024 361.653 121.093 361.887C121.093 361.96 120.88 362.101 120.762 362.218V362.221ZM128.777 332.396C128.681 332.42 128.539 332.182 128.422 332.065C128.659 331.947 128.873 331.827 129.086 331.709C129.228 331.851 129.348 331.971 129.465 332.065C129.228 332.182 129.014 332.347 128.777 332.396ZM132.002 356.081C131.884 355.867 131.764 355.654 131.647 355.44C131.788 355.299 131.908 355.179 132.002 355.061C132.119 355.299 132.287 355.512 132.333 355.75C132.357 355.846 132.119 355.987 132.002 356.081ZM135.913 321.159C135.841 321.159 135.699 320.945 135.582 320.828C135.819 320.71 136.033 320.59 136.246 320.473C136.388 320.614 136.508 320.71 136.602 320.828C136.388 320.945 136.174 321.089 135.913 321.159ZM144.328 368.361C144.162 368.148 144.021 367.958 143.852 367.745C144.066 367.697 144.421 367.507 144.469 367.579C144.635 367.793 144.683 368.1 144.776 368.361H144.325H144.328ZM145.799 369.854C146.274 369.688 146.746 369.475 147.246 369.403C147.387 369.379 147.601 369.758 148.337 370.564C147.035 370.209 146.418 370.019 145.801 369.854H145.799ZM157.865 356.057C157.486 355.819 157.083 355.678 157.083 355.56C157.107 355.085 157.273 354.661 157.39 354.209C157.628 354.327 158.031 354.447 158.031 354.589C158.055 355.04 157.935 355.491 157.865 356.057ZM158.578 333.605C158.461 333.367 158.317 333.154 158.271 332.919C158.247 332.823 158.461 332.705 158.578 332.588C158.696 332.801 158.84 333.039 158.909 333.277C158.909 333.373 158.696 333.49 158.578 333.608V333.605ZM161.494 377.417C161.376 377.275 161.256 377.155 161.138 377.038C161.376 376.92 161.59 376.776 161.827 376.731C161.923 376.707 162.041 376.92 162.158 377.038C161.945 377.155 161.707 377.299 161.494 377.417ZM169.364 338.891C169.34 338.44 169.316 338.037 169.316 337.681V338.157C169.102 338.298 168.913 338.464 168.699 338.632C168.651 338.418 168.485 338.063 168.533 337.991C168.747 337.85 169.054 337.778 169.316 337.681C169.316 335.952 169.671 335.241 171.283 335.928C170.763 336.758 170.287 337.468 169.364 338.891ZM183.967 386.569C183.871 386.569 183.729 386.355 183.612 386.238C183.849 386.12 184.063 385.976 184.301 385.931C184.397 385.907 184.538 386.12 184.656 386.238C184.418 386.355 184.204 386.499 183.967 386.569ZM190.275 347.925L189.896 347.546C190.014 347.332 190.158 347.119 190.275 346.881C190.371 346.999 190.606 347.143 190.582 347.236C190.534 347.474 190.369 347.687 190.275 347.925ZM196.888 364.237C196.651 364.285 196.343 364.047 196.058 363.927C196.199 363.548 196.365 363.193 196.437 363.027C197.219 363.358 197.481 363.479 197.764 363.596C197.478 363.81 197.219 364.141 196.885 364.237H196.888ZM202.177 357.693C201.726 356.508 201.963 355.774 203.717 356.222C203.173 356.743 202.649 357.266 202.177 357.693ZM209.169 378.578V379.598C208.883 379.36 208.6 379.147 208.314 378.909C208.6 378.792 208.883 378.696 209.169 378.578ZM209.785 380.498C209.572 380.38 209.382 380.215 209.169 380.047C209.334 379.905 209.476 379.74 209.62 379.595C209.785 379.785 209.951 379.999 210.119 380.188C210.002 380.306 209.857 380.495 209.788 380.495L209.785 380.498ZM209.241 378.437C208.886 376.138 210.33 376.421 211.35 376.611C211.777 376.683 212.039 377.606 212.583 378.437H209.241ZM228.468 352.167V355.034C227.836 353.897 227.836 352.941 228.468 352.167ZM227.069 377.558C226.951 377.321 226.783 377.107 226.738 376.87C226.714 376.776 226.951 376.632 227.069 376.539C227.186 376.752 227.33 376.966 227.376 377.227C227.376 377.323 227.186 377.441 227.069 377.558ZM228.254 356.294C228.35 356.27 228.492 356.484 228.585 356.601C228.372 356.719 228.158 356.839 227.944 356.957C227.803 356.839 227.683 356.719 227.565 356.601C227.803 356.484 228.017 356.34 228.254 356.294ZM228.089 381.638C227.971 381.424 227.827 381.187 227.758 380.949C227.758 380.88 227.971 380.735 228.089 380.618C228.206 380.831 228.326 381.069 228.444 381.283C228.302 381.424 228.206 381.52 228.089 381.638ZM228.585 379.029C228.396 379.195 228.182 379.336 227.993 379.505C227.92 379.291 227.755 378.936 227.827 378.888C228.041 378.722 228.326 378.674 228.585 378.578V379.029ZM229.06 378.578C228.895 378.413 228.753 378.271 228.585 378.127C228.799 377.962 228.988 377.796 229.178 377.631C229.295 377.748 229.509 377.892 229.509 377.962C229.391 378.175 229.202 378.365 229.058 378.578H229.06ZM229.06 352.002C228.919 351.526 228.705 351.054 228.633 350.579C228.609 350.413 228.988 350.224 229.77 349.535C229.415 350.768 229.25 351.385 229.06 352.002ZM230.198 376.373C231.455 376.728 232.072 376.894 232.686 377.083C232.211 377.225 231.738 377.438 231.239 377.51C231.097 377.534 230.908 377.155 230.195 376.373H230.198ZM233.305 378.461C233.068 378.343 232.878 378.175 232.688 378.01C232.83 377.868 232.995 377.7 233.14 377.558C233.305 377.748 233.471 377.962 233.615 378.151C233.497 378.269 233.353 378.461 233.308 378.461H233.305ZM236.861 373.885C237.075 373.816 237.43 373.647 237.478 373.719C237.643 373.933 237.691 374.216 237.785 374.478H237.334C237.192 374.288 237.027 374.074 236.858 373.885H236.861ZM238.402 375.401C238.188 375.284 237.998 375.092 237.785 374.95L238.26 374.475C238.402 374.689 238.567 374.878 238.735 375.068C238.618 375.185 238.474 375.399 238.404 375.399L238.402 375.401ZM244.731 369.333C244.352 369.096 243.949 368.954 243.949 368.837C243.997 368.385 244.163 367.937 244.28 367.486C244.494 367.627 244.897 367.747 244.921 367.889C244.945 368.34 244.825 368.789 244.731 369.336V369.333ZM246.154 375.567C247.222 374.523 248.074 373.671 249.046 372.721C248.949 374.451 248.215 375.401 246.154 375.567ZM263.862 355.061C263.745 354.965 263.507 354.823 263.531 354.73C263.579 354.492 263.745 354.279 263.862 354.041C263.958 354.159 264.076 354.279 264.217 354.42C264.1 354.634 263.98 354.848 263.862 355.061ZM266.377 343.8C266.164 343.848 265.832 343.587 265.547 343.469C265.712 343.114 265.854 342.759 265.926 342.591C266.708 342.922 266.994 343.042 267.277 343.16C266.97 343.373 266.708 343.704 266.377 343.8ZM273.796 353.686C273.559 353.425 273.679 352.832 273.7 352.383C273.724 352.266 273.914 352.146 274.031 352.052C274.269 352.242 274.6 352.407 274.72 352.669C274.909 353.096 274.981 353.593 275.099 354.044C274.648 353.948 274.055 353.972 273.796 353.689V353.686ZM291.459 322.368C291.341 322.131 291.173 321.917 291.128 321.679C291.104 321.583 291.341 321.442 291.459 321.348C291.555 321.562 291.72 321.776 291.766 322.037C291.766 322.133 291.552 322.251 291.459 322.368ZM295.538 322.368C295.421 322.251 295.231 322.131 295.231 322.037C295.279 321.776 295.421 321.562 295.538 321.348C295.655 321.445 295.776 321.562 295.893 321.703C295.797 321.917 295.655 322.131 295.538 322.366V322.368ZM309.855 313.169C309.738 312.931 309.57 312.717 309.524 312.48C309.5 312.384 309.738 312.242 309.855 312.149C309.973 312.362 310.093 312.576 310.211 312.789C310.069 312.931 309.949 313.051 309.855 313.169ZM263.459 280.286C227.851 283.108 191.981 287.54 156.798 293.445C138.377 296.55 119.767 300.106 101.535 304.044C96.9355 305.039 92.5492 306.841 88.5901 309.378C91.6255 308.502 94.8478 308.192 98.0728 308.547C130.387 311.962 162.535 318.268 193.591 327.278C196.696 328.18 199.779 329.104 202.86 330.052L180.718 308.24C180.339 308.406 179.936 308.478 179.533 308.571C179.629 308.168 179.605 307.648 179.818 307.362L171.19 298.851L172.85 297.145L187.715 311.796C198.786 310.683 210.023 308.168 221.19 304.423C226.121 302.762 231.052 300.819 235.817 298.637C236.362 298.4 236.955 298.33 237.571 298.282C250.42 298.592 260.971 293.635 263.246 286.216C263.814 284.413 263.886 282.422 263.459 280.289V280.286ZM114.457 302.762C114.384 302.762 114.243 302.549 114.126 302.431C114.339 302.314 114.577 302.169 114.814 302.121C114.91 302.121 115.028 302.311 115.145 302.431C114.908 302.549 114.694 302.693 114.457 302.762ZM140.013 305.819C139.917 305.843 139.8 305.605 139.682 305.488C139.896 305.37 140.109 305.25 140.323 305.133C140.465 305.274 140.585 305.394 140.702 305.488C140.465 305.605 140.251 305.771 140.013 305.819ZM163.747 297.831C161.352 296.574 163.272 295.199 163.629 293.445C164.27 294.796 164.673 295.626 165.028 296.384C164.601 296.859 164.174 297.356 163.747 297.831ZM184.135 299.868C184.018 299.655 183.873 299.441 183.828 299.182C183.828 299.086 184.018 298.969 184.135 298.851C184.253 299.089 184.397 299.302 184.466 299.54C184.466 299.636 184.253 299.777 184.135 299.871V299.868ZM190.086 293.562C190.014 293.562 189.872 293.349 189.755 293.231C189.992 293.114 190.206 292.97 190.444 292.924C190.54 292.9 190.657 293.114 190.775 293.231C190.561 293.349 190.323 293.493 190.086 293.562ZM204.571 308.048C204.454 307.931 204.358 307.835 204.216 307.693C204.334 307.479 204.454 307.242 204.571 307.028C204.689 307.146 204.902 307.266 204.902 307.359C204.83 307.597 204.689 307.835 204.571 308.048ZM211.707 296.881C211.304 297.07 210.997 297.474 210.664 297.783C210.143 297.263 209.668 296.787 209.171 296.288C210.026 295.458 210.856 294.628 211.78 293.728C212.348 294.441 212.941 295.151 213.865 296.264C212.797 296.55 212.204 296.619 211.707 296.881ZM226.973 329.929C218.224 327.63 209.121 325.567 199.875 323.789L207.818 331.613C223.892 336.734 239.8 342.66 255.303 349.228C256.654 345.979 258.171 342.874 259.831 339.863C249.043 336.117 237.996 332.799 226.973 329.929ZM210.568 328.343C210.426 328.201 210.306 328.105 210.188 327.988C210.426 327.87 210.64 327.726 210.877 327.657C210.973 327.657 211.115 327.87 211.208 327.988C210.995 328.105 210.781 328.225 210.568 328.343ZM245.965 337.636C245.538 337.471 245.276 336.854 244.945 336.427C245.442 336.165 246.082 335.572 246.437 335.717C247.054 335.978 247.505 336.664 248.546 337.684C247.195 337.684 246.507 337.85 245.962 337.636H245.965Z" fill="#512500"/>
<g clip-path="url(#clip0_51_70)">
<path d="M197.467 175.58C196.06 173.101 194.769 169.706 193.735 165.758C196.998 162.885 201.189 159.99 206.436 157.83C211.48 155.755 216.354 154.819 220.79 154.553C217.922 155.979 215.128 157.905 213.485 160.405C212.973 161.172 208.58 168.11 211.843 172.994C213.891 176.059 217.506 176.325 224.064 176.814C225.749 176.942 227.21 177.048 228.501 177.048C230.932 177.048 232.745 176.665 234.366 175.293C237.192 172.877 238.803 168.152 236.584 164.407C234.377 160.661 229.343 159.299 225.142 161.31L226.528 164.194C229.205 162.917 232.479 163.736 233.833 166.024C235.305 168.535 233.78 171.589 232.287 172.856C230.868 174.069 228.938 173.973 224.288 173.633C218.178 173.175 215.65 172.93 214.509 171.217C212.717 168.546 215.096 163.768 216.151 162.151C218.86 158.054 225.952 155.67 229.343 154.797C233.908 155.319 237.491 156.34 239.538 156.958C246.556 159.043 252.336 162.353 256.996 165.96C256.026 169.749 253.05 179.092 246.15 185.189C244.135 186.966 233.385 195.671 219.095 192.691C210.147 190.818 202.874 185.061 197.467 175.58Z" fill="#512500"/>
<path d="M189.341 194.724C185.214 190.425 182.367 184.284 181.759 182.922C183.604 178.059 185.481 175.229 186.483 173.803C187.55 172.292 189.075 170.334 191.111 168.259C192.125 171.77 193.351 174.814 194.684 177.165C200.56 187.477 208.558 193.755 218.434 195.82C220.727 196.299 222.923 196.501 225.024 196.501C237.448 196.501 246.374 189.243 248.273 187.573C255.013 181.614 258.319 172.898 259.684 168.195C264.387 172.302 267.725 176.57 269.857 179.687C269.186 184.316 266.754 193.83 260.761 199.31C255.695 203.939 250.043 204.886 240.701 206.461C235.795 207.28 226.656 208.823 214.957 206.535C207.535 205.088 197.371 203.098 189.341 194.724Z" fill="#512500"/>
<path d="M271.83 232.83C272.79 237.97 273.366 241.077 273.227 246.057C273.174 248.026 272.907 250.718 272.417 254.049H272.406C272.268 254.166 272.15 254.294 272.033 254.432C269.74 257.252 266.583 260.338 262.339 262.828C248.891 270.713 233.502 267.329 214.328 262.828C207.95 261.338 199.707 259.018 190.29 255.305C185.705 253.496 182.239 249.633 180.97 244.887C175.936 225.998 176.491 210.824 177.493 201.8C178.154 195.916 179.178 191.116 180.308 187.243C181.748 189.967 184.084 193.851 187.027 196.926C195.761 206.035 206.5 208.132 214.349 209.664C219.137 210.601 223.499 210.93 227.349 210.93C233.364 210.93 238.109 210.132 241.223 209.611C250.821 207.993 257.156 206.929 262.925 201.662C268.94 196.171 271.5 187.743 272.545 182.731C273.366 183.242 274.315 183.55 275.307 183.604C275.968 183.635 276.597 183.784 277.194 184.029C276.299 187.062 274.998 191.255 273.814 194.596C272.427 198.523 271.489 200.736 270.806 202.343C270.06 204.109 269.569 205.269 269.122 207.174C268.14 211.303 269.026 216.549 270.785 226.999C271.158 229.233 271.521 231.128 271.83 232.83Z" fill="#512500"/>
<path d="M287.987 249.92C287.603 250.601 284.041 256.677 279.434 255.826C278.218 255.613 277.216 254.954 276.448 254.209C276.214 253.985 275.968 253.804 275.691 253.666C276.128 250.591 276.384 248.069 276.427 246.143C276.576 240.822 275.936 237.406 274.977 232.245C274.667 230.564 274.315 228.68 273.942 226.477C272.257 216.443 271.404 211.409 272.236 207.908C272.62 206.259 273.025 205.312 273.75 203.588C274.454 201.939 275.414 199.683 276.832 195.66C278.005 192.34 279.146 188.648 279.882 186.211C280.309 186.849 280.618 187.562 280.778 188.35C285.897 213.804 289.054 232.926 289.736 240.737C289.864 242.12 290.163 246.1 287.987 249.92Z" fill="#512500"/>
</g>
<g clip-path="url(#clip1_51_70)">
<path d="M147.762 222.837L144.206 277.776C143.129 278.291 142.038 278.81 140.943 279.316C140.224 273.083 139.974 266.806 140.187 260.594C140.392 254.794 141.013 248.969 142.021 243.295L140.616 243.047C139.586 248.788 138.97 254.672 138.761 260.549C138.539 266.992 138.811 273.504 139.574 279.949C137.083 281.097 134.55 282.213 132.004 283.29C130.825 276.914 129.982 270.543 129.511 264.283C129.073 258.678 128.942 253.087 129.086 247.672L127.661 247.627C127.505 253.092 127.649 258.724 128.079 264.392C128.575 270.81 129.43 277.344 130.647 283.872C128.141 284.934 125.621 285.956 123.081 286.923C121.45 280.51 120.019 274.148 118.798 267.955C117.744 262.536 116.849 257.183 116.133 252.039L114.716 252.234C115.441 257.404 116.332 262.789 117.396 268.235C118.627 274.501 120.078 280.962 121.738 287.456C119.198 288.424 116.663 289.359 114.113 290.255L103.162 256.398L101.803 256.845L112.76 290.715L111.748 291.071C109.531 291.834 107.291 292.575 105.041 293.29C102.618 287.124 100.039 281.075 97.3779 275.311C95.0547 270.293 92.6385 265.398 90.1767 260.762L88.9122 261.433C91.3511 266.047 93.7578 270.915 96.0763 275.92C98.6999 281.621 101.269 287.598 103.678 293.723C101.068 294.534 98.4624 295.312 95.8425 296.051C93.0527 290.135 89.9493 284.406 86.6432 279.006C83.6853 274.165 80.5041 269.508 77.1695 265.148L76.0348 266.017C79.3235 270.332 82.4904 274.948 85.4207 279.753C88.6707 285.037 91.6862 290.646 94.4468 296.435C91.7682 297.179 89.0888 297.877 86.3952 298.535C83.2948 292.987 79.7641 287.68 75.9085 282.7C72.3071 278.055 68.3563 273.623 64.1535 269.553L63.1661 270.582C67.3095 274.612 71.2231 278.981 74.7786 283.582C78.5274 288.387 81.9378 293.524 84.9584 298.888C84.0666 299.111 83.1701 299.319 82.287 299.524L45.8457 258.632C47.3325 258.291 48.824 257.965 50.3331 257.601C64.3624 254.356 78.4746 250.354 92.2689 245.706C94.167 245.07 96.0556 244.407 97.9442 243.743C99.8328 243.08 101.825 242.365 103.758 241.656C104.068 241.547 104.387 241.42 104.697 241.311C105.524 240.99 106.369 240.678 107.201 240.371C107.336 240.324 107.484 240.272 107.628 240.206C109.075 239.667 110.518 239.115 111.956 238.55C112.545 238.328 113.134 238.106 113.718 237.87C114.585 237.535 115.434 237.191 116.283 236.848C117.573 236.334 118.858 235.807 120.143 235.28C128.292 231.948 136.311 228.374 144.177 224.581C144.218 224.567 144.267 224.534 144.307 224.52C145.474 223.959 146.614 223.407 147.762 222.837Z" fill="#79A388"/>
<path d="M143.465 223.33L143.452 223.335C142.958 223.569 142.465 223.803 141.957 224.042C138.767 225.572 135.544 227.052 132.311 228.506C119.107 234.401 105.531 239.715 91.8129 244.321C84.3332 246.842 76.7556 249.17 69.1521 251.295C68.0222 251.616 66.8876 251.923 65.753 252.231C60.5528 253.648 55.3465 254.962 50.1475 256.166C44.2688 255.306 39.1946 252.163 36.199 247.518C33.9916 244.08 33.2574 240.307 34.179 237.149C35.701 231.947 41.7338 228.025 48.8263 227.595L49.8202 227.534L49.4615 226.599C48.6131 224.442 46.9119 218.736 49.3447 212.244C51.933 205.288 57.5023 202.075 59.7777 201.003L60.1055 200.857L60.1766 200.499C60.2941 199.927 63.2032 186.464 76.0486 181.574C85.0453 178.065 95.5671 180.28 102.78 187.051L103.027 187.282L103.366 187.254C105.564 186.998 111.268 186.798 116.614 190.542C121.228 193.756 123.148 198.143 123.872 200.465L124.196 201.473L125.013 200.822C128.202 198.338 132.155 197.253 136.179 197.794C140.008 198.298 143.481 200.291 145.703 203.253C149.996 209.004 148.954 218.16 143.465 223.33Z" fill="#79A388"/>
</g>
<path d="M409.454 246.293C407.769 239.051 401.484 228.939 390.109 219.934C380.708 208.254 369.837 201.818 362.034 199.89C345.227 207.115 328.243 216.166 313.088 225.977C305.563 239.074 299.859 252.928 296.654 265.915C327.651 273.692 361.141 280.601 393.187 285.826C400.276 273.793 405.92 260.078 409.457 246.29L409.454 246.293ZM318.045 232.329C316.432 231.696 403.79 251.359 401.975 251.22C403.79 251.359 398.605 263.956 396.996 263.323C398.608 263.956 311.251 244.293 313.065 244.432C311.251 244.293 316.435 231.696 318.045 232.329ZM389.716 281.009C391.329 281.642 303.971 261.976 305.786 262.115C303.971 261.976 309.155 249.379 310.765 250.012C309.153 249.379 396.51 269.045 394.695 268.906C396.51 269.045 391.326 281.642 389.716 281.009Z" fill="#EF8168"/>
<defs>
<clipPath id="clip0_51_70">
<rect width="113" height="113" fill="white" transform="translate(176.821 154.553)"/>
</clipPath>
<clipPath id="clip1_51_70">
<rect width="119.015" height="115.169" fill="white" transform="translate(19.5342 201.407) rotate(-19.3523)"/>
</clipPath>
</defs>
</svg>