<svg width="26" height="26" viewBox="0 0 26 26" fill="none" xmlns="http://www.w3.org/2000/svg">
<path d="M22.1656 23.7078C19.5598 26.3135 12.8866 23.8651 7.26054 18.239C1.63448 12.613 -0.813967 5.93976 1.79178 3.33399L3.50747 1.6183C4.69191 0.433869 6.64357 0.465178 7.86663 1.68824L10.5241 4.34569C11.7471 5.56875 11.7784 7.52041 10.594 8.70484L10.2255 9.07335C9.586 9.71285 9.52344 10.7445 10.1176 11.4646C10.6908 12.1591 11.3087 12.8509 11.9787 13.5209C12.6486 14.1909 13.3405 14.8088 14.035 15.3819C14.7551 15.9761 15.7867 15.9136 16.4262 15.2741L16.7947 14.9056C17.9792 13.7211 19.9308 13.7524 21.1539 14.9755L23.8113 17.6329C25.0344 18.856 25.0657 20.8077 23.8813 21.9921L22.1656 23.7078Z" stroke="#512500" stroke-width="1.5"/>
</svg>
