<svg width="50" height="50" viewBox="0 0 50 50" fill="none" xmlns="http://www.w3.org/2000/svg">
<rect width="50" height="50" rx="25" fill="#512500"/>
<g clip-path="url(#stamatopoulos_events_clip)">
<path d="M26.1321 40.9805H23.8681C23.8142 40.9805 23.7701 40.9364 23.7701 40.8825V27.9697L14.6404 37.0993C14.6159 37.1238 14.5865 37.1336 14.5522 37.1238C14.5326 37.1238 14.5179 37.1091 14.5032 37.0993L12.9007 35.4968C12.9007 35.4968 12.8713 35.4527 12.8713 35.4282C12.8713 35.4037 12.8811 35.3792 12.9007 35.3596L22.0304 26.23H9.11754C9.06364 26.23 9.01953 26.1859 9.01953 26.132V23.8679C9.01953 23.8679 9.02443 23.8287 9.03423 23.814C9.05383 23.7895 9.08324 23.7699 9.11264 23.7699H22.0255L12.9007 14.6403C12.9007 14.6403 12.8713 14.5962 12.8713 14.5717C12.8713 14.5472 12.8811 14.5227 12.9007 14.5031L14.5032 12.9006C14.5424 12.8614 14.6012 12.8614 14.6404 12.9006L23.7701 22.0303V9.11742C23.7701 9.06351 23.8142 9.01941 23.8681 9.01941H26.1321C26.186 9.01941 26.2301 9.06351 26.2301 9.11742V22.0303L35.3598 12.9006C35.3794 12.881 35.4088 12.8712 35.4382 12.8712C35.4578 12.8712 35.4823 12.881 35.497 12.9006L37.0994 14.5031C37.1386 14.5423 37.1386 14.6011 37.0994 14.6403L27.9649 23.7748H40.8777C40.9316 23.7748 40.9757 23.8189 40.9757 23.8728V26.1369C40.9757 26.1369 40.9757 26.1663 40.9659 26.181C40.9512 26.2153 40.9169 26.2349 40.8777 26.2349H27.9649L37.0945 35.3645C37.1337 35.4037 37.1337 35.4625 37.0945 35.5017L35.4921 37.1042C35.4529 37.1434 35.3941 37.1434 35.3549 37.1042L26.2252 27.9746V40.8874C26.2252 40.9413 26.1811 40.9854 26.1272 40.9854L26.1321 40.9805ZM23.9661 40.7845H26.039V27.7344C26.039 27.6952 26.0635 27.6609 26.0978 27.6462C26.1321 27.6315 26.1762 27.6413 26.2007 27.6658L35.4284 36.8935L36.8936 35.4282L27.666 26.2006C27.6366 26.1712 27.6317 26.132 27.6464 26.0977C27.6611 26.0634 27.6954 26.0389 27.7346 26.0389H40.7846V23.966H27.7346C27.6954 23.966 27.6611 23.9415 27.6464 23.9072C27.6317 23.8728 27.6415 23.8287 27.666 23.8042L36.8936 14.5766L35.4284 13.1113L26.2007 22.339C26.1713 22.3684 26.1321 22.3733 26.0978 22.3586C26.0635 22.3439 26.039 22.3096 26.039 22.2704V9.21543H23.9661V22.2655C23.9661 22.3047 23.9416 22.339 23.9073 22.3537C23.873 22.3684 23.8289 22.3586 23.8044 22.3341L14.5718 13.1064L13.1066 14.5717L22.3342 23.7993C22.3636 23.8287 22.3685 23.8679 22.3538 23.9023C22.3391 23.9366 22.3048 23.9611 22.2656 23.9611H9.21555V26.034H22.2656C22.3048 26.034 22.3391 26.0585 22.3538 26.0928C22.3685 26.1271 22.3587 26.1712 22.3342 26.1957L13.1066 35.4233L14.5718 36.8886L23.7995 27.6609C23.8289 27.6315 23.8681 27.6266 23.9024 27.6413C23.9367 27.656 23.9612 27.6903 23.9612 27.7295V40.7796L23.9661 40.7845Z" fill="#FEF4EB" stroke="#FEF4EB" stroke-linecap="round" stroke-linejoin="round"/>
</g>
<defs>
<clipPath id="stamatopoulos_events_clip">
<rect width="33" height="33" fill="white" transform="translate(8.5 8.5)"/>
</clipPath>
</defs>
</svg>
