<svg width="34" height="33" viewBox="0 0 34 33" fill="none" xmlns="http://www.w3.org/2000/svg">
<path d="M30.4358 17.6075C30.4358 17.6075 30.4164 17.6153 30.4087 17.6192" stroke="#FEF4EB" stroke-miterlimit="10" stroke-linecap="round" stroke-linejoin="round"/>
<path d="M31.8444 17.441C29.8395 22.1515 27.8345 26.8619 25.8296 31.5723C22.9615 31.8935 19.7335 32.0987 16.2114 32.0716C13.1575 32.0522 10.3398 31.8587 7.793 31.5723C5.85388 26.8619 3.91862 22.1515 1.97949 17.441C2.49814 17.503 3.02066 17.5649 3.55092 17.623C7.15824 18.0216 11.0907 18.2887 15.3095 18.3429C20.8444 18.4164 25.9147 18.1106 30.4355 17.6075C30.9116 17.5533 31.3799 17.4991 31.8444 17.441Z" stroke="#FEF4EB" stroke-width="1.01" stroke-miterlimit="10" stroke-linecap="round" stroke-linejoin="round"/>
<path d="M30.4357 17.6075C25.915 18.1106 20.8446 18.4164 15.3098 18.3429C11.0909 18.2887 7.15845 18.0216 3.55113 17.623C0.601802 16.1018 -0.16843 12.7577 1.07788 11.0276C1.97196 9.78517 3.94593 9.27426 5.88892 9.82775C5.87344 9.38651 5.8657 7.60607 7.19329 6.01916C8.63699 4.2813 10.6071 4.05294 10.998 4.01424C11.1257 3.80136 13.1152 0.608184 16.9121 0.50755C19.6138 0.434011 22.1528 1.95899 23.4262 4.4129C23.8365 4.50579 25.4853 4.91994 26.631 6.51846C27.6373 7.91184 27.649 9.36329 27.6335 9.82775C29.8745 9.06913 32.282 10.3154 32.9477 12.4326C33.5554 14.3756 32.4213 16.7521 30.4357 17.6075Z" stroke="#FEF4EB" stroke-width="1.01" stroke-miterlimit="10" stroke-linecap="round" stroke-linejoin="round"/>
<path d="M30.4358 17.6075C30.4358 17.6075 30.4164 17.6153 30.4087 17.6192" stroke="#FEF4EB" stroke-width="1.01" stroke-miterlimit="10" stroke-linecap="round" stroke-linejoin="round"/>
<path d="M24.4751 31.7116C24.808 30.1828 25.2995 28.4411 26.031 26.5716C26.6735 24.9266 27.378 23.4984 28.0592 22.2947" stroke="#FEF4EB" stroke-miterlimit="10" stroke-linecap="round" stroke-linejoin="round"/>
<path d="M21.8511 31.9168C22.0872 30.3454 22.4394 28.5263 22.9619 26.5717C23.407 24.9228 23.887 23.4869 24.3514 22.2754" stroke="#FEF4EB" stroke-miterlimit="10" stroke-linecap="round" stroke-linejoin="round"/>
<path d="M19.2656 32.0407C19.405 30.4383 19.6024 28.5804 19.8965 26.5755C20.1365 24.9189 20.3958 23.4791 20.6435 22.2599" stroke="#FEF4EB" stroke-miterlimit="10" stroke-linecap="round" stroke-linejoin="round"/>
<path d="M16.6914 32.0755C16.7301 30.4654 16.7766 28.5959 16.8269 26.5755C16.8694 24.915 16.9043 23.4675 16.9352 22.2444" stroke="#FEF4EB" stroke-miterlimit="10" stroke-linecap="round" stroke-linejoin="round"/>
<path d="M13.2275 22.2289C13.4133 23.4558 13.603 24.9111 13.7617 26.5793C13.9513 28.5765 14.0597 30.4305 14.1178 32.029" stroke="#FEF4EB" stroke-miterlimit="10" stroke-linecap="round" stroke-linejoin="round"/>
<path d="M9.51953 22.2135C9.92206 23.4482 10.3323 24.9074 10.6923 26.5794C11.1142 28.5302 11.3696 30.3377 11.5283 31.9014" stroke="#FEF4EB" stroke-miterlimit="10" stroke-linecap="round" stroke-linejoin="round"/>
<path d="M5.81152 22.1941C6.43081 23.4365 7.06557 24.9034 7.62679 26.5833C8.24608 28.4411 8.64474 30.1712 8.90019 31.6885" stroke="#FEF4EB" stroke-miterlimit="10" stroke-linecap="round" stroke-linejoin="round"/>
</svg>
