<svg width="40" height="31" viewBox="0 0 40 31" fill="none" xmlns="http://www.w3.org/2000/svg">
<path d="M20.0001 10.8568C21.5782 10.8568 22.8576 9.57748 22.8576 7.99934C22.8576 6.42119 21.5782 5.14185 20.0001 5.14185C18.4219 5.14185 17.1426 6.42119 17.1426 7.99934C17.1426 9.57748 18.4219 10.8568 20.0001 10.8568Z" stroke="#512500" stroke-linecap="round" stroke-linejoin="round"/>
<path d="M11.2506 15.5009C12.8287 15.5009 14.108 14.2215 14.108 12.6434C14.108 11.0652 12.8287 9.78589 11.2506 9.78589C9.67241 9.78589 8.39307 11.0652 8.39307 12.6434C8.39307 14.2215 9.67241 15.5009 11.2506 15.5009Z" stroke="#512500" stroke-linecap="round" stroke-linejoin="round"/>
<path d="M15.3575 25.1426C16.5406 25.1426 17.4997 24.1835 17.4997 23.0004C17.4997 21.8173 16.5406 20.8582 15.3575 20.8582C14.1744 20.8582 13.2153 21.8173 13.2153 23.0004C13.2153 24.1835 14.1744 25.1426 15.3575 25.1426Z" stroke="#512500" stroke-linecap="round" stroke-linejoin="round"/>
<path d="M26.0725 24.6994C27.7988 24.6994 29.1982 23.3 29.1982 21.5737C29.1982 19.8474 27.7988 18.448 26.0725 18.448C24.3462 18.448 22.9468 19.8474 22.9468 21.5737C22.9468 23.3 24.3462 24.6994 26.0725 24.6994Z" stroke="#512500" stroke-linecap="round" stroke-linejoin="round"/>
<path d="M30.6124 11.3807C31.3295 12.6635 32.6999 13.5302 34.2746 13.5302C34.4772 13.5302 34.6724 13.5156 34.8658 13.4864C34.9552 14.1452 35.0008 14.8166 35.0008 15.4991C35.0008 23.7851 28.2841 30.5 19.9999 30.5C11.7158 30.5 4.99902 23.7851 4.99902 15.5009C4.99902 7.21674 11.7158 0.5 19.9999 0.5C20.8247 0.5 21.6312 0.567514 22.4195 0.695244C22.4122 0.77918 22.4104 0.864941 22.4104 0.950703C22.4104 2.92503 23.7753 4.58187 25.6164 5.02527" stroke="#512500" stroke-linecap="round" stroke-linejoin="round"/>
<path d="M25.6161 5.02515C25.3917 5.56891 25.2676 6.16559 25.2676 6.79146C25.2676 9.35518 27.3459 11.4353 29.9096 11.4353C30.1468 11.4353 30.3822 11.4189 30.6121 11.3824" stroke="#512500" stroke-linecap="round" stroke-linejoin="round"/>
</svg>
