<svg width="35" height="35" viewBox="0 0 35 35" fill="none" xmlns="http://www.w3.org/2000/svg">
<path d="M17.5001 12.681C15.7802 12.681 14.3789 11.2797 14.3789 9.55988C14.3789 7.84006 15.7802 6.43872 17.5001 6.43872C19.2199 6.43872 20.6212 7.84006 20.6212 9.55988C20.6212 11.2797 19.2199 12.681 17.5001 12.681ZM17.5001 6.62981C15.8831 6.62981 14.57 7.94295 14.57 9.55988C14.57 11.1768 15.8831 12.4899 17.5001 12.4899C19.117 12.4899 20.4301 11.1768 20.4301 9.55988C20.4301 7.94295 19.117 6.62981 17.5001 6.62981Z" fill="#4B2709" stroke="#4B2709" stroke-linecap="round" stroke-linejoin="round"/>
<path d="M8.23444 17.5956C6.51462 17.5956 5.11328 16.1943 5.11328 14.4744C5.11328 12.7546 6.51462 11.3533 8.23444 11.3533C9.95426 11.3533 11.3556 12.7546 11.3556 14.4744C11.3556 16.1943 9.95426 17.5956 8.23444 17.5956ZM8.23444 11.5444C6.61751 11.5444 5.30437 12.8575 5.30437 14.4744C5.30437 16.0914 6.61751 17.4045 8.23444 17.4045C9.85137 17.4045 11.1645 16.0914 11.1645 14.4744C11.1645 12.8575 9.85137 11.5444 8.23444 11.5444Z" fill="#4B2709" stroke="#4B2709" stroke-linecap="round" stroke-linejoin="round"/>
<path d="M12.5805 27.8067C11.2771 27.8067 10.2139 26.7434 10.2139 25.4401C10.2139 24.1367 11.2771 23.0735 12.5805 23.0735C13.8838 23.0735 14.9471 24.1367 14.9471 25.4401C14.9471 26.7434 13.8838 27.8067 12.5805 27.8067ZM12.5805 23.2695C11.3849 23.2695 10.4099 24.2445 10.4099 25.4401C10.4099 26.6356 11.3849 27.6107 12.5805 27.6107C13.776 27.6107 14.7511 26.6356 14.7511 25.4401C14.7511 24.2445 13.776 23.2695 12.5805 23.2695Z" fill="#4B2709" stroke="#4B2709" stroke-linecap="round" stroke-linejoin="round"/>
<path d="M23.9234 27.3314C22.0468 27.3314 20.5181 25.8027 20.5181 23.9261C20.5181 22.0495 22.0468 20.5208 23.9234 20.5208C25.8 20.5208 27.3288 22.0495 27.3288 23.9261C27.3288 25.8027 25.8 27.3314 23.9234 27.3314ZM23.9234 20.7167C22.1546 20.7167 20.7092 22.1573 20.7092 23.931C20.7092 25.7047 22.1497 27.1452 23.9234 27.1452C25.6971 27.1452 27.1377 25.7047 27.1377 23.931C27.1377 22.1573 25.6971 20.7167 23.9234 20.7167Z" fill="#4B2709" stroke="#4B2709" stroke-linecap="round" stroke-linejoin="round"/>
<path d="M17.5001 33.4757C8.68545 33.4757 1.52197 26.3074 1.52197 17.4976C1.52197 8.68776 8.68545 1.52429 17.5001 1.52429C18.3576 1.52429 19.2249 1.59289 20.0774 1.73008C20.1264 1.73988 20.1607 1.78398 20.1607 1.83298C20.1558 1.92117 20.1509 2.00447 20.1509 2.09757C20.1509 4.11137 21.518 5.84589 23.473 6.31627C23.5269 6.33097 23.5563 6.37997 23.5465 6.43387C23.5318 6.48777 23.4828 6.51716 23.4289 6.50736C21.3857 6.01739 19.9598 4.20447 19.9598 2.09757C19.9598 2.03387 19.9598 1.97017 19.9598 1.91137C19.1465 1.78398 18.3184 1.72028 17.5001 1.72028C8.79324 1.71538 1.71306 8.79556 1.71306 17.4976C1.71306 26.1996 8.79324 33.2846 17.5001 33.2846C26.2071 33.2846 33.2823 26.2045 33.2823 17.4976C33.2823 16.8165 33.2382 16.1354 33.1549 15.474C32.9785 15.4936 32.7973 15.5083 32.6111 15.5083C30.9696 15.5083 29.4507 14.6165 28.6471 13.1809C28.6226 13.1319 28.6373 13.0731 28.6863 13.0486C28.7304 13.0241 28.7892 13.0388 28.8186 13.0878C29.5879 14.4597 31.0382 15.3123 32.6111 15.3123C32.8267 15.3123 33.0275 15.2976 33.2235 15.2682C33.248 15.2682 33.2774 15.2682 33.297 15.2878C33.3166 15.3074 33.3313 15.327 33.3362 15.3515C33.4293 16.0472 33.4783 16.7724 33.4783 17.4927C33.4783 26.3025 26.3099 33.4708 17.5001 33.4708V33.4757Z" fill="#4B2709" stroke="#4B2709" stroke-linecap="round" stroke-linejoin="round"/>
<path d="M27.9905 13.2886C25.227 13.2886 22.978 11.0396 22.978 8.27613C22.978 7.61466 23.1054 6.97278 23.3553 6.37011C23.3749 6.32111 23.4337 6.29661 23.4827 6.31621C23.5317 6.33581 23.5562 6.39461 23.5366 6.44361C23.2965 7.02668 23.174 7.63915 23.174 8.27613C23.174 10.9318 25.3348 13.0975 27.9905 13.0975C28.2404 13.0975 28.4854 13.0779 28.7206 13.0436C28.7745 13.0338 28.8235 13.073 28.8333 13.122C28.8431 13.171 28.8039 13.2249 28.7549 13.2347C28.5099 13.2739 28.2551 13.2935 27.9954 13.2935L27.9905 13.2886Z" fill="#4B2709" stroke="#4B2709" stroke-linecap="round" stroke-linejoin="round"/>
</svg>
