<svg width="34" height="34" viewBox="0 0 34 34" fill="none" xmlns="http://www.w3.org/2000/svg">
<path d="M30.1597 21.1918C30.106 21.1918 30.062 21.1479 30.062 21.0941V7.30995C30.062 3.79796 24.0687 0.940497 16.7028 0.940497C9.33692 0.940497 3.32893 3.80284 3.32893 7.30995V7.74955V21.0941C3.32893 21.1479 3.28497 21.1918 3.23124 21.1918C3.17751 21.1918 3.13354 21.1479 3.13354 21.0941V7.30995C3.13354 3.6905 9.21969 0.75 16.7028 0.75C24.1859 0.75 30.2574 3.69538 30.2574 7.30995V7.82282V21.0893C30.2574 21.143 30.2135 21.1869 30.1597 21.1869V21.1918Z" fill="#512500" stroke="#512500" stroke-width="1.5" stroke-linecap="round" stroke-linejoin="round"/>
<path d="M11.3738 13.3521C11.3201 13.3521 11.2761 13.3082 11.2761 13.2544C11.2761 13.2007 11.3201 13.1567 11.3738 13.1567C11.4275 13.1567 11.4715 13.2007 11.4715 13.2544C11.4715 13.3082 11.4275 13.3521 11.3738 13.3521Z" fill="#512500" stroke="#512500" stroke-width="1.5" stroke-linecap="round" stroke-linejoin="round"/>
<path d="M23.2872 26.8236C23.2433 26.8236 23.2042 26.7943 23.1944 26.7503C23.1798 26.6966 23.2091 26.6478 23.2628 26.6331C27.4586 25.4999 30.0621 23.3751 30.0621 21.0891C30.0621 21.0354 30.1061 20.9915 30.1598 20.9915C30.2135 20.9915 30.2575 21.0354 30.2575 21.0891C30.2575 23.463 27.5954 25.6611 23.3165 26.8187C23.3068 26.8187 23.3019 26.8187 23.2921 26.8187L23.2872 26.8236Z" fill="#512500" stroke="#512500" stroke-width="1.5" stroke-linecap="round" stroke-linejoin="round"/>
<path d="M10.2796 26.8823C10.2796 26.8823 10.265 26.8823 10.2552 26.8823C5.86889 25.7442 3.13843 23.5267 3.13843 21.099C3.13843 21.0453 3.18239 21.0013 3.23612 21.0013C3.28985 21.0013 3.33381 21.0453 3.33381 21.099C3.33381 23.4338 6.00566 25.5782 10.2992 26.6967C10.3431 26.7065 10.3773 26.7456 10.3773 26.7895C10.3773 26.8433 10.3383 26.8872 10.2845 26.8872L10.2796 26.8823Z" fill="#512500" stroke="#512500" stroke-width="1.5" stroke-linecap="round" stroke-linejoin="round"/>
<path d="M16.6785 32.6069C7.8961 32.6069 0.75 28.372 0.75 23.1651C0.75 21.392 1.58526 19.658 3.16297 18.1633C3.20204 18.1291 3.26066 18.1291 3.29973 18.1633C3.33393 18.2024 3.33393 18.261 3.29973 18.3001C1.7611 19.7606 0.945382 21.4409 0.945382 23.1602C0.945382 28.2597 8.00356 32.4067 16.6834 32.4067C25.3632 32.4067 32.4214 28.2597 32.4214 23.1602C32.4214 21.4506 31.6203 19.785 30.1061 18.3343C30.0817 18.3148 30.0671 18.2903 30.0671 18.2561C30.0671 18.2024 30.111 18.1585 30.1648 18.1585C30.1941 18.1585 30.2283 18.178 30.2478 18.2024C31.7962 19.6776 32.6168 21.3969 32.6168 23.1553C32.6168 28.3623 25.4707 32.5972 16.6883 32.5972L16.6785 32.6069Z" fill="#512500" stroke="#512500" stroke-width="1.5" stroke-linecap="round" stroke-linejoin="round"/>
<path d="M10.2749 26.8823C10.2749 26.8823 10.2407 26.8774 10.2212 26.8676C10.1919 26.8481 10.1772 26.8188 10.1772 26.7846V13.7819C10.1772 13.7428 10.1968 13.7135 10.231 13.694L16.6981 10.5972C16.7225 10.5825 16.7567 10.5825 16.7812 10.5972L23.3264 13.694C23.3606 13.7086 23.3802 13.7428 23.3802 13.7819V26.7308C23.3802 26.765 23.3655 26.7943 23.3362 26.8139C23.3069 26.8334 23.2727 26.8334 23.2434 26.8237C22.1541 26.3401 21.0502 25.8614 19.9756 25.4022C18.9206 24.948 17.8313 24.4791 16.7616 24.0053L10.3042 26.8823C10.3042 26.8823 10.2798 26.892 10.2652 26.892L10.2749 26.8823ZM10.3677 13.8454V26.6429L16.7274 23.8099C16.7518 23.8001 16.7812 23.8001 16.8056 23.8099C17.8899 24.2886 18.989 24.7673 20.0587 25.2264C21.0844 25.6709 22.1444 26.1252 23.1897 26.5892V13.8503L16.7421 10.7974L10.3677 13.8503V13.8454Z" fill="#512500" stroke="#512500" stroke-width="1.5" stroke-linecap="round" stroke-linejoin="round"/>
<path d="M23.2726 21.436C23.2726 21.436 23.2384 21.436 23.2238 21.4214L16.7908 17.4796L10.3579 21.3921C10.3139 21.4214 10.2553 21.4067 10.226 21.3579C10.1967 21.3139 10.2113 21.2553 10.2602 21.226L16.742 17.2842C16.7713 17.2646 16.8103 17.2646 16.8445 17.2842L23.3263 21.2553C23.3703 21.2846 23.3849 21.3432 23.3605 21.3872C23.341 21.4165 23.3117 21.4312 23.2775 21.4312L23.2726 21.436Z" fill="#512500" stroke="#512500" stroke-width="1.5" stroke-linecap="round" stroke-linejoin="round"/>
</svg>
