<svg width="41" height="32" viewBox="0 0 41 32" fill="none" xmlns="http://www.w3.org/2000/svg">
<path d="M13.7366 0.994815C13.4803 0.869075 11.4757 -0.0522163 9.43002 0.994815C7.74703 1.85324 6.57184 3.77078 6.81123 5.8721C7.05546 7.97583 8.64414 9.64915 10.552 10.0191C11.1976 10.1449 11.7973 10.1037 12.3075 9.99252L12.31 9.9901C13.1805 9.79907 13.8092 9.40009 14.022 9.255C16.1402 7.92505 18.2609 6.59994 20.3791 5.26999C18.1642 3.84574 15.9492 2.41907 13.7366 0.994815ZM11.6015 6.43551C10.9848 6.43551 10.4867 5.9253 10.4867 5.29659C10.4867 4.66789 10.9848 4.15767 11.6015 4.15767C12.2181 4.15767 12.7162 4.66547 12.7162 5.29659C12.7162 5.92771 12.2157 6.43551 11.6015 6.43551Z" stroke="#512500" stroke-linecap="round" stroke-linejoin="round"/>
<path d="M19.7911 17.8705C19.7355 21.0818 16.8193 23.0815 15.9246 23.6232C15.7965 23.7005 15.7118 23.7465 15.678 23.7634C13.4388 24.9507 10.7427 24.912 8.41162 23.9714C10.5758 21.5533 11.398 18.8837 11.7752 17.5997C12.6965 14.4755 12.5538 11.7262 12.3047 9.99241L12.3072 9.98999C13.272 10.2004 15.3515 10.7976 17.1724 12.6281C18.0114 13.472 19.8347 15.3001 19.7887 17.873L19.7911 17.8705Z" stroke="#512500" stroke-linecap="round" stroke-linejoin="round"/>
<path d="M8.41162 23.9714C7.93526 24.5034 7.39361 25.0209 6.77941 25.5093C5.52201 26.5104 4.27186 27.1343 3.25142 27.5309C2.7001 27.7461 2.07382 27.5139 1.78606 26.9892C1.0558 25.6617 -0.00573904 23.0695 0.772885 20.1098C1.04371 19.0796 1.47897 18.2357 1.91422 17.5804C2.20439 17.1452 2.85728 17.2685 2.98543 17.7763C3.25142 18.8306 3.76406 20.1484 4.77966 21.3647C5.73964 22.5133 7.00913 23.4056 8.41162 23.9714Z" stroke="#512500" stroke-linecap="round" stroke-linejoin="round"/>
<path d="M15.925 23.4517C16.1692 23.8458 16.9478 25.1999 16.7471 27.0401C16.5174 29.1317 15.1874 30.3577 14.8779 30.6285" stroke="#512500" stroke-linecap="round" stroke-linejoin="round"/>
<path d="M12.4862 24.0198C12.5998 24.3849 12.9093 25.8865 12.4716 27.0424C11.7293 29.0035 9.63281 29.4556 9.48047 29.4871" stroke="#512500" stroke-linecap="round" stroke-linejoin="round"/>
<path d="M31.3304 0.994815C29.2847 -0.0522164 27.2826 0.869075 27.0263 0.994815C24.8113 2.41907 22.5963 3.84574 20.3813 5.26999C22.4996 6.59994 24.6203 7.92505 26.7385 9.255C26.9561 9.40009 27.58 9.79907 28.4505 9.9901H28.4529C28.9656 10.1038 29.5652 10.1449 30.2109 10.0191C32.1163 9.64915 33.7098 7.97583 33.9492 5.8721C34.1886 3.77078 33.0134 1.85565 31.3304 0.994815ZM29.1566 6.43551C28.5424 6.43551 28.0418 5.9253 28.0418 5.29659C28.0418 4.66789 28.5424 4.15767 29.1566 4.15767C29.7708 4.15767 30.2737 4.66547 30.2737 5.29659C30.2737 5.92771 29.7732 6.43551 29.1566 6.43551Z" stroke="#512500" stroke-linecap="round" stroke-linejoin="round"/>
<path d="M32.3486 23.9713C30.0152 24.912 27.319 24.9507 25.0798 23.7634C25.0484 23.7465 24.9614 23.7005 24.8332 23.6231C23.9385 23.0839 21.0223 21.0817 20.9667 17.8705C20.9207 15.2977 22.744 13.4696 23.5855 12.6257C25.4087 10.7952 27.4834 10.1979 28.4482 9.98755H28.4507C28.2016 11.7262 28.0589 14.4731 28.9802 17.5973C29.3599 18.8837 30.1796 21.5508 32.3462 23.9689L32.3486 23.9713Z" stroke="#512500" stroke-linecap="round" stroke-linejoin="round"/>
<path d="M38.9839 26.9675C38.6864 27.5091 38.0529 27.7437 37.4846 27.5236C36.4691 27.127 35.2286 26.5032 33.9808 25.5093C33.3666 25.0209 32.8226 24.5034 32.3486 23.9714C33.7511 23.4056 35.0206 22.5133 35.9806 21.3647C36.9938 20.1484 37.5088 18.833 37.7748 17.7763C37.903 17.2661 38.5583 17.1452 38.846 17.5804C39.2813 18.2357 39.7165 19.0797 39.9874 20.1098C40.7636 23.0526 39.7165 25.6351 38.9863 26.9675H38.9839Z" stroke="#512500" stroke-linecap="round" stroke-linejoin="round"/>
<path d="M24.8329 23.4517C24.5887 23.8458 23.81 25.1999 24.0107 27.0401C24.2405 29.1317 25.5704 30.3577 25.8799 30.6285" stroke="#512500" stroke-linecap="round" stroke-linejoin="round"/>
<path d="M28.2305 24.4744C28.1168 24.8395 27.846 25.8841 28.2837 27.04C29.026 29.001 31.1225 29.4532 31.2749 29.4846" stroke="#512500" stroke-linecap="round" stroke-linejoin="round"/>
</svg>
