<svg width="201" height="40" viewBox="0 0 201 40" fill="none" xmlns="http://www.w3.org/2000/svg">
<g clip-path="url(#stamatopoulos_logo_clip)">
<path d="M100.041 35.887H153.783" stroke="#512500" stroke-width="0.51" stroke-miterlimit="10"/>
<path d="M5.15493 39.8744C4.58822 39.8744 4.09662 39.772 3.68695 39.5671C3.27045 39.3623 2.95637 39.0755 2.73106 38.7C2.51257 38.3313 2.40332 37.908 2.40332 37.43H3.209C3.209 37.7509 3.28411 38.0514 3.42749 38.3245C3.5777 38.5976 3.78936 38.8161 4.07613 38.9799C4.3629 39.1438 4.72477 39.2258 5.15493 39.2258C5.53728 39.2258 5.85819 39.1643 6.11765 39.0346C6.3771 38.9048 6.57511 38.7341 6.71849 38.5225C6.85505 38.3108 6.93016 38.065 6.93016 37.7987C6.93016 37.4778 6.86188 37.2115 6.72532 37.0135C6.58877 36.8155 6.40442 36.6517 6.17227 36.5288C5.94012 36.4059 5.67384 36.2966 5.37342 36.201C5.07299 36.1054 4.75891 36.0099 4.43118 35.9006C3.83716 35.6958 3.40018 35.4431 3.12024 35.1427C2.8403 34.8423 2.69692 34.4531 2.69009 33.9888C2.69009 33.586 2.78568 33.2241 2.97003 32.9169C3.15438 32.6028 3.42749 32.357 3.78937 32.1795C4.15124 32.0019 4.57456 31.9063 5.06616 31.9063C5.55777 31.9063 5.96061 31.9951 6.31565 32.1795C6.6707 32.357 6.95064 32.6096 7.14865 32.9305C7.34665 33.2514 7.44907 33.6133 7.44907 34.0298H6.65704C6.65704 33.7976 6.59559 33.5655 6.47269 33.3402C6.34979 33.1149 6.17227 32.9305 5.9333 32.7871C5.69432 32.6437 5.3939 32.5755 5.0252 32.5755C4.72477 32.5755 4.45849 32.6301 4.22634 32.7325C3.9942 32.8418 3.81668 32.992 3.68012 33.1968C3.55039 33.4016 3.48211 33.6338 3.48211 33.9069C3.48211 34.18 3.54356 34.3848 3.65964 34.5555C3.77571 34.7262 3.93958 34.8628 4.15807 34.972C4.36973 35.0813 4.62236 35.1837 4.90913 35.2725C5.19589 35.3612 5.5168 35.4705 5.86502 35.5865C6.22689 35.7094 6.54097 35.8596 6.82091 36.0372C7.10085 36.2147 7.31934 36.44 7.48321 36.7131C7.64708 36.9862 7.72901 37.3344 7.72901 37.7509C7.72901 38.1128 7.63342 38.4542 7.44907 38.7751C7.26472 39.096 6.97795 39.3623 6.59559 39.5671C6.21324 39.772 5.73529 39.8744 5.16175 39.8744H5.15493Z" fill="#512500"/>
<path d="M10.5353 39.7378V32.6642H8.2207V32.0224H13.6147V32.6642H11.3V39.7378H10.5285H10.5353Z" fill="#512500"/>
<path d="M13.1707 39.7378L16.011 32.0293H16.803L19.6434 39.7378H18.8309L16.407 33.0398L13.9832 39.7378H13.1707ZM14.4679 37.6554L14.7001 37.0135H18.1003L18.3325 37.6554H14.4679Z" fill="#512500"/>
<path d="M20.6677 39.7378V32.0293H21.5485L24.3889 37.5939L27.2224 32.0293H28.1169V39.7378H27.3453V33.4358L24.6825 38.6591H24.1089L21.4461 33.4631V39.7378H20.6746H20.6677Z" fill="#512500"/>
<path d="M29.1274 39.7378L31.9678 32.0293H32.7598L35.6002 39.7378H34.7877L32.3638 33.0398L29.9399 39.7378H29.1274ZM30.4316 37.6554L30.6637 37.0135H34.0639L34.2961 37.6554H30.4316Z" fill="#512500"/>
<path d="M37.4709 39.7378V32.6642H35.1562V32.0224H40.5502V32.6642H38.2356V39.7378H37.464H37.4709Z" fill="#512500"/>
<path d="M44.4763 39.8744C43.7389 39.8744 43.0971 39.7105 42.5372 39.376C41.9773 39.0414 41.5472 38.5771 41.2331 37.9763C40.919 37.3754 40.762 36.679 40.762 35.887C40.762 35.0949 40.919 34.4122 41.2331 33.8113C41.5472 33.2105 41.9773 32.7462 42.5372 32.4048C43.0971 32.0702 43.7389 31.8995 44.4763 31.8995C45.2137 31.8995 45.8896 32.0702 46.4495 32.4048C47.0094 32.7393 47.4396 33.2105 47.7468 33.8113C48.0541 34.4122 48.2111 35.1018 48.2111 35.887C48.2111 36.6722 48.0541 37.3754 47.7468 37.9763C47.4396 38.5771 47.0026 39.0414 46.4495 39.376C45.8896 39.7105 45.2342 39.8744 44.4763 39.8744ZM44.4899 39.1984C45.0703 39.1984 45.5824 39.0687 46.0194 38.8024C46.4632 38.5361 46.8046 38.1606 47.0504 37.6622C47.2962 37.1638 47.4191 36.5766 47.4191 35.8801C47.4191 35.1837 47.2962 34.5965 47.0504 34.1049C46.8046 33.6133 46.4632 33.2378 46.0194 32.9715C45.5756 32.7052 45.0703 32.5755 44.4899 32.5755C43.9096 32.5755 43.3975 32.7052 42.9605 32.9715C42.5167 33.2378 42.1753 33.6133 41.9295 34.1049C41.6837 34.5965 41.5608 35.1905 41.5608 35.8801C41.5608 36.5697 41.6837 37.1638 41.9295 37.6622C42.1753 38.1606 42.5167 38.5361 42.9605 38.8024C43.4043 39.0687 43.9096 39.1984 44.4899 39.1984Z" fill="#512500"/>
<path d="M49.4946 39.7378V32.0293H51.9185C52.5125 32.0293 53.0041 32.1248 53.3933 32.3228C53.7825 32.5209 54.0693 32.7803 54.2536 33.1149C54.438 33.4494 54.5267 33.8318 54.5267 34.2551C54.5267 34.6784 54.438 35.054 54.2536 35.3885C54.0693 35.7231 53.7825 35.9894 53.4001 36.1874C53.0178 36.3854 52.5193 36.481 51.9185 36.481H50.2662V39.7378H49.4946ZM50.2662 35.8323H51.9185C52.574 35.8323 53.0383 35.689 53.3182 35.409C53.5981 35.1291 53.7347 34.7399 53.7347 34.2551C53.7347 33.7703 53.5981 33.3675 53.3182 33.0944C53.0383 32.8213 52.574 32.6847 51.9185 32.6847H50.2662V35.8323Z" fill="#512500"/>
<path d="M59.081 39.8744C58.3436 39.8744 57.7018 39.7105 57.1419 39.376C56.5821 39.0414 56.1519 38.5771 55.8378 37.9763C55.5237 37.3754 55.3667 36.679 55.3667 35.887C55.3667 35.0949 55.5237 34.4122 55.8378 33.8113C56.1519 33.2105 56.5821 32.7462 57.1419 32.4048C57.7018 32.0702 58.3436 31.8995 59.081 31.8995C59.8184 31.8995 60.4944 32.0702 61.0543 32.4048C61.6141 32.7393 62.0443 33.2105 62.3515 33.8113C62.6588 34.4122 62.8158 35.1018 62.8158 35.887C62.8158 36.6722 62.6588 37.3754 62.3515 37.9763C62.0443 38.5771 61.6073 39.0414 61.0543 39.376C60.4944 39.7105 59.8389 39.8744 59.081 39.8744ZM59.0879 39.1984C59.6682 39.1984 60.1803 39.0687 60.6173 38.8024C61.0611 38.5361 61.4025 38.1606 61.6483 37.6622C61.8941 37.1638 62.017 36.5766 62.017 35.8801C62.017 35.1837 61.8941 34.5965 61.6483 34.1049C61.4025 33.6133 61.0611 33.2378 60.6173 32.9715C60.1735 32.7052 59.6682 32.5755 59.0879 32.5755C58.5075 32.5755 57.9954 32.7052 57.5584 32.9715C57.1146 33.2378 56.7732 33.6133 56.5274 34.1049C56.2816 34.5965 56.1587 35.1905 56.1587 35.8801C56.1587 36.5697 56.2816 37.1638 56.5274 37.6622C56.7732 38.1606 57.1146 38.5361 57.5584 38.8024C58.0022 39.0687 58.5075 39.1984 59.0879 39.1984Z" fill="#512500"/>
<path d="M66.8304 39.8744C66.3115 39.8744 65.8404 39.772 65.417 39.5671C64.9937 39.3623 64.6592 39.0414 64.4065 38.6044C64.1539 38.1674 64.031 37.6144 64.031 36.9384V32.0361H64.8026V36.9453C64.8026 37.4642 64.8913 37.8943 65.062 38.2289C65.2327 38.5635 65.4717 38.8093 65.7858 38.9595C66.093 39.1165 66.4481 39.1916 66.8441 39.1916C67.2401 39.1916 67.6019 39.1165 67.9024 38.9595C68.2028 38.8024 68.4349 38.5635 68.6056 38.2289C68.7763 37.8943 68.8583 37.4642 68.8583 36.9453V32.0361H69.6298V36.9384C69.6298 37.6144 69.5069 38.1674 69.2543 38.6044C69.0017 39.0414 68.6671 39.3623 68.2438 39.5671C67.8204 39.772 67.3493 39.8744 66.8304 39.8744Z" fill="#512500"/>
<path d="M71.2139 39.7378V32.0293H71.9854V39.1097H75.6315V39.7378H71.2139Z" fill="#512500"/>
<path d="M79.6191 39.8744C78.8817 39.8744 78.2399 39.7105 77.68 39.376C77.1201 39.0414 76.69 38.5771 76.3759 37.9763C76.0618 37.3754 75.9048 36.679 75.9048 35.887C75.9048 35.0949 76.0618 34.4122 76.3759 33.8113C76.69 33.2105 77.1201 32.7462 77.68 32.4048C78.2399 32.0702 78.8817 31.8995 79.6191 31.8995C80.3565 31.8995 81.0325 32.0702 81.5923 32.4048C82.1522 32.7393 82.5824 33.2105 82.8896 33.8113C83.1969 34.4122 83.3539 35.1018 83.3539 35.887C83.3539 36.6722 83.1969 37.3754 82.8896 37.9763C82.5824 38.5771 82.1454 39.0414 81.5923 39.376C81.0325 39.7105 80.377 39.8744 79.6191 39.8744ZM79.6259 39.1984C80.2063 39.1984 80.7184 39.0687 81.1554 38.8024C81.5992 38.5361 81.9406 38.1606 82.1864 37.6622C82.4322 37.1638 82.5551 36.5766 82.5551 35.8801C82.5551 35.1837 82.4322 34.5965 82.1864 34.1049C81.9406 33.6133 81.5992 33.2378 81.1554 32.9715C80.7116 32.7052 80.2063 32.5755 79.6259 32.5755C79.0456 32.5755 78.5335 32.7052 78.0965 32.9715C77.6527 33.2378 77.3113 33.6133 77.0655 34.1049C76.8197 34.5965 76.6968 35.1905 76.6968 35.8801C76.6968 36.5697 76.8197 37.1638 77.0655 37.6622C77.3113 38.1606 77.6527 38.5361 78.0965 38.8024C78.5403 39.0687 79.0456 39.1984 79.6259 39.1984Z" fill="#512500"/>
<path d="M86.952 39.8744C86.3853 39.8744 85.8937 39.772 85.4841 39.5671C85.0676 39.3623 84.7535 39.0755 84.5282 38.7C84.3097 38.3313 84.2004 37.908 84.2004 37.43H85.0061C85.0061 37.7509 85.0812 38.0514 85.2246 38.3245C85.3748 38.5976 85.5865 38.8161 85.8733 38.9799C86.16 39.1438 86.5219 39.2258 86.952 39.2258C87.3344 39.2258 87.6553 39.1643 87.9148 39.0346C88.1742 38.9048 88.3722 38.7341 88.5156 38.5225C88.6522 38.3108 88.7273 38.065 88.7273 37.7987C88.7273 37.4778 88.659 37.2115 88.5224 37.0135C88.3859 36.8155 88.2015 36.6517 87.9694 36.5288C87.7372 36.4059 87.471 36.2966 87.1705 36.201C86.8701 36.1054 86.556 36.0099 86.2283 35.9006C85.6343 35.6958 85.1973 35.4431 84.9174 35.1427C84.6374 34.8423 84.494 34.4531 84.4872 33.9888C84.4872 33.586 84.5828 33.2241 84.7671 32.9169C84.9515 32.6028 85.2246 32.357 85.5865 32.1795C85.9484 32.0019 86.3717 31.9063 86.8633 31.9063C87.3549 31.9063 87.7577 31.9951 88.1128 32.1795C88.4678 32.357 88.7478 32.6096 88.9458 32.9305C89.1438 33.2514 89.2462 33.6133 89.2462 34.0298H88.4542C88.4542 33.7976 88.3927 33.5655 88.2698 33.3402C88.1469 33.1149 87.9694 32.9305 87.7304 32.7871C87.4914 32.6437 87.191 32.5755 86.8223 32.5755C86.5219 32.5755 86.2556 32.6301 86.0235 32.7325C85.7913 32.8418 85.6138 32.992 85.4772 33.1968C85.3475 33.4016 85.2792 33.6338 85.2792 33.9069C85.2792 34.18 85.3407 34.3848 85.4568 34.5555C85.5728 34.7262 85.7367 34.8628 85.9552 34.972C86.1668 35.0813 86.4195 35.1837 86.7062 35.2725C86.993 35.3612 87.3139 35.4705 87.6621 35.5865C88.024 35.7094 88.3381 35.8596 88.618 36.0372C88.898 36.2147 89.1165 36.44 89.2803 36.7131C89.4442 36.9862 89.5261 37.3344 89.5261 37.7509C89.5261 38.1128 89.4305 38.4542 89.2462 38.7751C89.0618 39.096 88.7751 39.3623 88.3927 39.5671C88.0104 39.772 87.5324 39.8744 86.9589 39.8744H86.952Z" fill="#512500"/>
<path d="M164.311 39.7378V32.0292H166.735C167.329 32.0292 167.821 32.1248 168.21 32.3228C168.599 32.5208 168.886 32.7803 169.07 33.1149C169.254 33.4494 169.343 33.8318 169.343 34.2551C169.343 34.6784 169.254 35.054 169.07 35.3885C168.886 35.7231 168.599 35.9894 168.217 36.1874C167.834 36.3854 167.336 36.481 166.735 36.481H165.083V39.7378H164.311ZM165.083 35.8323H166.735C167.39 35.8323 167.855 35.6889 168.135 35.409C168.415 35.1291 168.551 34.7399 168.551 34.2551C168.551 33.7703 168.415 33.3675 168.135 33.0944C167.855 32.8213 167.39 32.6847 166.735 32.6847H165.083V35.8323Z" fill="#512500"/>
<path d="M169.227 39.7378L172.067 32.0292H172.859L175.7 39.7378H174.887L172.463 33.0398L170.04 39.7378H169.227ZM170.524 37.6553L170.756 37.0135H174.157L174.389 37.6553H170.524Z" fill="#512500"/>
<path d="M178.998 39.8744C178.431 39.8744 177.939 39.772 177.53 39.5671C177.113 39.3623 176.799 39.0755 176.574 38.7C176.355 38.3313 176.246 37.908 176.246 37.43H177.052C177.052 37.7509 177.127 38.0514 177.27 38.3245C177.42 38.5976 177.632 38.8161 177.919 38.9799C178.206 39.1438 178.568 39.2258 178.998 39.2258C179.38 39.2258 179.701 39.1643 179.96 39.0346C180.22 38.9048 180.418 38.7341 180.561 38.5225C180.698 38.3108 180.773 38.065 180.773 37.7987C180.773 37.4778 180.705 37.2115 180.568 37.0135C180.432 36.8155 180.247 36.6517 180.015 36.5288C179.783 36.4059 179.517 36.2966 179.216 36.201C178.916 36.1054 178.602 36.0099 178.274 35.9006C177.68 35.6958 177.243 35.4431 176.963 35.1427C176.683 34.8423 176.54 34.4531 176.533 33.9888C176.533 33.586 176.628 33.2241 176.813 32.9169C176.997 32.6028 177.27 32.357 177.632 32.1795C177.994 32.0019 178.417 31.9063 178.909 31.9063C179.401 31.9063 179.803 31.9951 180.158 32.1795C180.513 32.357 180.793 32.6096 180.991 32.9305C181.189 33.2514 181.292 33.6133 181.292 34.0298H180.5C180.5 33.7976 180.438 33.5655 180.315 33.3402C180.193 33.1149 180.015 32.9305 179.776 32.7871C179.537 32.6437 179.237 32.5755 178.868 32.5755C178.568 32.5755 178.301 32.6301 178.069 32.7325C177.837 32.8418 177.659 32.992 177.523 33.1968C177.393 33.4016 177.325 33.6338 177.325 33.9069C177.325 34.18 177.386 34.3848 177.502 34.5555C177.618 34.7262 177.782 34.8628 178.001 34.972C178.213 35.0813 178.465 35.1837 178.752 35.2725C179.039 35.3612 179.36 35.4705 179.708 35.5865C180.07 35.7094 180.384 35.8596 180.664 36.0372C180.944 36.2147 181.162 36.44 181.326 36.7131C181.49 36.9862 181.572 37.3344 181.572 37.7509C181.572 38.1128 181.476 38.4542 181.292 38.7751C181.107 39.096 180.821 39.3623 180.438 39.5671C180.056 39.772 179.578 39.8744 179.005 39.8744H178.998Z" fill="#512500"/>
<path d="M184.371 39.7378V32.6642H182.057V32.0224H187.451V32.6642H185.136V39.7378H184.364H184.371Z" fill="#512500"/>
<path d="M188.461 39.7378V32.0292H190.837C191.431 32.0292 191.916 32.1317 192.298 32.3297C192.674 32.5277 192.954 32.794 193.131 33.1285C193.309 33.4631 193.397 33.8454 193.397 34.2688C193.397 34.6921 193.309 35.054 193.124 35.3953C192.94 35.7367 192.66 36.0098 192.278 36.2079C191.895 36.4127 191.397 36.5083 190.789 36.5083H189.239V39.7378H188.468H188.461ZM189.232 35.8869H190.782C191.404 35.8869 191.868 35.7367 192.162 35.4363C192.455 35.1359 192.605 34.7467 192.605 34.2688C192.605 33.7908 192.462 33.388 192.175 33.108C191.888 32.8281 191.424 32.6847 190.776 32.6847H189.232V35.8869ZM192.558 39.7378L190.83 36.2693H191.711L193.486 39.7378H192.564H192.558Z" fill="#512500"/>
<path d="M196.381 39.7378V36.7336L193.889 32.0292H194.756L196.893 36.283H196.627L198.751 32.0292H199.611L197.146 36.7336V39.7378H196.374H196.381Z" fill="#512500"/>
<path d="M2.5536 2.26L8.66449 13.1572H8.72594L12.6383 5.81729C13.2869 4.58828 13.8331 3.52315 14.2906 2.26H16.298L9.34727 14.3179V23.5969H6.95753V14.3179L0 2.26H2.5536Z" fill="#512500"/>
<path d="M21.1866 3.4617C21.1866 4.26738 20.4765 4.91602 19.664 4.91602C18.8515 4.91602 18.1482 4.26738 18.1482 3.4617C18.1482 2.65602 18.8241 1.97324 19.664 1.97324C20.5038 1.97324 21.1866 2.64919 21.1866 3.4617ZM20.7701 8.24116V19.2339C20.7701 20.6268 20.8998 22.5659 21.0295 23.5969H18.5715V12.6041C18.5715 11.2113 18.4759 9.49748 18.3121 8.24116H20.7701Z" fill="#512500"/>
<path d="M30.4656 23.9246C26.7786 23.9246 23.7061 21.0774 23.7061 15.9088C23.7061 11.1225 26.4235 7.92026 30.4314 7.92026C32.9509 7.92026 35.1221 9.24485 36.0917 11.382H36.1258C36.1258 10.8972 35.9005 8.86249 35.8049 8.24799H38.3244V19.2408C38.3244 20.859 38.42 22.5727 38.5838 23.6037H36.1258V20.4698H36.0917C35.088 22.7025 32.8621 23.9315 30.4656 23.9315V23.9246ZM26.007 15.902C26.007 19.8484 27.7823 22.5318 30.923 22.5318C34.0638 22.5318 36.1941 19.8484 36.1941 15.902C36.1941 11.9555 34.0638 9.27216 30.923 9.27216C27.7823 9.27216 26.007 11.9555 26.007 15.902Z" fill="#512500"/>
<path d="M44.333 8.24116V11.0884H44.3671C45.3025 9.08098 47.4055 7.92026 49.6996 7.92026C52.8336 7.92026 55.1004 9.82522 55.1004 14.2223V19.2339C55.1004 20.3947 55.196 22.3679 55.3599 23.5969H52.9019V14.4818C52.9019 10.6992 51.3178 9.27899 49.0578 9.27899C46.313 9.27899 44.3398 11.382 44.3398 14.7412V23.5969H42.1413V13.3825C42.1413 12.0238 42.0115 10.0232 41.8477 8.24116H44.3398H44.333Z" fill="#512500"/>
<path d="M60.8767 8.24116V11.0884H60.9108C61.8462 9.08098 63.9492 7.92026 66.2433 7.92026C69.3773 7.92026 71.6441 9.82522 71.6441 14.2223V19.2339C71.6441 20.3947 71.7397 22.3679 71.9036 23.5969H69.4456V14.4818C69.4456 10.6992 67.8615 9.27899 65.6015 9.27899C62.8567 9.27899 60.8835 11.382 60.8835 14.7412V23.5969H58.685V13.3825C58.685 12.0238 58.5552 10.0232 58.3914 8.24116H60.8835H60.8767Z" fill="#512500"/>
<path d="M77.919 3.4617C77.919 4.26738 77.2089 4.91602 76.3964 4.91602C75.5839 4.91602 74.8806 4.26738 74.8806 3.4617C74.8806 2.65602 75.5566 1.97324 76.3964 1.97324C77.2362 1.97324 77.919 2.64919 77.919 3.4617ZM77.4957 8.24116V19.2339C77.4957 20.6268 77.6254 22.5659 77.7551 23.5969H75.2971V12.6041C75.2971 11.2113 75.2015 9.49748 75.0377 8.24116H77.4957Z" fill="#512500"/>
<path d="M85.5524 16.9739C82.6438 16.3253 80.575 14.6456 80.575 12.1262C80.575 9.60673 82.6096 7.92026 85.5183 7.92026C87.0067 7.92026 88.5225 8.37089 89.6559 9.1834V11.7029C88.6864 9.95494 87.1638 9.01953 85.5524 9.01953C83.9411 9.01953 82.5482 9.98908 82.5482 11.737C82.5482 13.3893 83.8728 14.3247 86.1055 14.871C88.7205 15.5196 90.6938 16.8101 90.6938 19.3978C90.6938 22.1426 88.5635 23.9246 85.4568 23.9246C83.7089 23.9246 81.9678 23.3443 80.6705 22.3747V19.8211C81.7357 21.6988 83.4495 22.798 85.4568 22.798C87.4642 22.798 88.7205 21.8285 88.7205 19.9509C88.7205 18.1756 87.4301 17.3973 85.5524 16.9739Z" fill="#512500"/>
<path d="M134.043 19.3295C135.723 21.4939 138.017 22.6888 140.346 22.6888C143.124 22.6888 145.064 21.0092 145.064 18.4214C145.064 15.8337 143.186 14.6047 140.407 13.8604C137.014 12.9865 134.262 11.1157 134.262 7.65397C134.262 4.19227 137.007 1.93227 140.919 1.93227C142.926 1.93227 144.763 2.58091 146.286 3.61191V6.29524C145.023 4.35614 143.213 3.09299 140.953 3.09299C138.365 3.09299 136.522 4.71118 136.522 7.06678C136.522 9.71597 138.755 10.945 141.465 11.6551C144.893 12.5632 147.385 14.3998 147.385 17.766C147.385 21.453 144.64 23.911 140.209 23.911C138.01 23.911 135.907 23.2965 134.037 22.0675V19.3227L134.043 19.3295Z" fill="#512500"/>
<path d="M157.401 23.0165C156.691 23.631 155.626 23.9246 154.493 23.9246C152.649 23.9246 150.546 23.1804 150.546 19.6231V9.34044H147.863V8.63035C150.581 8.6918 151.42 7.62666 151.741 3.78261H152.772V8.24117H157.074V9.34044H152.772V20.0396C152.772 21.849 153.578 22.7844 154.937 22.7844C155.845 22.7844 156.814 22.3338 157.395 21.5895V23.0097L157.401 23.0165Z" fill="#512500"/>
<path d="M171.712 14.6115C171.712 15.0007 171.678 15.3899 171.617 15.9361H160.433C160.467 20.0123 162.666 22.7912 165.895 22.7912C167.903 22.7912 169.678 21.7261 170.839 19.8826V22.4703C169.548 23.4057 167.67 23.9246 165.765 23.9246C161.109 23.9246 158.036 20.6609 158.036 15.7791C158.036 11.1566 160.979 7.92026 165.178 7.92026C169.125 7.92026 171.706 10.6992 171.706 14.6115H171.712ZM165.178 9.05367C162.495 9.05367 160.556 11.5117 160.46 14.8437H169.575C169.61 11.3205 167.8 9.05367 165.178 9.05367Z" fill="#512500"/>
<path d="M174.553 23.5969V5.98116C174.553 4.33566 174.457 2.5536 174.293 0H176.751V19.2339C176.751 20.2376 176.881 22.2382 177.011 23.5969H174.553Z" fill="#512500"/>
<path d="M180.554 23.5969V5.98116C180.554 4.33566 180.459 2.5536 180.295 0H182.753V19.2339C182.753 20.2376 182.883 22.2382 183.012 23.5969H180.554Z" fill="#512500"/>
<path d="M192.448 23.9246C188.761 23.9246 185.689 21.0774 185.689 15.9088C185.689 11.1225 188.406 7.92026 192.414 7.92026C194.934 7.92026 197.105 9.24485 198.075 11.382H198.109C198.109 10.8972 197.883 8.86249 197.788 8.24799H200.307V19.2408C200.307 20.859 200.403 22.5727 200.567 23.6037H198.109V20.4698H198.075C197.071 22.7025 194.845 23.9315 192.448 23.9315V23.9246ZM187.983 15.902C187.983 19.8484 189.758 22.5318 192.899 22.5318C196.04 22.5318 198.17 19.8484 198.17 15.902C198.17 11.9555 196.04 9.27216 192.899 9.27216C189.758 9.27216 187.983 11.9555 187.983 15.902Z" fill="#512500"/>
<path d="M106.418 6.56835C106.418 5.87874 106.541 5.24375 106.787 4.66339C107.033 4.08303 107.381 3.57094 107.825 3.12713C108.269 2.68333 108.787 2.34193 109.395 2.09613C109.996 1.85033 110.665 1.72743 111.396 1.72743C112.645 1.72743 113.676 2.03468 114.482 2.64919C115.288 3.26369 115.697 4.16496 115.697 5.34617C115.697 5.94702 115.554 6.53421 115.274 7.09409C114.994 7.65397 114.632 8.17971 114.188 8.66448C113.744 9.14926 113.266 9.59307 112.748 9.98908C112.229 10.3851 111.737 10.7265 111.259 11.0064C112.229 12.2559 113.178 13.4781 114.106 14.673C115.035 15.8678 115.984 16.9944 116.953 18.0527C117.732 16.9534 118.435 15.902 119.07 14.8983C119.705 13.8946 120.285 12.8158 120.798 11.6482C120.927 11.9282 121.105 12.174 121.33 12.372C121.555 12.5768 121.788 12.768 122.027 12.9387C121.357 13.9697 120.688 14.9734 120.019 15.9429C119.35 16.9125 118.565 17.9162 117.657 18.9472L121.794 23.5013C121.453 23.4603 121.105 23.4399 120.763 23.4399H118.811C118.497 23.4399 118.189 23.4603 117.889 23.5013C117.718 23.2623 117.452 22.9005 117.097 22.4157C116.742 21.9309 116.325 21.412 115.854 20.8453C114.905 21.7944 113.888 22.5454 112.802 23.0916C111.717 23.6379 110.406 23.9178 108.876 23.9178C108.036 23.9178 107.244 23.8154 106.5 23.6106C105.756 23.4057 105.107 23.078 104.547 22.6273C103.987 22.1767 103.537 21.61 103.209 20.9272C102.881 20.2444 102.711 19.4592 102.711 18.5511C102.711 17.8411 102.861 17.1446 103.161 16.4687C103.462 15.7927 103.878 15.1441 104.404 14.5296C104.93 13.9151 105.551 13.362 106.261 12.8636C106.971 12.3652 107.75 11.9487 108.589 11.6004C107.961 10.6923 107.449 9.83204 107.04 9.0127C106.63 8.19337 106.425 7.37403 106.425 6.55469L106.418 6.56835ZM105.353 17.9776C105.353 18.558 105.469 19.1247 105.708 19.6777C105.947 20.2308 106.275 20.7156 106.691 21.1321C107.108 21.5486 107.613 21.8831 108.193 22.1357C108.774 22.3815 109.409 22.5044 110.098 22.5044C111.198 22.5044 112.133 22.3064 112.911 21.9036C113.69 21.5076 114.455 20.9272 115.206 20.1762C114.106 18.8857 113.062 17.6021 112.072 16.3321C111.082 15.0621 110.098 13.7444 109.129 12.3856C107.941 13.0957 107.019 13.8741 106.35 14.7139C105.681 15.5537 105.346 16.6462 105.346 17.9776H105.353ZM114.018 5.3052C114.018 4.52683 113.785 3.88502 113.321 3.37976C112.857 2.8745 112.229 2.62187 111.43 2.62187C110.59 2.62187 109.921 2.91547 109.422 3.49583C108.924 4.0762 108.678 4.79995 108.678 5.66025C108.678 6.30889 108.869 7.05995 109.245 7.92025C109.62 8.78056 110.112 9.57941 110.713 10.31C111.812 9.62038 112.638 8.82152 113.185 7.89977C113.731 6.98484 114.011 6.11771 114.011 5.29838L114.018 5.3052Z" fill="#512500"/>
</g>
<defs>
<clipPath id="stamatopoulos_logo_clip">
<rect width="200.56" height="39.8744" fill="white"/>
</clipPath>
</defs>
</svg>
